<svg xmlns="http://www.w3.org/2000/svg" xmlns:xlink="http://www.w3.org/1999/xlink" viewBox="0 0 3638.51 1355.05"><defs><style>.cls-1,.cls-19,.cls-27,.cls-6{fill:none;}.cls-2{isolation:isolate;}.cls-3{fill:#141e42;}.cls-4{clip-path:url(#clip-path);}.cls-5{opacity:0.06;mix-blend-mode:overlay;fill:url(#radial-gradient);}.cls-6{stroke:#fff;stroke-miterlimit:10;}.cls-7{fill:#e83f3f;}.cls-14,.cls-15,.cls-22,.cls-24,.cls-8{fill:#fff;}.cls-9{opacity:0.21;}.cls-10,.cls-12,.cls-9{mix-blend-mode:multiply;}.cls-10{opacity:0.11;}.cls-11{fill:#fcfcfc;}.cls-12{opacity:0.1;}.cls-13{fill:#c43434;}.cls-14{font-size:160px;}.cls-14,.cls-15,.cls-22,.cls-24{font-family:BebasNeue-Regular, Bebas Neue;}.cls-15{font-size:145px;letter-spacing:0.04em;}.cls-16{fill:#ff3c3c;}.cls-17{fill:#c83f3f;}.cls-18{fill:#9c3f3f;}.cls-19,.cls-27{stroke:#181825;stroke-linecap:round;stroke-linejoin:round;}.cls-19{stroke-width:0.95px;}.cls-20{fill:#e6e3e3;}.cls-21{fill:#c33f3f;}.cls-22,.cls-24{font-size:94.03px;}.cls-22{letter-spacing:0.01em;}.cls-23{letter-spacing:0.04em;}.cls-24{letter-spacing:0.04em;}.cls-25{letter-spacing:-0.04em;}.cls-26{fill:#ed0a0a;}.cls-27{stroke-width:1.07px;}</style><clipPath id="clip-path" transform="translate(0.28 57.05)"><rect class="cls-1" y="0.35" width="2245.25" height="1209.53"/></clipPath><radialGradient id="radial-gradient" cx="1364.62" cy="646.25" r="694.14" gradientTransform="translate(-836.52 -10.3) scale(1.4 0.98)" gradientUnits="userSpaceOnUse"><stop offset="0" stop-color="#fff"/><stop offset="0" stop-color="#f7f7f7"/><stop offset="0.24" stop-color="#f7f7f7" stop-opacity="0.99"/><stop offset="0.38" stop-color="#f7f7f7" stop-opacity="0.96"/><stop offset="0.49" stop-color="#f7f7f7" stop-opacity="0.9"/><stop offset="0.59" stop-color="#f7f7f7" stop-opacity="0.82"/><stop offset="0.68" stop-color="#f7f7f7" stop-opacity="0.72"/><stop offset="0.76" stop-color="#f7f7f7" stop-opacity="0.59"/><stop offset="0.84" stop-color="#f7f7f7" stop-opacity="0.43"/><stop offset="0.91" stop-color="#f7f7f7" stop-opacity="0.26"/><stop offset="0.98" stop-color="#f7f7f7" stop-opacity="0.06"/><stop offset="1" stop-color="#f7f7f7" stop-opacity="0"/></radialGradient></defs><title>BANNER PARADERO</title><g class="cls-2"><g id="Capa_1" data-name="Capa 1"><rect class="cls-3" x="0.03" y="57.17" width="3638" height="1210"/><g class="cls-4"><path class="cls-5" d="M1239.31,1290.05,1069.23,620.48,1401,1259.78l-161.64,30.27Zm-253.75,8H1152.9l-83.67-677.52L985.56,1298Zm-86.41-8,170.08-669.57-331.72,639.3ZM657,1236.47l412.24-616L512.07,1178Zm-214.07-95.56,626.31-520.43L324.6,1058.21Zm-171.38-131,797.69-389.4L187.87,908.59Zm-117-157.56,914.71-231.84-958,118.87ZM99.83,679l969.4-58.48L99.83,562ZM111.2,501.61l958,118.87L154.52,388.63Zm76.67-169.25,881.36,288.12L271.54,231.07ZM324.59,182.75l744.64,437.73L442.92,100.05ZM512.07,63l557.16,557.52L657,4.49ZM737.51-18.83l331.72,639.31L899.15-49.1ZM985.56-57l83.67,677.53L1152.9-57Zm253.75,7.95L1069.23,620.48l331.71-639.3ZM1481.46,4.48l-412.23,616L1626.39,63ZM1695.53,100l-626.3,520.44,744.63-437.73Zm171.39,131L1069.23,620.48l881.35-288.12Zm117,157.56L1069.23,620.48l958-118.87ZM2038.63,562l-969.4,58.48L2038.62,679Zm-11.38,177.35-958-118.87,914.71,231.84Zm-76.66,169.24L1069.23,620.48l797.69,389.4Zm-136.73,149.62L1069.23,620.48l626.3,520.43ZM1626.39,1178,1069.23,620.48l412.24,616Z" transform="translate(0.28 57.05)"/></g><path class="cls-6" d="M3638.12,166.92s-128.19,29.25-276.78-104.55" transform="translate(0.28 57.05)"/><polygon class="cls-7" points="3516.22 212.13 3500.69 325.33 3529.38 306.36 3546.96 294.74 3560.74 310.78 3583.23 336.92 3598.75 223.72 3516.22 212.13"/><polygon class="cls-8" points="3541.81 215.73 3529.38 306.36 3546.96 294.74 3560.74 310.78 3573.18 220.13 3541.81 215.73"/><polygon class="cls-7" points="3316.64 57.96 3228 128.83 3261.69 135.21 3282.33 139.12 3281.31 160.34 3279.67 194.95 3368.31 124.08 3316.64 57.96"/><polygon class="cls-8" points="3332.66 78.46 3261.69 135.21 3282.33 139.12 3281.31 160.34 3352.3 103.59 3332.66 78.46"/><polygon class="cls-7" points="3403.34 154.63 3347.46 253.96 3381.05 247.08 3401.63 242.88 3408.56 262.94 3419.88 295.64 3475.76 196.32 3403.34 154.63"/><polygon class="cls-8" points="3425.8 167.56 3381.05 247.08 3401.63 242.88 3408.56 262.94 3453.32 183.4 3425.8 167.56"/><path class="cls-6" d="M-.17,165.92S128,195.17,276.61,61.37" transform="translate(0.28 57.05)"/><polygon class="cls-7" points="122.29 211.13 137.81 324.33 109.13 305.36 91.55 293.74 77.77 309.78 55.28 335.92 39.75 222.72 122.29 211.13"/><polygon class="cls-8" points="96.69 214.73 109.13 305.36 91.55 293.74 77.77 309.78 65.33 219.13 96.69 214.73"/><polygon class="cls-7" points="321.87 56.96 410.51 127.83 376.81 134.21 356.18 138.12 357.19 159.34 358.83 193.95 270.2 123.08 321.87 56.96"/><polygon class="cls-8" points="305.85 77.46 376.81 134.21 356.18 138.12 357.19 159.34 286.21 102.59 305.85 77.46"/><polygon class="cls-7" points="235.17 153.63 291.05 252.96 257.45 246.08 236.87 241.88 229.94 261.94 218.63 294.64 162.75 195.32 235.17 153.63"/><polygon class="cls-8" points="212.71 166.56 257.45 246.08 236.87 241.88 229.94 261.94 185.19 182.4 212.71 166.56"/><path class="cls-8" d="M695.34,914.47c-19.79-16.29-48.82-20.46-72.4-10.41,1.49,5.42,6.37,10,10.87,13.41,6.88,5.17,14.42,10,23,11.23,12.66,1.79,24.85-4.7,36-11A8,8,0,0,0,696,915C696.71,913.74,696.45,915.38,695.34,914.47Z" transform="translate(0.28 57.05)"/><path class="cls-8" d="M695.62,914.92c-18.51-17.74-26.08-46.07-18.88-70.67,5.57.84,10.71,5.15,14.6,9.21,5.95,6.23,11.66,13.14,13.86,21.46,3.27,12.36-1.74,25.24-6.65,37a8,8,0,0,1-2.32,3.57C695.06,916.37,696.66,915.91,695.62,914.92Z" transform="translate(0.28 57.05)"/><path class="cls-8" d="M622,860.19c-19.8-16.29-48.82-20.46-72.4-10.41,1.48,5.43,6.37,10,10.87,13.41,6.88,5.17,14.42,10,22.94,11.23,12.66,1.79,24.86-4.7,36-11a7.92,7.92,0,0,0,3.26-2.73C623.38,859.46,623.12,861.11,622,860.19Z" transform="translate(0.28 57.05)"/><path class="cls-8" d="M639.13,873.07c-18.51-17.74-26.07-46.07-18.87-70.67,5.56.84,10.71,5.15,14.59,9.21,5.95,6.23,11.66,13.14,13.86,21.47,3.27,12.35-1.73,25.23-6.65,37a7.88,7.88,0,0,1-2.32,3.57C638.57,874.52,640.17,874.06,639.13,873.07Z" transform="translate(0.28 57.05)"/><path class="cls-8" d="M561.22,792.33c-16.73-19.41-44.62-28.46-69.57-22.57.54,5.6,4.57,11,8.43,15.06,5.9,6.27,12.5,12.34,20.7,15,12.17,3.92,25.29-.4,37.33-4.69A7.86,7.86,0,0,0,561.8,793C562.7,791.85,562.16,793.42,561.22,792.33Z" transform="translate(0.28 57.05)"/><path class="cls-8" d="M573.4,808.46c-15.23-20.62-17.86-49.82-6.59-72.84,5.34,1.77,9.68,6.89,12.82,11.56,4.81,7.14,9.26,14.93,10,23.5,1.12,12.74-6,24.58-12.85,35.37a7.94,7.94,0,0,1-2.9,3.12C572.6,809.8,574.25,809.62,573.4,808.46Z" transform="translate(0.28 57.05)"/><path class="cls-8" d="M523.78,720.68c-7.63-24.48-29.61-43.88-54.84-48.41-1.73,5.36-.17,11.88,1.74,17.18,2.92,8.1,6.56,16.29,13,22,9.6,8.44,23.36,9.7,36.12,10.56a7.83,7.83,0,0,0,4.22-.49C525.33,720.82,524.21,722.05,523.78,720.68Z" transform="translate(0.28 57.05)"/><path class="cls-8" d="M527,730.51c-5.75-25,3.45-52.82,23-69.45,4.19,3.75,6.13,10.17,7.15,15.71,1.57,8.47,2.55,17.38-.17,25.55-4,12.12-15.29,20.15-25.87,27.32a7.82,7.82,0,0,1-3.9,1.71C525.7,731.41,527.28,731.91,527,730.51Z" transform="translate(0.28 57.05)"/><path class="cls-8" d="M513.8,687.65c-11.78-20.39-11.19-47.3,1.46-67.16,4.69,2.17,8.13,7.29,10.51,11.87,3.66,7,6.92,14.57,6.73,22.48-.29,11.73-8,21.81-15.36,30.95C516.31,686.82,514.46,688.79,513.8,687.65Z" transform="translate(0.28 57.05)"/><path class="cls-6" d="M695.46,913.29S539.75,828.23,515,685.71" transform="translate(0.28 57.05)"/><path class="cls-8" d="M1438.28,914.47c19.8-16.29,48.82-20.46,72.4-10.41-1.48,5.42-6.37,10-10.87,13.41-6.88,5.17-14.42,10-22.94,11.23-12.66,1.79-24.86-4.7-36-11a7.92,7.92,0,0,1-3.26-2.73C1436.91,913.74,1437.17,915.38,1438.28,914.47Z" transform="translate(0.28 57.05)"/><path class="cls-8" d="M1438,914.92c18.51-17.74,26.08-46.07,18.88-70.67-5.56.84-10.71,5.15-14.6,9.21-6,6.23-11.66,13.14-13.86,21.46-3.26,12.36,1.74,25.24,6.65,37a8,8,0,0,0,2.33,3.57C1438.56,916.37,1437,915.91,1438,914.92Z" transform="translate(0.28 57.05)"/><path class="cls-8" d="M1511.62,860.19c19.79-16.29,48.82-20.46,72.4-10.41-1.49,5.43-6.37,10-10.87,13.41-6.88,5.17-14.42,10-23,11.23-12.66,1.79-24.85-4.7-36-11a8,8,0,0,1-3.27-2.73C1510.25,859.46,1510.51,861.11,1511.62,860.19Z" transform="translate(0.28 57.05)"/><path class="cls-8" d="M1494.49,873.07c18.51-17.74,26.08-46.07,18.88-70.67-5.57.84-10.71,5.15-14.6,9.21-6,6.23-11.66,13.14-13.86,21.47-3.27,12.35,1.74,25.23,6.65,37a8,8,0,0,0,2.32,3.57C1495.05,874.52,1493.45,874.06,1494.49,873.07Z" transform="translate(0.28 57.05)"/><path class="cls-8" d="M1572.4,792.33c16.74-19.41,44.63-28.46,69.58-22.57-.55,5.6-4.58,11-8.43,15.06-5.91,6.27-12.51,12.34-20.71,15-12.17,3.92-25.29-.4-37.33-4.69a7.83,7.83,0,0,1-3.68-2.13C1570.93,791.85,1571.46,793.42,1572.4,792.33Z" transform="translate(0.28 57.05)"/><path class="cls-8" d="M1560.23,808.46c15.22-20.62,17.86-49.82,6.58-72.84-5.34,1.77-9.68,6.89-12.82,11.56-4.8,7.14-9.25,14.93-10,23.5-1.11,12.74,6,24.58,12.86,35.37a7.92,7.92,0,0,0,2.89,3.12C1561,809.8,1559.37,809.62,1560.23,808.46Z" transform="translate(0.28 57.05)"/><path class="cls-8" d="M1609.85,720.68c7.62-24.48,29.6-43.88,54.84-48.41,1.73,5.36.17,11.88-1.74,17.18-2.92,8.1-6.56,16.29-13,22-9.61,8.44-23.37,9.7-36.12,10.56a7.85,7.85,0,0,1-4.23-.49C1608.3,720.82,1609.42,722.05,1609.85,720.68Z" transform="translate(0.28 57.05)"/><path class="cls-8" d="M1606.66,730.51c5.76-25-3.44-52.82-23-69.45-4.2,3.75-6.14,10.17-7.16,15.71-1.56,8.47-2.55,17.38.18,25.55,4,12.12,15.28,20.15,25.86,27.32a7.82,7.82,0,0,0,3.9,1.71C1607.93,731.41,1606.34,731.91,1606.66,730.51Z" transform="translate(0.28 57.05)"/><path class="cls-8" d="M1619.82,687.65c11.78-20.39,11.2-47.3-1.46-67.16-4.69,2.17-8.12,7.29-10.51,11.87-3.65,7-6.92,14.57-6.72,22.48.28,11.73,8,21.81,15.35,30.95C1617.31,686.82,1619.16,688.79,1619.82,687.65Z" transform="translate(0.28 57.05)"/><path class="cls-6" d="M1438.16,913.29s155.71-85.06,180.43-227.58" transform="translate(0.28 57.05)"/><path class="cls-9" d="M1546.71,557.83c0-.18,0-.36,0-.53.1-1.12.17-2.24.19-3.36,0-.23,0-.46,0-.69s0-.44,0-.66c0-1.14-.09-2.27-.19-3.4,0-.17,0-.34,0-.51l-.12-.82c-.06-.45-.12-.91-.19-1.36v0c-.05-.38-.11-.77-.18-1.15-.11-.55-.2-1.1-.31-1.66a.12.12,0,0,1,0-.08c-.13-.56-.24-1.09-.38-1.62l-.13-.52-.12-.47c0-.22-.1-.44-.17-.66l-.46-1.66-.09-.31,0-.15c-.11-.36-.22-.73-.32-1.09s-.3-.9-.45-1.35-.31-.93-.47-1.39l-.65-1.89c-.36-1-.71-1.93-1.09-2.9-2.49-6.51-5.25-12.94-7-19.42-3.88-14.51-3.4-30.83-10.75-43.53-3.78-6.54-9.34-11.73-15.28-16.63h0c-1.17-1-2.35-1.92-3.54-2.87q-3-2.38-5.94-4.8c-2.66-2.18-5.24-4.41-7.62-6.78-5.17-5.17-9.67-11.3-14.45-17.1h0c-4.9-5.93-10.08-11.49-16.6-15.27a47.27,47.27,0,0,0-11-4.48c-10.4-2.94-21.93-3.45-32.52-6.28-6.47-1.72-12.89-4.5-19.43-7h0q-2.58-1-5.2-1.88a57.19,57.19,0,0,0-18.49-3.57c-7.78,0-15.25,2.28-22.55,5l-1.14.42h0c-6.51,2.48-12.94,5.26-19.41,7-14.52,3.89-30.86,3.41-43.57,10.76-6.5,3.78-11.69,9.33-16.59,15.27h0c-4.78,5.8-9.28,11.93-14.45,17.1s-11.3,9.67-17.1,14.45v0c-1.94,1.6-3.8,3.26-5.61,5l-1.48-1.83c-6.77-8.19-14-15.88-23-21.1-17.57-10.18-40.15-9.52-60.23-14.89-8.93-2.37-17.81-6.22-26.84-9.65-10.61-4.05-21.42-7.53-32.76-7.53s-22.15,3.48-32.75,7.53c-9,3.43-17.92,7.28-26.85,9.65-20.08,5.37-42.66,4.71-60.23,14.87-9,5.22-16.2,12.93-23,21.12l-1.94,2.4q-3-2.86-6.22-5.54h0c-1.2-1-2.41-2-3.62-2.93-1.93-1.54-3.85-3.08-5.75-4.64-2.69-2.21-5.32-4.47-7.73-6.88-5.17-5.17-9.67-11.3-14.45-17.1h0c-4.9-5.93-10.09-11.49-16.6-15.27a47.52,47.52,0,0,0-11-4.48c-10.4-2.94-21.93-3.45-32.51-6.28-6.47-1.72-12.9-4.5-19.43-7h0q-2.59-1-5.2-1.88a57.29,57.29,0,0,0-18.49-3.57c-7.79,0-15.26,2.28-22.56,5l-1.14.42h0c-6.52,2.48-12.95,5.26-19.42,7-14.51,3.89-30.86,3.41-43.56,10.76-6.51,3.78-11.7,9.33-16.6,15.27h0c-4.78,5.8-9.27,11.93-14.44,17.1s-11.31,9.67-17.11,14.45v0c-5.94,4.9-11.5,10.08-15.27,16.62-7.36,12.7-6.87,29-10.76,43.53-1.72,6.48-4.51,12.91-7,19.42h0c-.09.22-.17.44-.25.66-.28.74-.56,1.48-.83,2.23-.1.27-.2.56-.29.83-.34,1-.66,1.9-1,2.86-.11.32-.22.63-.31.94s-.16.51-.23.77-.14.45-.2.68a.42.42,0,0,0,0,.1c-.17.55-.33,1.11-.46,1.66,0,.14-.07.28-.11.42-.08.3-.15.61-.23.92,0,.1-.05.21-.08.31-.13.53-.24,1.06-.37,1.62a.09.09,0,0,1,0,.08l-.09.5s0,.08,0,.12c-.07.35-.14.69-.2,1s-.1.63-.14.94c-.09.59-.18,1.19-.25,1.79,0,.22-.07.43-.09.65s0,.27,0,.41c-.12,1.24-.2,2.49-.21,3.75,0,.14,0,.28,0,.41s0,.29,0,.43c0,1.25.09,2.49.21,3.72,0,.14,0,.29,0,.43s.06.43.09.65c.07.58.15,1.15.24,1.73,0,.21.05.42.09.62l.26,1.5c.07.33.16.69.22,1s.21.84.32,1.26.19.78.29,1.17l.12.51.33,1.19.15.48c.06.22.13.44.19.66s.21.71.33,1.07c.2.58.37,1.17.57,1.77l.4,1.12c0,.13.09.24.13.37.47,1.33,1,2.65,1.46,4h0c2.48,6.54,5.26,13,7,19.43,3.89,14.52,3.4,30.84,10.76,43.56,3.77,6.51,9.33,11.7,15.26,16.6v0h0c1.3,1.08,2.62,2.14,3.94,3.19A162.39,162.39,0,0,1,685.37,671a106,106,0,0,1,7.31,8.27c2.39,2.91,4.71,5.89,7.12,8.81,4.92,5.94,10.09,11.51,16.63,15.29,12.7,7.33,29.05,6.89,43.56,10.75,6.47,1.75,12.88,4.51,19.42,7l1.13.42c.73.27,1.47.55,2.21.81l1,.36.6.2c1.44.49,2.88,1,4.33,1.37l.15.05c.42.13.84.24,1.28.35l.29.07,1.24.32.12,0c.58.15,1.13.26,1.68.4l1.68.33c.35.06.7.09,1,.15.53.08,1.06.16,1.6.22l.78.11c.18,0,.36,0,.54,0,1.09.1,2.19.17,3.3.19.24,0,.49,0,.73,0s.49,0,.74,0c1.1,0,2.19-.09,3.28-.19.18,0,.37,0,.55,0l.8-.11c.52-.06,1-.14,1.55-.22l1.08-.15,1.67-.33c.56-.14,1.11-.25,1.68-.4l.17,0,1.14-.29.35-.09c.42-.11.86-.22,1.28-.35l.18-.06c1.49-.43,3-.91,4.45-1.42l.43-.14.68-.24q1.83-.66,3.66-1.35h0c6.56-2.47,13-5.23,19.43-7,7.32-2,15.1-2.8,22.65-4.11,3.09,17.05,4.13,34.89,12.49,49.34a57.69,57.69,0,0,0,4,6l-33.81,40.84-34.23,41.34,37,5,27.37,3.7,6.94,31.35,8,36.13L932.54,881l31.36-37.38a56.63,56.63,0,0,0,5.18,3.43c17.57,10.16,40.15,9.52,60.23,14.89,8.93,2.39,17.8,6.22,26.85,9.64,1.68.64,3.37,1.25,5.06,1.85l.92.34.4.13c2.1.72,4.2,1.4,6.32,2l.29.09c.59.18,1.17.34,1.76.49l.82.21.91.23.58.15c.79.2,1.56.36,2.32.52l.43.09.79.16,1.09.21c.38.07.77.11,1.15.17.85.14,1.7.26,2.55.37.35,0,.69.11,1,.15.6.07,1.21.11,1.81.16l.39,0c1.37.1,2.74.17,4.11.17s2.74-.07,4.11-.17l.39,0c.61-.05,1.21-.09,1.82-.16.35,0,.69-.11,1-.15.85-.11,1.7-.23,2.55-.37.38-.06.77-.1,1.15-.17l1.09-.21.79-.16.43-.09c.77-.16,1.54-.32,2.32-.52l.59-.15.9-.23c.27-.07.55-.13.82-.21.59-.15,1.18-.31,1.77-.49l.28-.09c2.12-.62,4.22-1.3,6.32-2l.4-.13.93-.34c1.69-.6,3.38-1.21,5.06-1.85,9-3.42,17.91-7.25,26.84-9.64,15.9-4.25,33.36-4.75,48.66-9.81L1221.39,881l35.84,42.69,8-36.13,6.94-31.35,27.37-3.7,37-5-34.23-41.34L1279.6,778.7c6.56-5.74,12.54-11.92,16.85-19.34,8.33-14.4,9.4-32.17,12.46-49.17,7.23,1.22,14.64,2.08,21.63,3.94,6.47,1.75,12.87,4.51,19.41,7l1.13.42c.74.27,1.47.55,2.21.81l1,.36.61.2c1.43.49,2.87,1,4.33,1.37l.14.05c.42.13.84.24,1.28.35l.29.07,1.25.32.12,0c.57.15,1.13.26,1.68.4l1.68.33c.34.06.7.09,1,.15.53.08,1.07.16,1.6.22l.78.11c.18,0,.36,0,.54,0,1.1.1,2.2.17,3.31.19.24,0,.48,0,.72,0s.5,0,.74,0c1.1,0,2.2-.09,3.29-.19.18,0,.36,0,.55,0l.79-.11c.52-.06,1-.14,1.56-.22.35-.05.72-.09,1.07-.15l1.68-.33c.55-.14,1.1-.25,1.68-.4l.17,0,1.13-.29.36-.09c.42-.11.86-.22,1.28-.35l.17-.06c1.49-.43,3-.91,4.45-1.42l.44-.14.67-.24q1.85-.66,3.66-1.35h0c6.56-2.47,13-5.23,19.43-7,14.52-3.86,30.84-3.42,43.56-10.75,6.52-3.78,11.73-9.35,16.62-15.29h0c.65-.79,1.29-1.59,1.93-2.39,2.81-3.48,5.57-7,8.47-10.33l.27-.32c1.22-1.39,2.47-2.74,3.76-4,4.82-4.81,10.48-9.06,15.91-13.5.39-.32.79-.63,1.18-1h0c5.94-4.89,11.49-10.1,15.29-16.62,7.35-12.72,6.87-29,10.75-43.56,1.73-6.47,4.49-12.89,7-19.43h0c.47-1.23.92-2.46,1.36-3.7.08-.21.16-.42.23-.64s.18-.52.27-.79.24-.7.35-1l.36-1c.14-.47.27-.92.41-1.38l0-.15c.06-.22.13-.45.2-.68l.33-1.19c0-.19.08-.36.13-.55.15-.56.28-1.12.41-1.68.05-.23.12-.47.17-.71s.15-.71.24-1c.09-.51.18-1,.27-1.5,0-.26.07-.53.11-.79.07-.46.13-.93.19-1.4C1546.63,558.37,1546.68,558.1,1546.71,557.83Z" transform="translate(0.28 57.05)"/><path class="cls-8" d="M1527.18,537.12a39.08,39.08,0,0,1-.27,4.58c-.11,1-.24,2-.42,3-.09.51-.17,1-.26,1.5-.09.33-.16.69-.25,1-.19,1-.44,2-.7,2.94l-.33,1.19c-.22.73-.45,1.46-.67,2.21l-.59,1.77c-.14.37-.25.75-.38,1.13q-.76,2.17-1.59,4.32c-2.49,6.54-5.26,13-7,19.44-3.89,14.52-3.4,30.84-10.76,43.56-3.8,6.52-9.34,11.73-15.28,16.62-5.79,4.79-11.93,9.3-17.1,14.46S1462,666.17,1457.15,672s-10.09,11.51-16.61,15.29c-12.72,7.33-29,6.89-43.56,10.75-6.47,1.75-12.88,4.51-19.44,7-.71.27-1.43.56-2.16.8s-1.42.53-2.17.79c-1.68.58-3.36,1.13-5.06,1.62-.42.13-.86.24-1.28.35s-1.1.31-1.65.42-1.13.27-1.68.4l-1.68.33c-1.13.2-2.28.35-3.43.49a40.29,40.29,0,0,1-9.14,0c-1.15-.14-2.3-.29-3.42-.49l-1.68-.33c-.56-.13-1.11-.24-1.68-.4s-1.11-.26-1.66-.42-.86-.22-1.28-.35c-1.7-.49-3.4-1-5.08-1.62l-2.17-.79c-.7-.24-1.43-.53-2.16-.8-6.54-2.47-13-5.23-19.42-7-14.51-3.86-30.86-3.42-43.56-10.75-6.54-3.78-11.71-9.35-16.63-15.29-2.41-2.92-4.73-5.9-7.11-8.81a106.1,106.1,0,0,0-7.32-8.27c-5.17-5.16-11.31-9.67-17.09-14.46-6-4.91-11.51-10.1-15.29-16.62-7.36-12.72-6.87-29-10.76-43.56-1.72-6.47-4.5-12.9-7-19.44q-.82-2.14-1.59-4.32l-.4-1.13c-.19-.6-.37-1.19-.57-1.77-.24-.75-.44-1.48-.66-2.21l-.33-1.19c-.27-1-.51-2-.73-2.94-.07-.35-.16-.71-.22-1-.09-.5-.18-1-.27-1.5-.18-1-.33-2-.42-3a40.38,40.38,0,0,1,0-9.15c.07-.75.18-1.48.31-2.23,0-.37.11-.77.18-1.15.09-.55.2-1.1.31-1.65a.16.16,0,0,0,0-.09c.13-.56.24-1.09.37-1.62s.27-1.1.42-1.65.29-1.11.47-1.66l.46-1.55c.18-.57.38-1.17.58-1.74.33-1,.66-1.94,1-2.89s.71-1.93,1.08-2.9c2.48-6.51,5.26-12.94,7-19.41,3.89-14.52,3.4-30.84,10.76-43.54,3.78-6.54,9.34-11.73,15.29-16.64,5.78-4.79,11.92-9.27,17.09-14.44s9.66-11.31,14.45-17.1c4.9-5.94,10.1-11.51,16.61-15.29,12.7-7.35,29-6.87,43.56-10.75,6.47-1.73,12.9-4.51,19.42-7,7.66-2.93,15.51-5.45,23.7-5.45s16,2.52,23.68,5.45c6.54,2.48,13,5.26,19.44,7,10.58,2.82,22.11,3.33,32.52,6.27a47.45,47.45,0,0,1,11,4.48c6.52,3.78,11.71,9.35,16.61,15.29,4.77,5.79,9.28,11.93,14.45,17.1s11.31,9.65,17.1,14.44c5.94,4.91,11.51,10.1,15.28,16.64,7.36,12.7,6.87,29,10.76,43.54,1.72,6.47,4.49,12.9,7,19.41.38,1,.73,1.92,1.08,2.9s.67,1.92,1,2.89c.2.57.37,1.17.57,1.74s.31,1,.47,1.55l.46,1.66q.23.83.42,1.65c.13.53.24,1.06.38,1.62a.16.16,0,0,0,0,.09c.11.55.2,1.1.31,1.65.06.38.13.78.17,1.15.14.75.22,1.48.31,2.23A39,39,0,0,1,1527.18,537.12Z" transform="translate(0.28 57.05)"/><path class="cls-7" d="M1353.86,699.57c-14.25,0-27.24-8.14-40.39-11.67-13.6-3.64-28.9-3.21-40.81-10.12-12.08-7-19.31-20.54-29.11-30.34s-23.35-17-30.35-29.11c-6.9-11.91-6.47-27.22-10.12-40.81-3.53-13.15-11.67-26.15-11.67-40.4s8.14-27.24,11.67-40.39c3.65-13.59,3.22-28.9,10.12-40.81,7-12.07,20.54-19.3,30.35-29.11s17-23.35,29.11-30.35c11.91-6.9,27.21-6.47,40.81-10.12,13.15-3.52,26.14-11.67,40.39-11.67s27.24,8.15,40.39,11.67c13.6,3.65,28.9,3.22,40.81,10.12,12.08,7,19.3,20.55,29.11,30.35s23.35,17,30.35,29.11c6.9,11.91,6.47,27.22,10.12,40.81,3.53,13.15,11.67,26.14,11.67,40.39s-8.14,27.25-11.67,40.4c-3.65,13.59-3.22,28.9-10.12,40.81-7,12.07-20.54,19.3-30.35,29.11s-17,23.35-29.11,30.34c-11.91,6.91-27.21,6.48-40.81,10.12C1381.1,691.43,1368.11,699.57,1353.86,699.57Z" transform="translate(0.28 57.05)"/><path class="cls-10" d="M1361.21,652.29c-9.59,0-18.33-5.48-27.18-7.85-9.15-2.45-19.45-2.17-27.47-6.81s-13-13.83-19.59-20.43-15.72-11.46-20.43-19.59-4.35-18.32-6.81-27.47c-2.37-8.85-7.85-17.59-7.85-27.18s5.48-18.34,7.85-27.19c2.46-9.15,2.17-19.45,6.81-27.47s13.83-13,20.43-19.59,11.46-15.72,19.59-20.42,18.32-4.36,27.47-6.82c8.85-2.37,17.59-7.85,27.18-7.85s18.34,5.48,27.19,7.86c9.15,2.45,19.45,2.16,27.47,6.81s13,13.82,19.59,20.42,15.72,11.47,20.43,19.59,4.35,18.32,6.81,27.47c2.37,8.85,7.85,17.6,7.85,27.19s-5.48,18.33-7.85,27.18c-2.46,9.15-2.17,19.45-6.82,27.47s-13.82,13-20.42,19.59-11.47,15.72-19.59,20.43-18.32,4.36-27.47,6.81C1379.55,646.81,1370.8,652.29,1361.21,652.29Z" transform="translate(0.28 57.05)"/><path class="cls-11" d="M1353.86,646.46c-9.59,0-18.34-5.48-27.19-7.85-9.15-2.46-19.45-2.17-27.47-6.82s-13-13.82-19.59-20.42-15.71-11.47-20.42-19.59-4.36-18.32-6.81-27.47c-2.38-8.85-7.86-17.6-7.86-27.19s5.48-18.33,7.86-27.18c2.45-9.15,2.16-19.45,6.81-27.47s13.82-13,20.42-19.59,11.47-15.72,19.6-20.43,18.31-4.35,27.46-6.81c8.85-2.37,17.6-7.85,27.19-7.85s18.33,5.48,27.19,7.85c9.15,2.46,19.45,2.17,27.46,6.81s13,13.83,19.59,20.43,15.72,11.46,20.43,19.59,4.36,18.32,6.81,27.47c2.37,8.85,7.86,17.59,7.86,27.18s-5.49,18.34-7.86,27.19c-2.45,9.15-2.16,19.45-6.81,27.47s-13.83,13-20.43,19.59-11.46,15.72-19.59,20.43-18.31,4.35-27.46,6.81C1372.19,641,1363.45,646.46,1353.86,646.46Z" transform="translate(0.28 57.05)"/><path class="cls-10" d="M1357.92,603.43c-5.53,0-10.57-3.15-15.67-4.52-5.28-1.42-11.21-1.25-15.83-3.93s-7.49-8-11.29-11.77-9.06-6.61-11.78-11.29-2.51-10.56-3.92-15.83c-1.37-5.1-4.53-10.14-4.53-15.67s3.16-10.57,4.53-15.67c1.41-5.27,1.25-11.21,3.93-15.83s8-7.48,11.77-11.29,6.6-9.06,11.29-11.77,10.55-2.51,15.83-3.93c5.1-1.36,10.14-4.52,15.67-4.52s10.56,3.16,15.67,4.52c5.27,1.42,11.21,1.25,15.83,3.93s7.48,8,11.29,11.77,9,6.61,11.77,11.29,2.51,10.56,3.92,15.83c1.37,5.1,4.53,10.14,4.53,15.67s-3.16,10.57-4.53,15.67c-1.41,5.27-1.24,11.21-3.92,15.83s-8,7.49-11.77,11.29-6.61,9.06-11.29,11.77-10.56,2.51-15.83,3.93C1368.48,600.28,1363.44,603.43,1357.92,603.43Z" transform="translate(0.28 57.05)"/><path class="cls-7" d="M1353.86,597c-5.25,0-10-3-14.88-4.3-5-1.34-10.65-1.19-15-3.73s-7.11-7.57-10.72-11.18-8.6-6.27-11.18-10.72-2.38-10-3.73-15c-1.29-4.84-4.29-9.63-4.29-14.88s3-10,4.29-14.88,1.19-10.64,3.73-15,7.57-7.11,11.18-10.72,6.28-8.61,10.73-11.18,10-2.39,15-3.73c4.84-1.3,9.63-4.3,14.88-4.3s10,3,14.88,4.3c5,1.34,10.65,1.18,15,3.73s7.11,7.56,10.73,11.18,8.6,6.27,11.18,10.72,2.38,10,3.72,15,4.3,9.63,4.3,14.88-3,10-4.3,14.88c-1.34,5-1.18,10.65-3.72,15s-7.57,7.11-11.18,10.72-6.28,8.6-10.73,11.18-10,2.39-15,3.73C1363.89,594,1359.11,597,1353.86,597Z" transform="translate(0.28 57.05)"/><path class="cls-10" d="M1377.55,369.26l-1.49,10.53-22.2,157.33-22.2-157.33-1.49-10.53c7.67-2.92,15.49-5.44,23.69-5.44S1369.88,366.34,1377.55,369.26Z" transform="translate(0.28 57.05)"/><path class="cls-10" d="M1353.86,537.12l-78.2-58.85-7.54-5.68-41.21-31-.45-.34-8-6.05.61-1.35c5.8-4.78,11.93-9.28,17.1-14.45s9.67-11.3,14.45-17.1l1.35-.61,6,8.05.35.45,31,41.21,5.81,7.72Z" transform="translate(0.28 57.05)"/><path class="cls-10" d="M1186,513.43l10.53,1.49,157.33,22.2-157.33,22.2L1186,560.81c-2.92-7.67-5.45-15.49-5.45-23.69S1183.08,521.1,1186,513.43Z" transform="translate(0.28 57.05)"/><path class="cls-10" d="M1353.86,537.12l-63.28,84.07-1.25,1.67-31,41.21-.35.46-6,8-1.36-.61h0c-4.79-5.79-9.28-11.92-14.44-17.08s-11.3-9.66-17.09-14.45h0l-.61-1.36,8-6,.46-.35,41.21-31,.81-.61Z" transform="translate(0.28 57.05)"/><path class="cls-10" d="M1330.17,705l1.49-10.53,22.2-157.33,22.2,157.33,1.49,10.53c-7.67,2.92-15.49,5.45-23.69,5.45S1337.84,707.9,1330.17,705Z" transform="translate(0.28 57.05)"/><path class="cls-10" d="M1489.3,639.06c-.2.45-.4.91-.61,1.36-5.79,4.79-11.93,9.29-17.09,14.45s-9.66,11.29-14.44,17.08l-1.36.62-6-8-.34-.46-25.24-33.54-5.78-7.67-64.53-85.74,85.74,64.53,7.54,5.68,33.67,25.34.46.35Z" transform="translate(0.28 57.05)"/><path class="cls-10" d="M1521.72,560.81l-10.53-1.49-157.33-22.2,157.33-22.2,10.53-1.49c2.92,7.67,5.44,15.49,5.44,23.69S1524.64,553.14,1521.72,560.81Z" transform="translate(0.28 57.05)"/><path class="cls-10" d="M1489.3,435.18l-8,6.05-.45.34-41.11,30.95-.1.07-85.74,64.53,64.53-85.74.68-.89,30.34-40.32.34-.46,6-8,1.35.61c4.78,5.8,9.28,11.93,14.45,17.1s11.3,9.67,17.1,14.45Z" transform="translate(0.28 57.05)"/><path class="cls-12" d="M1527.18,537.12a39.08,39.08,0,0,1-.27,4.58c-.11,1-.24,2-.42,3-.09.51-.17,1-.26,1.5-.09.33-.16.69-.25,1-.19,1-.44,2-.7,2.94l-.33,1.19c-.22.73-.45,1.46-.67,2.21l-.59,1.77c-.14.37-.25.75-.38,1.13q-.76,2.17-1.59,4.32c-2.49,6.54-5.26,13-7,19.44-3.89,14.52-3.4,30.84-10.76,43.56-3.8,6.52-9.34,11.73-15.28,16.62-5.79,4.79-11.93,9.3-17.1,14.46S1462,666.17,1457.15,672s-10.09,11.51-16.61,15.29c-12.72,7.33-29,6.89-43.56,10.75-6.47,1.75-12.88,4.51-19.44,7-.71.27-1.43.56-2.16.8s-1.42.53-2.17.79c-1.68.58-3.36,1.13-5.06,1.62-.42.13-.86.24-1.28.35s-1.1.31-1.65.42-1.13.27-1.68.4l-1.68.33c-1.13.2-2.28.35-3.43.49a40.29,40.29,0,0,1-9.14,0c-1.15-.14-2.3-.29-3.42-.49l-1.68-.33c-.56-.13-1.11-.24-1.68-.4s-1.11-.26-1.66-.42-.86-.22-1.28-.35c-1.7-.49-3.4-1-5.08-1.62l-2.17-.79c-.7-.24-1.43-.53-2.16-.8-6.54-2.47-13-5.23-19.42-7-14.51-3.86-30.86-3.42-43.56-10.75-6.54-3.78-11.71-9.35-16.63-15.29-2.41-2.92-4.73-5.9-7.11-8.81a106.1,106.1,0,0,0-7.32-8.27c-5.17-5.16-11.31-9.67-17.09-14.46-6-4.91-11.51-10.1-15.29-16.62-7.36-12.72-6.87-29-10.76-43.56-1.72-6.47-4.5-12.9-7-19.44q-.82-2.14-1.59-4.32l-.4-1.13c-.19-.6-.37-1.19-.57-1.77-.24-.75-.44-1.48-.66-2.21l-.33-1.19c-.27-1-.51-2-.73-2.94-.07-.35-.16-.71-.22-1-.09-.5-.18-1-.27-1.5-.18-1-.33-2-.42-3a40.38,40.38,0,0,1,0-9.15c.07-.75.18-1.48.31-2.23,0-.37.11-.77.18-1.15.09-.55.2-1.1.31-1.65a.16.16,0,0,0,0-.09c.13-.56.24-1.09.37-1.62s.27-1.1.42-1.65.29-1.11.47-1.66l.46-1.55c.18-.57.38-1.17.58-1.74.33-1,.66-1.94,1-2.89s.71-1.93,1.08-2.9c2.48-6.51,5.26-12.94,7-19.41,3.89-14.52,3.4-30.84,10.76-43.54,3.78-6.54,9.34-11.73,15.29-16.64,5.78-4.79,11.92-9.27,17.09-14.44s9.66-11.31,14.45-17.1c4.9-5.94,10.1-11.51,16.61-15.29,12.7-7.35,29-6.87,43.56-10.75,6.47-1.73,12.9-4.51,19.42-7,7.66-2.93,15.51-5.45,23.7-5.45s16,2.52,23.68,5.45c6.54,2.48,13,5.26,19.44,7,10.58,2.82,22.11,3.33,32.52,6.27a47.45,47.45,0,0,1,11,4.48c6.52,3.78,11.71,9.35,16.61,15.29,4.77,5.79,9.28,11.93,14.45,17.1s11.31,9.65,17.1,14.44c5.94,4.91,11.51,10.1,15.28,16.64,7.36,12.7,6.87,29,10.76,43.54,1.72,6.47,4.49,12.9,7,19.41.38,1,.73,1.92,1.08,2.9s.67,1.92,1,2.89c.2.57.37,1.17.57,1.74s.31,1,.47,1.55l.46,1.66q.23.83.42,1.65c.13.53.24,1.06.38,1.62a.16.16,0,0,0,0,.09c.11.55.2,1.1.31,1.65.06.38.13.78.17,1.15.14.75.22,1.48.31,2.23A39,39,0,0,1,1527.18,537.12Z" transform="translate(0.28 57.05)"/><path class="cls-8" d="M956.63,537.12a41.36,41.36,0,0,1-.26,4.58q-.17,1.51-.42,3l-.27,1.5c-.09.33-.15.69-.24,1-.2,1-.44,2-.71,2.94l-.33,1.19c-.22.73-.44,1.46-.66,2.21q-.3.87-.6,1.77c-.13.37-.24.75-.37,1.13q-.76,2.17-1.59,4.32c-2.5,6.54-5.26,13-7,19.44-3.89,14.52-3.41,30.84-10.76,43.56-3.8,6.52-9.35,11.73-15.29,16.62-5.79,4.79-11.93,9.3-17.1,14.46S891.4,666.17,886.61,672s-10.1,11.51-16.61,15.29c-12.73,7.33-29,6.89-43.57,10.75-6.47,1.75-12.87,4.51-19.43,7-.71.27-1.44.56-2.17.8s-1.41.53-2.16.79c-1.68.58-3.36,1.13-5.06,1.62-.42.13-.86.24-1.28.35s-1.11.31-1.66.42-1.13.27-1.68.4l-1.68.33c-1.12.2-2.27.35-3.42.49a40.38,40.38,0,0,1-9.15,0c-1.15-.14-2.29-.29-3.42-.49l-1.68-.33c-.55-.13-1.1-.24-1.68-.4s-1.1-.26-1.66-.42-.86-.22-1.28-.35c-1.7-.49-3.4-1-5.08-1.62l-2.16-.79c-.71-.24-1.44-.53-2.17-.8-6.53-2.47-12.94-5.23-19.41-7-14.52-3.86-30.86-3.42-43.56-10.75C690.1,683.47,684.93,677.9,680,672c-2.41-2.92-4.72-5.9-7.11-8.81a106,106,0,0,0-7.31-8.27c-5.17-5.16-11.31-9.67-17.1-14.46-5.94-4.91-11.51-10.1-15.29-16.62-7.35-12.72-6.87-29-10.75-43.56-1.73-6.47-4.51-12.9-7-19.44q-.84-2.14-1.59-4.32l-.4-1.13c-.2-.6-.38-1.19-.58-1.77-.24-.75-.44-1.48-.66-2.21l-.33-1.19c-.27-1-.51-2-.73-2.94-.07-.35-.15-.71-.22-1l-.27-1.5c-.17-1-.33-2-.41-3a38.9,38.9,0,0,1,0-9.15c.06-.75.17-1.48.3-2.23,0-.37.11-.77.18-1.15.09-.55.2-1.1.31-1.65a.16.16,0,0,0,0-.09c.14-.56.25-1.09.38-1.62s.26-1.1.42-1.65.28-1.11.46-1.66.31-1,.47-1.55.37-1.17.57-1.74c.33-1,.66-1.94,1-2.89s.71-1.93,1.09-2.9c2.47-6.51,5.25-12.94,7-19.41,3.88-14.52,3.4-30.84,10.75-43.54,3.78-6.54,9.35-11.73,15.29-16.64,5.79-4.79,11.93-9.27,17.1-14.44s9.65-11.31,14.44-17.1c4.91-5.94,10.1-11.51,16.62-15.29,12.7-7.35,29-6.87,43.56-10.75,6.47-1.73,12.9-4.51,19.41-7,7.67-2.93,15.51-5.45,23.71-5.45s16,2.52,23.68,5.45c6.53,2.48,13,5.26,19.43,7,10.59,2.82,22.12,3.33,32.52,6.27A47.52,47.52,0,0,1,870,387c6.51,3.78,11.7,9.35,16.61,15.29,4.77,5.79,9.28,11.93,14.44,17.1s11.31,9.65,17.1,14.44c5.94,4.91,11.51,10.1,15.29,16.64,7.35,12.7,6.87,29,10.76,43.54,1.72,6.47,4.48,12.9,7,19.41.37,1,.72,1.92,1.08,2.9s.66,1.92,1,2.89c.2.57.38,1.17.58,1.74l.46,1.55.46,1.66c.16.55.29,1.1.42,1.65s.25,1.06.38,1.62a.16.16,0,0,0,0,.09c.11.55.2,1.1.31,1.65.07.38.13.78.18,1.15.13.75.22,1.48.31,2.23A41.32,41.32,0,0,1,956.63,537.12Z" transform="translate(0.28 57.05)"/><path class="cls-7" d="M783.31,699.57c-14.25,0-27.24-8.14-40.39-11.67-13.59-3.64-28.9-3.21-40.81-10.12-12.08-7-19.3-20.54-29.11-30.34s-23.35-17-30.35-29.11c-6.9-11.91-6.47-27.22-10.12-40.81-3.52-13.15-11.67-26.15-11.67-40.4s8.15-27.24,11.67-40.39c3.65-13.59,3.22-28.9,10.12-40.81,7-12.07,20.55-19.3,30.35-29.11s17-23.35,29.11-30.35c11.91-6.9,27.22-6.47,40.81-10.12,13.15-3.52,26.14-11.67,40.39-11.67s27.25,8.15,40.4,11.67c13.59,3.65,28.9,3.22,40.81,10.12,12.07,7,19.3,20.55,29.11,30.35s23.35,17,30.34,29.11c6.91,11.91,6.48,27.22,10.12,40.81,3.53,13.15,11.67,26.14,11.67,40.39s-8.14,27.25-11.67,40.4c-3.64,13.59-3.21,28.9-10.12,40.81-7,12.07-20.54,19.3-30.35,29.11s-17,23.35-29.1,30.34c-11.91,6.91-27.22,6.48-40.81,10.12C810.56,691.43,797.56,699.57,783.31,699.57Z" transform="translate(0.28 57.05)"/><path class="cls-10" d="M790.67,652.29c-9.59,0-18.34-5.48-27.19-7.85C754.33,642,744,642.27,736,637.63s-13-13.83-19.59-20.43S700.71,605.74,696,597.61s-4.36-18.32-6.81-27.47c-2.38-8.85-7.86-17.59-7.86-27.18s5.48-18.34,7.86-27.19c2.45-9.15,2.16-19.45,6.81-27.47s13.82-13,20.42-19.59S727.89,453,736,448.29s18.32-4.36,27.47-6.82c8.85-2.37,17.6-7.85,27.19-7.85s18.33,5.48,27.19,7.86c9.14,2.45,19.45,2.16,27.46,6.81s13,13.82,19.59,20.42,15.72,11.47,20.43,19.59,4.36,18.32,6.81,27.47c2.37,8.85,7.85,17.6,7.85,27.19s-5.48,18.33-7.85,27.18c-2.45,9.15-2.17,19.45-6.81,27.47s-13.83,13-20.43,19.59-11.46,15.72-19.59,20.43S827,642,817.85,644.44C809,646.81,800.26,652.29,790.67,652.29Z" transform="translate(0.28 57.05)"/><path class="cls-11" d="M783.31,646.46c-9.59,0-18.33-5.48-27.18-7.85-9.15-2.46-19.45-2.17-27.47-6.82s-13-13.82-19.59-20.42-15.72-11.47-20.43-19.59-4.36-18.32-6.81-27.47c-2.37-8.85-7.85-17.6-7.85-27.19s5.48-18.33,7.85-27.18c2.46-9.15,2.17-19.45,6.81-27.47s13.83-13,20.43-19.59,11.46-15.72,19.59-20.43,18.32-4.35,27.47-6.81c8.85-2.37,17.59-7.85,27.18-7.85s18.34,5.48,27.19,7.85c9.15,2.46,19.45,2.17,27.47,6.81s13,13.83,19.59,20.43,15.72,11.46,20.43,19.59,4.35,18.32,6.81,27.47c2.37,8.85,7.85,17.59,7.85,27.18s-5.48,18.34-7.85,27.19c-2.46,9.15-2.17,19.45-6.82,27.47s-13.82,13-20.42,19.59S846.09,627.09,838,631.8s-18.32,4.35-27.47,6.81C801.65,641,792.9,646.46,783.31,646.46Z" transform="translate(0.28 57.05)"/><path class="cls-10" d="M787.37,603.43c-5.53,0-10.57-3.15-15.67-4.52-5.27-1.42-11.21-1.25-15.83-3.93s-7.49-8-11.29-11.77-9.06-6.61-11.77-11.29-2.51-10.56-3.93-15.83c-1.36-5.1-4.52-10.14-4.52-15.67s3.16-10.57,4.52-15.67c1.42-5.27,1.25-11.21,3.93-15.83s8-7.48,11.77-11.29,6.61-9.06,11.29-11.77,10.56-2.51,15.83-3.93c5.1-1.36,10.14-4.52,15.67-4.52s10.57,3.16,15.67,4.52c5.27,1.42,11.21,1.25,15.83,3.93s7.49,8,11.29,11.77,9.06,6.61,11.77,11.29,2.51,10.56,3.93,15.83c1.37,5.1,4.52,10.14,4.52,15.67s-3.15,10.57-4.52,15.67c-1.42,5.27-1.25,11.21-3.93,15.83s-8,7.49-11.77,11.29-6.61,9.06-11.29,11.77-10.56,2.51-15.83,3.93C797.94,600.28,792.9,603.43,787.37,603.43Z" transform="translate(0.28 57.05)"/><path class="cls-7" d="M783.31,597c-5.25,0-10-3-14.88-4.3-5-1.34-10.64-1.19-15-3.73s-7.11-7.57-10.72-11.18-8.61-6.27-11.18-10.72-2.39-10-3.73-15c-1.3-4.84-4.3-9.63-4.3-14.88s3-10,4.3-14.88,1.18-10.64,3.73-15,7.56-7.11,11.18-10.72,6.27-8.61,10.72-11.18,10-2.39,15-3.73c4.85-1.3,9.63-4.3,14.88-4.3s10,3,14.88,4.3c5,1.34,10.65,1.18,15,3.73s7.11,7.56,10.72,11.18,8.6,6.27,11.18,10.72,2.39,10,3.73,15,4.3,9.63,4.3,14.88-3,10-4.3,14.88c-1.34,5-1.19,10.65-3.73,15s-7.57,7.11-11.18,10.72-6.27,8.6-10.72,11.18-10,2.39-15,3.73C793.35,594,788.56,597,783.31,597Z" transform="translate(0.28 57.05)"/><path class="cls-10" d="M807,369.26l-1.49,10.53L783.31,537.12l-22.2-157.33-1.49-10.53c7.67-2.92,15.49-5.44,23.69-5.44S799.34,366.34,807,369.26Z" transform="translate(0.28 57.05)"/><path class="cls-10" d="M783.31,537.12l-78.2-58.85-7.54-5.68-41.21-31-.45-.34-8-6.05.6-1.35c5.8-4.78,11.93-9.28,17.1-14.45s9.67-11.3,14.45-17.1l1.35-.61,6,8.05.34.45,31,41.21,5.81,7.72Z" transform="translate(0.28 57.05)"/><path class="cls-10" d="M615.45,513.43,626,514.92l157.32,22.2L626,559.32l-10.54,1.49c-2.92-7.67-5.44-15.49-5.44-23.69S612.53,521.1,615.45,513.43Z" transform="translate(0.28 57.05)"/><path class="cls-10" d="M783.31,537.12,720,621.19l-1.25,1.67-31,41.21-.34.46-6,8L680,672h0c-4.78-5.79-9.28-11.92-14.44-17.08s-11.3-9.66-17.09-14.45h0l-.6-1.36,8-6,.46-.35,41.21-31,.82-.61Z" transform="translate(0.28 57.05)"/><path class="cls-10" d="M759.62,705l1.49-10.53,22.2-157.33,22.21,157.33L807,705c-7.67,2.92-15.5,5.45-23.7,5.45S767.29,707.9,759.62,705Z" transform="translate(0.28 57.05)"/><path class="cls-10" d="M918.76,639.06c-.2.45-.4.91-.62,1.36-5.78,4.79-11.93,9.29-17.09,14.45S891.4,666.16,886.62,672l-1.36.62-6-8-.35-.46-25.24-33.54-5.77-7.67-64.54-85.74,85.74,64.53,7.54,5.68,33.67,25.34.46.35Z" transform="translate(0.28 57.05)"/><path class="cls-10" d="M951.17,560.81l-10.53-1.49-157.33-22.2,157.33-22.2,10.53-1.49c2.93,7.67,5.45,15.49,5.45,23.69S954.1,553.14,951.17,560.81Z" transform="translate(0.28 57.05)"/><path class="cls-10" d="M918.76,435.18l-8,6.05-.45.34-41.11,30.95-.1.07-85.74,64.53,64.54-85.74.67-.89,30.34-40.32.35-.46,6-8,1.34.61c4.79,5.8,9.28,11.93,14.45,17.1s11.31,9.67,17.11,14.45Z" transform="translate(0.28 57.05)"/><path class="cls-12" d="M956.63,537.12a41.36,41.36,0,0,1-.26,4.58q-.17,1.51-.42,3l-.27,1.5c-.09.33-.15.69-.24,1-.2,1-.44,2-.71,2.94l-.33,1.19c-.22.73-.44,1.46-.66,2.21q-.3.87-.6,1.77c-.13.37-.24.75-.37,1.13q-.76,2.17-1.59,4.32c-2.5,6.54-5.26,13-7,19.44-3.89,14.52-3.41,30.84-10.76,43.56-3.8,6.52-9.35,11.73-15.29,16.62-5.79,4.79-11.93,9.3-17.1,14.46S891.4,666.17,886.61,672s-10.1,11.51-16.61,15.29c-12.73,7.33-29,6.89-43.57,10.75-6.47,1.75-12.87,4.51-19.43,7-.71.27-1.44.56-2.17.8s-1.41.53-2.16.79c-1.68.58-3.36,1.13-5.06,1.62-.42.13-.86.24-1.28.35s-1.11.31-1.66.42-1.13.27-1.68.4l-1.68.33c-1.12.2-2.27.35-3.42.49a40.38,40.38,0,0,1-9.15,0c-1.15-.14-2.29-.29-3.42-.49l-1.68-.33c-.55-.13-1.1-.24-1.68-.4s-1.1-.26-1.66-.42-.86-.22-1.28-.35c-1.7-.49-3.4-1-5.08-1.62l-2.16-.79c-.71-.24-1.44-.53-2.17-.8-6.53-2.47-12.94-5.23-19.41-7-14.52-3.86-30.86-3.42-43.56-10.75C690.1,683.47,684.93,677.9,680,672c-2.41-2.92-4.72-5.9-7.11-8.81a106,106,0,0,0-7.31-8.27c-5.17-5.16-11.31-9.67-17.1-14.46-5.94-4.91-11.51-10.1-15.29-16.62-7.35-12.72-6.87-29-10.75-43.56-1.73-6.47-4.51-12.9-7-19.44q-.84-2.14-1.59-4.32l-.4-1.13c-.2-.6-.38-1.19-.58-1.77-.24-.75-.44-1.48-.66-2.21l-.33-1.19c-.27-1-.51-2-.73-2.94-.07-.35-.15-.71-.22-1l-.27-1.5c-.17-1-.33-2-.41-3a38.9,38.9,0,0,1,0-9.15c.06-.75.17-1.48.3-2.23,0-.37.11-.77.18-1.15.09-.55.2-1.1.31-1.65a.16.16,0,0,0,0-.09c.14-.56.25-1.09.38-1.62s.26-1.1.42-1.65.28-1.11.46-1.66.31-1,.47-1.55.37-1.17.57-1.74c.33-1,.66-1.94,1-2.89s.71-1.93,1.09-2.9c2.47-6.51,5.25-12.94,7-19.41,3.88-14.52,3.4-30.84,10.75-43.54,3.78-6.54,9.35-11.73,15.29-16.64,5.79-4.79,11.93-9.27,17.1-14.44s9.65-11.31,14.44-17.1c4.91-5.94,10.1-11.51,16.62-15.29,12.7-7.35,29-6.87,43.56-10.75,6.47-1.73,12.9-4.51,19.41-7,7.67-2.93,15.51-5.45,23.71-5.45s16,2.52,23.68,5.45c6.53,2.48,13,5.26,19.43,7,10.59,2.82,22.12,3.33,32.52,6.27A47.52,47.52,0,0,1,870,387c6.51,3.78,11.7,9.35,16.61,15.29,4.77,5.79,9.28,11.93,14.44,17.1s11.31,9.65,17.1,14.44c5.94,4.91,11.51,10.1,15.29,16.64,7.35,12.7,6.87,29,10.76,43.54,1.72,6.47,4.48,12.9,7,19.41.37,1,.72,1.92,1.08,2.9s.66,1.92,1,2.89c.2.57.38,1.17.58,1.74l.46,1.55.46,1.66c.16.55.29,1.1.42,1.65s.25,1.06.38,1.62a.16.16,0,0,0,0,.09c.11.55.2,1.1.31,1.65.07.38.13.78.18,1.15.13.75.22,1.48.31,2.23A41.32,41.32,0,0,1,956.63,537.12Z" transform="translate(0.28 57.05)"/><polygon class="cls-13" points="1317.06 888.43 1280.06 893.45 1252.69 897.15 1245.74 928.5 1237.71 964.63 1201.88 921.94 1157.26 868.75 1148.45 858.25 1157.02 850.9 1168.5 841.05 1210.62 804.92 1232.44 786.21 1282.83 847.09 1317.06 888.43"/><path class="cls-8" d="M1279.78,836.4l-27.37,3.71-7,31.34-21.68-24.55L1168.23,784l42.11-36.14c15.22,19.24,33.64,42.58,48.91,62.06C1267.28,820.21,1274.44,829.42,1279.78,836.4Z" transform="translate(0.28 57.05)"/><path class="cls-10" d="M1282.55,790.05c-4.26,6.93-11.69,11.55-18.45,16.32-1.64,1.15-3.26,2.33-4.85,3.56a162.19,162.19,0,0,0-30.65,30.73c-1.52,2-3.12,4.12-4.82,6.24-6,7.48-13.19,15-22.18,18L1157,811.71a38.18,38.18,0,0,1-1-6.1,52.3,52.3,0,0,1,.73-11.76l11.49-9.84,42.11-36.14,21.82-18.71Z" transform="translate(0.28 57.05)"/><polygon class="cls-13" points="797.84 888.43 834.84 893.45 862.21 897.15 869.16 928.5 877.19 964.63 913.02 921.94 957.63 868.75 966.45 858.25 957.88 850.9 946.39 841.05 904.28 804.92 882.46 786.21 832.07 847.09 797.84 888.43"/><path class="cls-8" d="M834.56,836.4l27.37,3.71,7,31.34,21.68-24.55L946.12,784,904,747.87c-15.22,19.24-33.64,42.58-48.91,62.06C847.06,820.21,839.9,829.42,834.56,836.4Z" transform="translate(0.28 57.05)"/><path class="cls-10" d="M831.79,790.05c4.26,6.93,11.69,11.55,18.45,16.32,1.64,1.15,3.26,2.33,4.85,3.56a162.19,162.19,0,0,1,30.65,30.73c1.52,2,3.12,4.12,4.82,6.24,6,7.48,13.19,15,22.18,18l44.62-53.18a39.32,39.32,0,0,0,1-6.1,52.3,52.3,0,0,0-.73-11.76L946.12,784,904,747.87l-21.82-18.71Z" transform="translate(0.28 57.05)"/><path class="cls-8" d="M1308.73,623.4a55.66,55.66,0,0,1-.36,6.32c-.15,1.4-.35,2.79-.59,4.17-.12.69-.25,1.37-.38,2.06-.1.48-.2,1-.31,1.44-.29,1.36-.62,2.7-1,4.06-.15.55-.29,1.09-.46,1.65-.29,1-.59,2-.91,3-.26.82-.53,1.64-.8,2.46l-.54,1.57c-.71,2-1.44,4-2.2,6-3.43,9-7.28,17.91-9.65,26.85-5.37,20.07-4.71,42.65-14.87,60.22-5.24,9-12.93,16.21-21.14,23-8,6.61-16.49,12.84-23.63,20s-13.35,15.61-20,23.61c-6.77,8.22-14,15.92-23,21.14-17.58,10.16-40.15,9.52-60.23,14.89-8.93,2.39-17.8,6.22-26.85,9.64-1,.37-2,.75-3,1.11l-3,1.08c-2.32.82-4.66,1.57-7,2.24-.59.18-1.18.34-1.76.49-.77.21-1.54.41-2.31.59s-1.56.36-2.33.52-1.53.32-2.3.46c-1.57.28-3.14.51-4.75.69a55.57,55.57,0,0,1-12.63,0c-1.6-.18-3.17-.41-4.74-.69-.77-.14-1.54-.29-2.31-.46s-1.54-.32-2.32-.52-1.54-.38-2.31-.59c-.59-.15-1.18-.31-1.77-.49-2.34-.67-4.68-1.42-7-2.24l-3-1.08-3-1.11c-9-3.42-17.91-7.25-26.85-9.64-20.07-5.37-42.65-4.73-60.22-14.89-9-5.22-16.2-12.91-23-21.12v0c-6.61-8-12.82-16.47-20-23.61s-15.62-13.36-23.62-20h0c-8.21-6.79-15.89-14-21.12-23-10.16-17.57-9.51-40.15-14.87-60.22-2.38-8.94-6.22-17.82-9.66-26.85-.75-2-1.49-4-2.19-6l-.54-1.57c-.28-.82-.54-1.64-.8-2.46-.33-1-.62-2-.92-3-.16-.56-.31-1.1-.46-1.65-.37-1.36-.7-2.7-1-4.06-.12-.47-.22-1-.31-1.44-.14-.69-.27-1.37-.38-2.06-.25-1.38-.44-2.77-.59-4.17a55.57,55.57,0,0,1,0-12.63c.11-1.05.25-2.07.43-3.1.06-.52.16-1.06.26-1.58.13-.77.28-1.52.42-2.28a.43.43,0,0,0,0-.14c.16-.74.32-1.48.5-2.21s.38-1.54.59-2.31.41-1.52.64-2.27.43-1.44.64-2.15l.78-2.4c.46-1.34.92-2.69,1.39-4s1-2.67,1.49-4c3.44-9,7.28-17.92,9.66-26.85,5.36-20.06,4.71-42.64,14.87-60.21,5.22-9,12.92-16.21,21.12-23,8-6.61,16.49-12.82,23.64-20s13.37-15.63,20-23.65c6.77-8.19,13.95-15.9,23-21.12,17.57-10.16,40.15-9.5,60.22-14.87,8.94-2.37,17.82-6.22,26.85-9.65,10.61-4,21.42-7.53,32.76-7.53s22.15,3.48,32.75,7.53c9,3.43,17.92,7.28,26.85,9.65,20.08,5.37,42.65,4.71,60.23,14.89,9,5.22,16.19,12.91,23,21.1,6.61,8,12.82,16.5,20,23.65s15.63,13.36,23.65,20c8.19,6.78,15.9,14,21.12,23,10.16,17.57,9.5,40.15,14.87,60.21,2.37,8.93,6.22,17.82,9.65,26.85.51,1.32,1,2.65,1.49,4s.94,2.67,1.39,4l.79,2.4c.21.71.42,1.43.64,2.15s.44,1.52.63,2.27.41,1.54.59,2.31.35,1.47.51,2.21a.89.89,0,0,0,0,.14c.15.76.3,1.51.43,2.28.1.52.19,1.06.26,1.58.18,1,.31,2,.43,3.1A55.35,55.35,0,0,1,1308.73,623.4Z" transform="translate(0.28 57.05)"/><path class="cls-7" d="M1069.12,848c-19.7,0-37.66-11.26-55.85-16.13-18.79-5-39.95-4.45-56.42-14-16.69-9.68-26.68-28.4-40.24-42s-32.28-23.55-42-40.24c-9.55-16.47-8.95-37.63-14-56.42-4.88-18.18-16.14-36.14-16.14-55.84s11.26-37.67,16.14-55.85c5-18.79,4.44-39.95,14-56.42,9.67-16.69,28.4-26.68,42-40.24s23.55-32.28,40.25-42c16.46-9.54,37.62-8.95,56.41-14,18.19-4.87,36.15-16.13,55.85-16.13S1106.78,410.08,1125,415c18.8,5,40,4.45,56.42,14,16.69,9.68,26.69,28.4,40.24,42s32.29,23.55,42,40.24c9.54,16.47,9,37.63,14,56.42,4.88,18.18,16.13,36.15,16.13,55.85s-11.25,37.66-16.13,55.84c-5,18.79-4.45,40-14,56.42-9.67,16.69-28.4,26.68-42,40.24s-23.55,32.28-40.24,42c-16.47,9.54-37.62,9-56.42,14C1106.78,836.73,1088.82,848,1069.12,848Z" transform="translate(0.28 57.05)"/><path class="cls-10" d="M1079.29,782.63c-13.26,0-25.35-7.58-37.59-10.86-12.65-3.39-26.89-3-38-9.42-11.24-6.51-18-19.11-27.09-28.24S954.91,718.26,948.4,707c-6.42-11.08-6-25.33-9.41-38-3.28-12.24-10.86-24.33-10.86-37.59s7.58-25.35,10.86-37.59c3.39-12.65,3-26.89,9.41-38s19.12-18,28.24-27.08,15.85-21.73,27.09-28.24c11.08-6.42,25.32-6,38-9.42,12.24-3.28,24.33-10.86,37.59-10.86s25.34,7.58,37.58,10.86c12.65,3.39,26.89,3,38,9.42,11.24,6.51,18,19.11,27.09,28.24s21.73,15.85,28.24,27.08,6,25.32,9.41,38c3.28,12.24,10.86,24.33,10.86,37.59s-7.58,25.35-10.86,37.59c-3.39,12.65-3,26.89-9.41,38-6.51,11.23-19.12,18-28.24,27.08s-15.85,21.73-27.09,28.24c-11.08,6.42-25.32,6-38,9.42C1104.63,775.05,1092.54,782.63,1079.29,782.63Z" transform="translate(0.28 57.05)"/><path class="cls-11" d="M1069.12,774.56c-13.26,0-25.35-7.57-37.59-10.86-12.65-3.39-26.89-3-38-9.41-11.24-6.51-18-19.12-27.09-28.24S944.75,710.2,938.24,699c-6.43-11.08-6-25.32-9.42-38C925.54,648.75,918,636.66,918,623.41s7.58-25.35,10.86-37.59c3.39-12.65,3-26.89,9.42-38,6.51-11.24,19.11-18,28.24-27.09s15.84-21.73,27.08-28.24c11.08-6.42,25.32-6,38-9.41,12.24-3.28,24.33-10.86,37.59-10.86s25.35,7.58,37.58,10.86c12.65,3.39,26.89,3,38,9.41s18,19.12,27.08,28.24,21.73,15.85,28.24,27.09c6.42,11.08,6,25.32,9.42,38,3.28,12.24,10.85,24.33,10.85,37.59s-7.57,25.34-10.85,37.58c-3.4,12.65-3,26.89-9.42,38s-19.12,17.95-28.24,27.08-15.85,21.73-27.08,28.24-25.33,6-38,9.41C1094.47,767,1082.38,774.56,1069.12,774.56Z" transform="translate(0.28 57.05)"/><path class="cls-10" d="M1074.73,715.08c-7.64,0-14.61-4.37-21.66-6.26-7.29-2-15.5-1.72-21.89-5.43s-10.35-11-15.61-16.27-12.52-9.13-16.27-15.61-3.48-14.59-5.43-21.88c-1.89-7.06-6.26-14-6.26-21.67s4.37-14.61,6.26-21.66c2-7.29,1.73-15.5,5.43-21.88s11-10.35,16.27-15.61,9.14-12.53,15.61-16.28,14.6-3.47,21.89-5.42c7-1.89,14-6.26,21.66-6.26s14.61,4.37,21.66,6.26c7.29,1.95,15.5,1.72,21.88,5.42s10.36,11,15.61,16.28,12.53,9.13,16.28,15.61,3.47,14.59,5.43,21.88c1.89,7.05,6.25,14,6.25,21.66s-4.36,14.61-6.25,21.67c-2,7.29-1.73,15.49-5.43,21.88s-11,10.35-16.28,15.61-9.13,12.52-15.61,16.28-14.59,3.47-21.88,5.42C1089.34,710.71,1082.37,715.08,1074.73,715.08Z" transform="translate(0.28 57.05)"/><path class="cls-7" d="M1069.12,706.14c-7.26,0-13.88-4.15-20.57-5.94-6.93-1.86-14.72-1.64-20.79-5.16s-9.83-10.46-14.82-15.45-11.9-8.68-15.46-14.83-3.3-13.86-5.15-20.78c-1.8-6.7-6-13.32-6-20.57s4.15-13.88,6-20.58c1.85-6.92,1.64-14.71,5.15-20.78s10.46-9.83,15.46-14.82,8.67-11.9,14.82-15.46,13.86-3.3,20.79-5.15c6.69-1.8,13.31-6,20.57-6s13.87,4.15,20.57,6c6.92,1.85,14.72,1.63,20.78,5.15s9.83,10.46,14.83,15.46,11.89,8.67,15.46,14.82,3.29,13.86,5.15,20.78c1.8,6.7,5.94,13.32,5.94,20.58s-4.14,13.87-5.94,20.57c-1.86,6.92-1.64,14.72-5.15,20.78s-10.47,9.83-15.46,14.83-8.68,11.89-14.83,15.45-13.86,3.3-20.78,5.16C1083,702,1076.38,706.14,1069.12,706.14Z" transform="translate(0.28 57.05)"/><path class="cls-10" d="M1101.87,391.34l-2.06,14.56-30.69,217.5-30.7-217.5-2.06-14.56c10.61-4,21.42-7.53,32.76-7.53S1091.27,387.29,1101.87,391.34Z" transform="translate(0.28 57.05)"/><path class="cls-10" d="M1069.12,623.4,961,542l-10.42-7.86-57-42.88-.62-.47-11.12-8.36c.27-.62.55-1.25.83-1.87,8-6.61,16.49-12.82,23.64-20s13.37-15.63,20-23.65l1.86-.83,8.36,11.12.48.63,42.88,57,8,10.66Z" transform="translate(0.28 57.05)"/><path class="cls-10" d="M837.05,590.65l14.56,2.06,217.51,30.69L851.61,654.1l-14.56,2.06c-4-10.61-7.52-21.42-7.52-32.76S833,601.25,837.05,590.65Z" transform="translate(0.28 57.05)"/><path class="cls-10" d="M1069.12,623.4,981.64,739.63l-1.74,2.31-42.88,57-.48.64-8.36,11.1-1.88-.83v0c-6.61-8-12.82-16.47-20-23.61s-15.62-13.36-23.62-20h0c-.28-.62-.56-1.26-.83-1.88L893,756l.64-.48,57-42.88,1.13-.85Z" transform="translate(0.28 57.05)"/><path class="cls-10" d="M1036.36,855.47l2.06-14.56,30.7-217.51,30.69,217.51,2.06,14.56c-10.6,4-21.41,7.52-32.75,7.52S1047,859.51,1036.36,855.47Z" transform="translate(0.28 57.05)"/><path class="cls-10" d="M1256.37,764.34c-.28.62-.56,1.26-.85,1.88-8,6.61-16.49,12.84-23.63,20s-13.35,15.61-20,23.61c-.62.3-1.26.58-1.88.85l-8.36-11.1-.47-.64-34.9-46.37-8-10.6L1069.12,623.4l118.53,89.22,10.43,7.85,46.54,35,.64.48Z" transform="translate(0.28 57.05)"/><path class="cls-10" d="M1301.18,656.16l-14.56-2.06-217.5-30.7,217.5-30.69,14.56-2.06c4,10.6,7.53,21.41,7.53,32.75S1305.22,645.55,1301.18,656.16Z" transform="translate(0.28 57.05)"/><path class="cls-10" d="M1256.37,482.47l-11.12,8.36-.63.47-56.84,42.79-.13.09L1069.12,623.4l89.21-118.53.94-1.23,42-55.74.47-.64,8.36-11.11,1.87.83c6.61,8,12.82,16.5,20,23.65s15.63,13.36,23.65,20C1255.81,481.22,1256.09,481.85,1256.37,482.47Z" transform="translate(0.28 57.05)"/><text class="cls-14" transform="matrix(0.87, -0.49, 0.49, 0.87, 685.22, 366.13)">F</text><text class="cls-14" transform="translate(734.25 338.68) rotate(-24.9)">E</text><text class="cls-14" transform="translate(788.1 313.8) rotate(-20.69)">L</text><text class="cls-14" transform="matrix(0.95, -0.3, 0.3, 0.95, 841.26, 294.14)">I</text><text class="cls-14" transform="translate(871.9 284.07) rotate(-13.81)">C</text><text class="cls-14" transform="translate(932.36 269.3) rotate(-9.06)">E</text><text class="cls-14" transform="translate(990.95 259.96) rotate(-4.17)">S</text><text class="cls-14" transform="translate(1051.86 256.14) rotate(-0.62)"> </text><text class="cls-14" transform="matrix(1, 0.05, -0.05, 1, 1078.95, 255.49)">F</text><text class="cls-14" transform="matrix(0.99, 0.11, -0.11, 0.99, 1135.41, 258.89)">I</text><text class="cls-14" transform="translate(1167.52 262.22) rotate(10.03)">E</text><text class="cls-14" transform="translate(1226.19 272.66) rotate(14.34)">S</text><text class="cls-14" transform="translate(1285.1 287.8) rotate(18.37)">T</text><text class="cls-14" transform="matrix(0.93, 0.37, -0.37, 0.93, 1334.94, 304.08)">A</text><text class="cls-14" transform="translate(1395.22 328.43) rotate(25.87)">S</text><text class="cls-15" transform="translate(832.4 1189.71)">200 AÑOS</text><rect class="cls-8" x="681.28" y="1135.6" width="56.5" height="16.58"/><rect class="cls-16" x="681.28" y="1119.02" width="56.5" height="16.58"/><rect class="cls-16" x="681.28" y="1152.18" width="56.5" height="16.58"/><rect class="cls-8" x="1400.78" y="1135.6" width="56.5" height="16.58"/><rect class="cls-16" x="1400.78" y="1119.02" width="56.5" height="16.58"/><rect class="cls-16" x="1400.78" y="1152.18" width="56.5" height="16.58"/><polygon class="cls-8" points="485.58 1182.74 500.48 1209.99 527.73 1224.89 500.48 1239.8 485.58 1267.05 470.68 1239.8 443.43 1224.89 470.68 1209.99 485.58 1182.74"/><polygon class="cls-8" points="1809.04 73.75 1823.94 101 1851.19 115.9 1823.94 130.8 1809.04 158.05 1794.13 130.8 1766.88 115.9 1794.13 101 1809.04 73.75"/><polygon class="cls-8" points="321.09 57.05 330.25 73.79 346.99 82.95 330.25 92.1 321.09 108.84 311.94 92.1 295.19 82.95 311.94 73.79 321.09 57.05"/><polygon class="cls-8" points="1750.99 1078.2 1760.15 1094.94 1776.89 1104.1 1760.15 1113.25 1750.99 1129.99 1741.84 1113.25 1725.1 1104.1 1741.84 1094.94 1750.99 1078.2"/><polygon class="cls-8" points="316.44 1067.69 326.54 1086.15 345.01 1096.26 326.54 1106.36 316.44 1124.82 306.34 1106.36 287.87 1096.26 306.34 1086.15 316.44 1067.69"/><path class="cls-8" d="M1797.26,213.19a10.56,10.56,0,1,1-10.55-10.55A10.55,10.55,0,0,1,1797.26,213.19Z" transform="translate(0.28 57.05)"/><path class="cls-8" d="M1617.4,1159.62a10.28,10.28,0,1,1-10.28-10.27A10.27,10.27,0,0,1,1617.4,1159.62Z" transform="translate(0.28 57.05)"/><path class="cls-8" d="M1684.06,561.9a15.52,15.52,0,1,1-15.52-15.52A15.52,15.52,0,0,1,1684.06,561.9Z" transform="translate(0.28 57.05)"/><circle class="cls-8" cx="428.01" cy="602.11" r="17.54"/><path class="cls-17" d="M3496.34,793h0a21.7,21.7,0,0,0,21.7-21.71h0A21.71,21.71,0,0,0,3539.75,793h0a21.71,21.71,0,0,0-21.71,21.7h0A21.7,21.7,0,0,0,3496.34,793Z" transform="translate(0.28 57.05)"/><path class="cls-17" d="M3139.52,773.35h0a21.71,21.71,0,0,0,21.7-21.7h0a21.71,21.71,0,0,0,21.71,21.7h0a21.71,21.71,0,0,0-21.71,21.7h0A21.71,21.71,0,0,0,3139.52,773.35Z" transform="translate(0.28 57.05)"/><path class="cls-17" d="M3212.89,505h0a21.7,21.7,0,0,0,21.7-21.7h0A21.71,21.71,0,0,0,3256.3,505h0a21.71,21.71,0,0,0-21.71,21.7h0A21.7,21.7,0,0,0,3212.89,505Z" transform="translate(0.28 57.05)"/><path class="cls-7" d="M3505,709.47h0A13.09,13.09,0,0,0,3518,696.38h0a13.1,13.1,0,0,0,13.1,13.09h0a13.11,13.11,0,0,0-13.1,13.1h0A13.1,13.1,0,0,0,3505,709.47Z" transform="translate(0.28 57.05)"/><path class="cls-7" d="M3099,696.38h0a13.1,13.1,0,0,0,13.1-13.1h0a13.09,13.09,0,0,0,13.09,13.1h0a13.09,13.09,0,0,0-13.09,13.09h0A13.1,13.1,0,0,0,3099,696.38Z" transform="translate(0.28 57.05)"/><path class="cls-7" d="M3453.13,588.6h0a13.09,13.09,0,0,0,13.1-13.09h0a13.09,13.09,0,0,0,13.09,13.09h0a13.1,13.1,0,0,0-13.09,13.1h0A13.1,13.1,0,0,0,3453.13,588.6Z" transform="translate(0.28 57.05)"/><polygon class="cls-18" points="3488.93 1072.69 3112.33 898.41 3112.33 1028.75 3488.93 1203.02 3488.93 1072.69"/><path class="cls-18" d="M3488.65,1146l-216.55,47.81a9.21,9.21,0,0,1-11.19-9V1146Z" transform="translate(0.28 57.05)"/><path class="cls-18" d="M3112.06,841.37l216.55-47.81a9.21,9.21,0,0,1,11.19,9v38.82Z" transform="translate(0.28 57.05)"/><path class="cls-19" d="M3384.28,793c.65,18.8-10.86,35.72-23.06,50s-26,28.28-31.57,46.24c-6.51,21-.6,43.79,7.79,64.09s19.35,39.85,23.45,61.43-.3,46.62-17.7,60" transform="translate(0.28 57.05)"/><path class="cls-19" d="M3258.52,735.61c21.69,29.83,27.58,70.5,15.25,105.26-9.76,27.54-30.24,52.08-31.07,81.29-1.15,40.14,35.3,74.11,34.12,114.24" transform="translate(0.28 57.05)"/><path class="cls-19" d="M3341.73,601.57c1.07,16-8.37,30.72-18.59,43.08s-21.9,24.26-26.86,39.51c-6.66,20.49.18,42.77,8.28,62.74s17.7,40.38,16.58,61.91c-1.23,23.57-15.06,44.3-24,66.16-20.74,51-13.48,112.34,18.57,157" transform="translate(0.28 57.05)"/><path class="cls-7" d="M3383.53,797.34l-22.75,21a1.64,1.64,0,0,0,.62,2.78l29.56,9.21a1.64,1.64,0,0,0,2.09-1.93l-6.8-30.21A1.64,1.64,0,0,0,3383.53,797.34Z" transform="translate(0.28 57.05)"/><path class="cls-17" d="M3380,813.42a70.29,70.29,0,0,0,10.19,2.29l-2.3-10.18a6,6,0,0,0-9.91-3.08l-7.67,7.07A70.2,70.2,0,0,0,3380,813.42Z" transform="translate(0.28 57.05)"/><path class="cls-7" d="M3485.74,738.6c.41-1.17.8-2.31,1.15-3.43,15.59-50.06-5.43-101.13-47-114.07s-87.85,17.15-103.44,67.22c-.35,1.11-.68,2.28-1,3.47a111.48,111.48,0,0,0-4.13,30.2c-.73,33.52,10.64,73,50.52,85.47s71.68-13.66,90.12-41.66A111.5,111.5,0,0,0,3485.74,738.6Z" transform="translate(0.28 57.05)"/><path class="cls-17" d="M3402,810.58a155.23,155.23,0,0,1,13.91-166.15A109.25,109.25,0,0,1,3439.62,621c-41.46-12.7-87.58,17.36-103.14,67.3-.35,1.11-.68,2.28-1,3.47a111.48,111.48,0,0,0-4.13,30.2c-.73,33.52,10.64,73,50.52,85.47A67.94,67.94,0,0,0,3402,810.58Z" transform="translate(0.28 57.05)"/><path class="cls-8" d="M3346.55,665.46a112.61,112.61,0,0,0-10.07,22.86c-.35,1.11-.68,2.28-1,3.47a111.84,111.84,0,0,0-3.92,23.55,442.76,442.76,0,0,0,141.71,48.48,112.28,112.28,0,0,0,12.47-25.22c.41-1.17.8-2.31,1.15-3.43a113.73,113.73,0,0,0,4.33-20.58A442.63,442.63,0,0,1,3346.55,665.46Z" transform="translate(0.28 57.05)"/><path class="cls-20" d="M3333.33,701.19c-.26,1.37-.49,2.73-.69,4.1q-.26,1.61-.45,3.21c-.14,1.12-.24,2.24-.34,3.36s-.22,2.32-.29,3.48a441,441,0,0,0,52.68,24.38,157.34,157.34,0,0,1,8.75-52.34,441,441,0,0,1-46.44-21.92c-1.64,2.83-3.14,5.78-4.56,8.8-.49,1.06-1,2.11-1.45,3.19s-.9,2.15-1.33,3.24c-1,2.5-1.92,5-2.73,7.63-.35,1.11-.68,2.28-1,3.47-.63,2.27-1.17,4.55-1.65,6.82C3333.65,699.47,3333.49,700.33,3333.33,701.19Z" transform="translate(0.28 57.05)"/><path class="cls-7" d="M3350.38,584.19l-26.06,16.72a1.64,1.64,0,0,0,.13,2.84L3352,618a1.64,1.64,0,0,0,2.39-1.54l-1.45-30.92A1.64,1.64,0,0,0,3350.38,584.19Z" transform="translate(0.28 57.05)"/><path class="cls-17" d="M3344.11,599.41a70,70,0,0,0,9.63,4l-.48-10.42a6,6,0,0,0-9.22-4.76l-8.79,5.63A69.91,69.91,0,0,0,3344.11,599.41Z" transform="translate(0.28 57.05)"/><path class="cls-7" d="M3461.25,544.12c.61-1.07,1.19-2.13,1.72-3.17,24.07-46.59,12.24-100.54-26.41-120.51s-89.49,1.62-113.56,48.21q-.8,1.56-1.59,3.24a111.55,111.55,0,0,0-9.31,29c-6.55,32.88-2.23,73.78,34.88,93s73-1,96-25.35A111.8,111.8,0,0,0,3461.25,544.12Z" transform="translate(0.28 57.05)"/><path class="cls-21" d="M3366.26,600.44a155.22,155.22,0,0,1,42.59-161.2,109.2,109.2,0,0,1,27.42-18.92c-38.61-19.72-89.26,1.85-113.27,48.33q-.8,1.56-1.59,3.24a111.55,111.55,0,0,0-9.31,29c-6.55,32.88-2.23,73.78,34.88,93A67.89,67.89,0,0,0,3366.26,600.44Z" transform="translate(0.28 57.05)"/><path class="cls-8" d="M3336.9,447.89a112.74,112.74,0,0,0-13.9,20.76q-.8,1.56-1.59,3.24a113.07,113.07,0,0,0-7.95,22.51,442.71,442.71,0,0,0,131.12,72.39,111.86,111.86,0,0,0,16.67-22.67c.61-1.07,1.19-2.13,1.72-3.17a113.63,113.63,0,0,0,7.85-19.52A442.35,442.35,0,0,1,3336.9,447.89Z" transform="translate(0.28 57.05)"/><path class="cls-20" d="M3317.67,480.78c-.5,1.3-1,2.6-1.4,3.91-.35,1-.68,2.06-1,3.09s-.62,2.16-.92,3.25-.62,2.24-.89,3.37a441.07,441.07,0,0,0,47.64,33.17,157,157,0,0,1,17.72-50,441.64,441.64,0,0,1-41.92-29.67c-2.1,2.5-4.1,5.14-6,7.87-.67,1-1.35,1.91-2,2.89s-1.26,2-1.87,3c-1.4,2.29-2.76,4.61-4,7q-.8,1.56-1.59,3.24c-1,2.13-1.93,4.28-2.8,6.43C3318.28,479.14,3318,480,3317.67,480.78Z" transform="translate(0.28 57.05)"/><path class="cls-7" d="M3259.67,737.76l-5.26,30.51a1.64,1.64,0,0,0,2.19,1.82l29.05-10.7a1.64,1.64,0,0,0,.48-2.8l-23.79-19.81A1.64,1.64,0,0,0,3259.67,737.76Z" transform="translate(0.28 57.05)"/><path class="cls-17" d="M3266.67,752.66a69.93,69.93,0,0,0,9.48-4.38l-8-6.68a6,6,0,0,0-9.74,3.58l-1.77,10.29A70.55,70.55,0,0,0,3266.67,752.66Z" transform="translate(0.28 57.05)"/><path class="cls-7" d="M3305,628.92c-.38-1.17-.77-2.32-1.17-3.41-18.12-49.21-65.91-76.91-106.73-61.88S3137.83,630.74,3156,680c.41,1.09.85,2.22,1.32,3.36a112.08,112.08,0,0,0,15.12,26.47c19.84,27,52.93,51.45,92.12,37s48.55-54.49,46.11-87.93A111.62,111.62,0,0,0,3305,628.92Z" transform="translate(0.28 57.05)"/><path class="cls-17" d="M3282.38,737a155.23,155.23,0,0,1-90.16-140.25,109.38,109.38,0,0,1,4.55-33c-40.61,15.17-58.89,67.1-40.82,116.19.41,1.09.85,2.22,1.32,3.36a112.08,112.08,0,0,0,15.12,26.47c19.84,27,52.93,51.45,92.12,37A67.8,67.8,0,0,0,3282.38,737Z" transform="translate(0.28 57.05)"/><path class="cls-8" d="M3150,655.68A113.49,113.49,0,0,0,3156,680c.41,1.09.85,2.22,1.32,3.36a112.45,112.45,0,0,0,11.24,21.06,442.43,442.43,0,0,0,141.92-47.85,111.76,111.76,0,0,0-5.47-27.6c-.38-1.17-.77-2.32-1.17-3.42a114.75,114.75,0,0,0-9.1-19A442.49,442.49,0,0,1,3150,655.68Z" transform="translate(0.28 57.05)"/><path class="cls-20" d="M3161.3,692.07c.63,1.24,1.27,2.47,1.94,3.68.53.94,1.06,1.89,1.61,2.81s1.17,1.93,1.77,2.88,1.24,2,1.89,2.93a440.53,440.53,0,0,0,56.63-12.74,157.33,157.33,0,0,1-24.93-46.84A441.14,441.14,0,0,1,3150,655.68c.43,3.24,1,6.5,1.75,9.76.25,1.14.49,2.28.79,3.42s.59,2.25.92,3.38c.74,2.57,1.53,5.14,2.47,7.71.41,1.09.85,2.22,1.32,3.36.89,2.19,1.85,4.31,2.85,6.41C3160.5,690.52,3160.9,691.29,3161.3,692.07Z" transform="translate(0.28 57.05)"/><path class="cls-7" d="M3112.33,898.41H3475a2.52,2.52,0,0,1,2.52,2.52v125.29a2.52,2.52,0,0,1-2.52,2.52H3112.33a0,0,0,0,1,0,0V898.41A0,0,0,0,1,3112.33,898.41Z"/><path class="cls-17" d="M3112.06,841.37V971.7h87a368.54,368.54,0,0,1-10.27-71.14c-.88-19.91-.1-40.18,5.73-59.19Z" transform="translate(0.28 57.05)"/><text class="cls-22" transform="translate(3133.02 998.81)">P<tspan class="cls-23" x="36.77" y="0">ARADERO</tspan></text><path class="cls-7" d="M3103.43,1072.69h385.5a0,0,0,0,1,0,0V1203a0,0,0,0,1,0,0h-385.5a2.52,2.52,0,0,1-2.52-2.52V1075.21A2.52,2.52,0,0,1,3103.43,1072.69Z"/><path class="cls-17" d="M3212.69,1015.64H3109.83a9.21,9.21,0,0,0-9.21,9.21v111.92a9.21,9.21,0,0,0,9.21,9.2h183.44A397.84,397.84,0,0,1,3212.69,1015.64Z" transform="translate(0.28 57.05)"/><text class="cls-24" transform="translate(3140.69 1173.09)">CU<tspan class="cls-25" x="81.33" y="0">L</tspan><tspan class="cls-23" x="110.11" y="0">TURAL</tspan></text><g class="cls-2"><path class="cls-7" d="M2623.13,37.05a166.36,166.36,0,0,0-45.45,11.36c-25.39,10.08-50,25.93-68.84,45.12-6.31,6.41-12.05,13.22-17.59,19.8-3.46,4.11-7,8.36-10.72,12.47C2468.72,139,2458,148,2446.82,154.26a77.28,77.28,0,0,1-9,4.28c-11.36,4.51-22.35,5.54-29.58,2.5L2433.5,202c7.24,3,18.23,2,29.58-2.5a75.91,75.91,0,0,0,9-4.29c11.18-6.24,21.89-15.28,33.7-28.46,3.68-4.1,7.26-8.35,10.72-12.46,5.55-6.58,11.28-13.39,17.59-19.8,18.85-19.19,43.45-35,68.85-45.12A166.21,166.21,0,0,1,2648.4,78Z" transform="translate(0.28 57.05)"/><path class="cls-7" d="M2628.23,130.28c-25.39,10.08-50,25.94-68.84,45.12-6.31,6.42-12,13.23-17.59,19.81-3.46,4.11-7,8.35-10.72,12.46-11.81,13.18-22.52,22.22-33.71,28.46a77.28,77.28,0,0,1-9,4.28c-11.36,4.51-22.35,5.54-29.58,2.5l25.27,40.92c7.23,3,18.22,2,29.57-2.5a77.41,77.41,0,0,0,9-4.28c11.19-6.24,21.89-15.28,33.71-28.46,3.67-4.11,7.25-8.36,10.72-12.47,5.54-6.57,11.27-13.38,17.58-19.8,18.85-19.18,43.46-35,68.85-45.12A166.18,166.18,0,0,1,2699,159.84l-25.27-40.92A166.36,166.36,0,0,0,2628.23,130.28Z" transform="translate(0.28 57.05)"/><polygon class="cls-7" points="2699.22 216.89 2699.22 216.89 2699.22 216.89 2699.22 216.89"/><path class="cls-8" d="M2648.4,78A166.21,166.21,0,0,0,2603,89.33c-25.4,10.07-50,25.93-68.85,45.12-6.31,6.41-12,13.22-17.59,19.8-3.46,4.11-7,8.36-10.72,12.46-11.81,13.18-22.52,22.22-33.7,28.46a75.91,75.91,0,0,1-9,4.29c-11.35,4.5-22.34,5.54-29.58,2.5l25.29,40.95c7.23,3,18.22,2,29.58-2.5a77.28,77.28,0,0,0,9-4.28c11.19-6.24,21.9-15.28,33.71-28.46,3.68-4.11,7.26-8.35,10.72-12.46,5.54-6.58,11.28-13.39,17.59-19.81,18.85-19.18,43.45-35,68.84-45.12a166.36,166.36,0,0,1,45.45-11.36Z" transform="translate(0.28 57.05)"/></g><g class="cls-2"><polygon class="cls-26" points="2699.22 216.89 2699.22 216.89 2699.22 216.89 2699.22 216.89"/><path class="cls-17" d="M2567.07,236.12c4.52-5.37,9.2-10.89,14.19-16.23-1.79-.09-3.59-.14-5.39-.27a177.27,177.27,0,0,1-46.88-9.68c-11,11.93-21.1,20.32-31.62,26.19a77.28,77.28,0,0,1-9,4.28c-11.36,4.51-22.35,5.54-29.58,2.5l25.27,40.92c7.23,3,18.22,2,29.57-2.5a77.41,77.41,0,0,0,9-4.28c11.19-6.24,21.89-15.28,33.71-28.46C2560,244.48,2563.6,240.23,2567.07,236.12Z" transform="translate(0.28 57.05)"/><path class="cls-17" d="M2486.79,185.1a102.55,102.55,0,0,1-27-39.52,100.8,100.8,0,0,1-13,8.68,77.28,77.28,0,0,1-9,4.28c-11.36,4.51-22.35,5.54-29.58,2.5L2433.5,202c7.24,3,18.23,2,29.58-2.5a75.91,75.91,0,0,0,9-4.29A103.78,103.78,0,0,0,2486.79,185.1Z" transform="translate(0.28 57.05)"/><path class="cls-20" d="M2493.51,190.8c-2.32-1.8-4.55-3.72-6.72-5.7a103.78,103.78,0,0,1-14.7,10.07,75.91,75.91,0,0,1-9,4.29c-11.35,4.5-22.34,5.54-29.58,2.5l25.29,40.95c7.23,3,18.22,2,29.58-2.5a77.28,77.28,0,0,0,9-4.28c10.52-5.87,20.63-14.26,31.62-26.19A130.4,130.4,0,0,1,2493.51,190.8Z" transform="translate(0.28 57.05)"/></g><line class="cls-27" x1="2406.68" y1="215.11" x2="2622.8" y2="565.15"/><g class="cls-2"><path class="cls-7" d="M2258.39,202.21a171.43,171.43,0,0,1,48-5.32c28.18.63,57.66,7.13,82.78,18.91,8.4,3.94,16.39,8.47,24.11,12.84,4.83,2.73,9.81,5.55,14.84,8.21,16.15,8.5,29.75,13.4,42.81,15.42a81.54,81.54,0,0,0,10.25.91c12.6.28,23.59-2.67,29.5-8.2L2501,293.61c-5.91,5.54-16.9,8.48-29.5,8.2a77.81,77.81,0,0,1-10.25-.91c-13.06-2-26.66-6.91-42.81-15.42-5-2.65-10-5.47-14.84-8.2-7.72-4.37-15.71-8.9-24.11-12.84-25.12-11.78-54.61-18.29-82.78-18.92a171.76,171.76,0,0,0-48,5.33Z" transform="translate(0.28 57.05)"/><path class="cls-7" d="M2286.93,294.21c28.17.63,57.66,7.13,82.77,18.91,8.4,3.94,16.4,8.47,24.12,12.84,4.82,2.73,9.81,5.55,14.84,8.21,16.15,8.5,29.75,13.4,42.81,15.42a79.51,79.51,0,0,0,10.25.9c12.59.29,23.59-2.66,29.49-8.19l-9.74,48.63c-5.9,5.54-16.9,8.48-29.49,8.2a77.66,77.66,0,0,1-10.25-.91c-13.06-2-26.66-6.91-42.81-15.42-5-2.65-10-5.47-14.84-8.2-7.72-4.37-15.72-8.9-24.12-12.84-25.11-11.78-54.6-18.29-82.77-18.92a171.76,171.76,0,0,0-48,5.33l9.74-48.64A171.39,171.39,0,0,1,2286.93,294.21Z" transform="translate(0.28 57.05)"/><polygon class="cls-7" points="2229.44 405.22 2229.44 405.22 2229.44 405.22 2229.44 405.22"/><path class="cls-8" d="M2248.65,250.85a171.76,171.76,0,0,1,48-5.33c28.17.63,57.66,7.14,82.78,18.92,8.4,3.94,16.39,8.47,24.11,12.84,4.82,2.73,9.81,5.55,14.84,8.2,16.15,8.51,29.75,13.41,42.81,15.42a77.81,77.81,0,0,0,10.25.91c12.6.28,23.59-2.66,29.5-8.2l-9.76,48.69c-5.9,5.53-16.9,8.48-29.49,8.19a79.51,79.51,0,0,1-10.25-.9c-13.06-2-26.66-6.92-42.81-15.42-5-2.66-10-5.48-14.84-8.21-7.72-4.37-15.72-8.9-24.12-12.84-25.11-11.78-54.6-18.28-82.77-18.91a171.39,171.39,0,0,0-48,5.32Z" transform="translate(0.28 57.05)"/></g><g class="cls-2"><polygon class="cls-26" points="2229.44 405.22 2229.44 405.22 2229.44 405.22 2229.44 405.22"/><path class="cls-17" d="M2365.94,364.69a198.7,198.7,0,0,1-40.61-66,214.81,214.81,0,0,0-38.4-4.44,171.39,171.39,0,0,0-48,5.32l-9.74,48.64a171.76,171.76,0,0,1,48-5.33c28.17.63,57.66,7.14,82.77,18.92Q2363,363.18,2365.94,364.69Z" transform="translate(0.28 57.05)"/><path class="cls-17" d="M2296.68,245.52c6.16.14,12.39.61,18.61,1.3a102.52,102.52,0,0,1,2.34-21.72,85.6,85.6,0,0,1,10.78-26.54,210,210,0,0,0-22-1.67,171.43,171.43,0,0,0-48,5.32l-9.74,48.64A171.76,171.76,0,0,1,2296.68,245.52Z" transform="translate(0.28 57.05)"/><path class="cls-20" d="M2325.33,298.65c-.68-1.84-1.38-3.67-2-5.53-5-14.9-8.11-30.65-8-46.3-6.22-.69-12.45-1.16-18.61-1.3a171.76,171.76,0,0,0-48,5.33l-9.75,48.68a171.39,171.39,0,0,1,48-5.32A214.81,214.81,0,0,1,2325.33,298.65Z" transform="translate(0.28 57.05)"/></g><line class="cls-27" x1="2511.69" y1="298.49" x2="2463.36" y2="539.82"/><g class="cls-2"><path class="cls-7" d="M2670.81,243.93a125.36,125.36,0,0,0-35.27,1.58c-20.27,3.64-40.81,11.66-57.61,23-5.62,3.79-10.88,8-16,12-3.17,2.51-6.45,5.11-9.78,7.6-10.7,8-20,13-29.17,16a58,58,0,0,1-7.29,1.82c-9.06,1.62-17.33.74-22.22-2.59l12.53,34c4.88,3.33,13.15,4.22,22.21,2.59a58,58,0,0,0,7.3-1.81c9.2-2.93,18.46-8,29.16-16,3.33-2.48,6.61-5.08,9.79-7.6,5.07-4,10.33-8.19,15.95-12,16.8-11.35,37.35-19.37,57.61-23a125,125,0,0,1,35.27-1.58Z" transform="translate(0.28 57.05)"/><path class="cls-7" d="M2660.6,313.56c-20.27,3.63-40.82,11.65-57.61,23-5.62,3.79-10.88,8-16,12-3.17,2.52-6.45,5.12-9.78,7.6-10.71,8-20,13-29.17,16a57.88,57.88,0,0,1-7.29,1.81c-9.06,1.63-17.33.74-22.22-2.59l12.53,34c4.88,3.33,13.15,4.21,22.21,2.59a56.81,56.81,0,0,0,7.3-1.82c9.2-2.93,18.46-8,29.16-16,3.33-2.48,6.61-5.08,9.78-7.6,5.08-4,10.34-8.19,16-12,16.8-11.34,37.35-19.36,57.61-23a125,125,0,0,1,35.27-1.57l-12.52-34A125,125,0,0,0,2660.6,313.56Z" transform="translate(0.28 57.05)"/><polygon class="cls-26" points="2708.67 403.03 2708.67 403.03 2708.67 403.03 2708.67 403.03"/><path class="cls-8" d="M2683.33,277.94a125,125,0,0,0-35.27,1.58c-20.26,3.63-40.81,11.65-57.61,23-5.62,3.79-10.88,8-15.95,12-3.18,2.52-6.46,5.12-9.79,7.6-10.7,8-20,13-29.16,16a58,58,0,0,1-7.3,1.81c-9.06,1.63-17.33.74-22.21-2.59l12.53,34c4.89,3.33,13.16,4.22,22.22,2.59a57.88,57.88,0,0,0,7.29-1.81c9.2-2.93,18.46-8,29.17-16,3.33-2.48,6.61-5.08,9.78-7.6,5.08-4,10.34-8.19,16-12,16.79-11.35,37.34-19.37,57.61-23a125,125,0,0,1,35.27-1.58Z" transform="translate(0.28 57.05)"/></g><g class="cls-2"><polygon class="cls-26" points="2708.67 403.03 2708.67 403.03 2708.67 403.03 2708.67 403.03"/><path class="cls-17" d="M2528.25,339.88a58,58,0,0,0,7.3-1.81,79.17,79.17,0,0,0,14.1-6.15c-1.64-2.63-3.21-5.31-4.65-8.06-4.21-8-7.55-16.7-8.27-25.73a78.19,78.19,0,0,1-13.71,5.93,58,58,0,0,1-7.29,1.82c-9.06,1.62-17.33.74-22.22-2.59l12.53,34C2510.92,340.62,2519.19,341.51,2528.25,339.88Z" transform="translate(0.28 57.05)"/><path class="cls-20" d="M2549.65,331.92a79.17,79.17,0,0,1-14.1,6.15,58,58,0,0,1-7.3,1.81c-9.06,1.63-17.33.74-22.21-2.59l12.53,34c4.89,3.33,13.16,4.22,22.22,2.59a57.88,57.88,0,0,0,7.29-1.81c7.92-2.52,15.89-6.65,24.78-12.82A126.4,126.4,0,0,1,2549.65,331.92Z" transform="translate(0.28 57.05)"/><path class="cls-17" d="M2599.55,382.55l3.9-3.05c-.76-.35-1.53-.69-2.28-1.05a125.2,125.2,0,0,1-28.31-19.16c-8.89,6.17-16.86,10.3-24.78,12.82a57.88,57.88,0,0,1-7.29,1.81c-9.06,1.63-17.33.74-22.22-2.59l12.53,34c4.88,3.33,13.15,4.21,22.21,2.59a58.52,58.52,0,0,0,7.3-1.82c9.2-2.93,18.46-8,29.16-16C2593.1,387.67,2596.38,385.07,2599.55,382.55Z" transform="translate(0.28 57.05)"/></g><line class="cls-27" x1="2492.88" y1="357.86" x2="2568.75" y2="563.89"/><path class="cls-17" d="M2771.13,483.25h-142.9v-94.9h142.9a3.35,3.35,0,0,1,2.8,5.2L2747.32,434a3.37,3.37,0,0,0,0,3.68l26.61,40.41A3.35,3.35,0,0,1,2771.13,483.25Z" transform="translate(0.28 57.05)"/><polygon class="cls-18" points="2628.51 445.4 2717.36 480.62 2628.51 480.62 2628.51 445.4"/><path class="cls-7" d="M2166.42,483.25h142.9v-94.9h-142.9a3.35,3.35,0,0,0-2.8,5.2L2190.23,434a3.37,3.37,0,0,1,0,3.68l-26.61,40.41A3.35,3.35,0,0,0,2166.42,483.25Z" transform="translate(0.28 57.05)"/><path class="cls-17" d="M2163.62,478.05a3.35,3.35,0,0,0,2.8,5.2h142.9V428.4a158.5,158.5,0,0,1-17.11-18,120.21,120.21,0,0,1-14.08-22H2166.42a3.35,3.35,0,0,0-2.8,5.2L2190.23,434a3.37,3.37,0,0,1,0,3.68Z" transform="translate(0.28 57.05)"/><polygon class="cls-18" points="2309.6 445.4 2220.74 480.62 2309.6 480.62 2309.6 445.4"/><path class="cls-7" d="M2220.74,480.62h496.62a0,0,0,0,1,0,0v92.76a2.13,2.13,0,0,1-2.13,2.13H2222.88a2.13,2.13,0,0,1-2.13-2.13V480.62A0,0,0,0,1,2220.74,480.62Z"/><path class="cls-17" d="M2220.47,511.76a6.7,6.7,0,0,0,6.7,6.7h263.24A476,476,0,0,1,2341.48,453c-13.18-8.77-26-18.31-37.25-29.38h-83.76Z" transform="translate(0.28 57.05)"/><path class="cls-8" d="M2271.52,470.61v7.83a32.49,32.49,0,0,0-4.92,4.74,22.47,22.47,0,0,0-3.46,5.56,15.21,15.21,0,0,0-1.28,6.1,5.18,5.18,0,0,0,.82,3.25,2.93,2.93,0,0,0,2.4,1,3,3,0,0,0,2.28-.85,3.27,3.27,0,0,0,.82-2.37,6.58,6.58,0,0,0-.21-1.74c-.14-.5-.31-1-.52-1.61l8.93-2.06a22,22,0,0,1,.76,2.82,15,15,0,0,1,.28,2.89,10.83,10.83,0,0,1-3.25,8.35q-3.26,3-9.33,3t-9.45-3.22q-3.3-3.22-3.31-9.17a19.82,19.82,0,0,1,1.22-6.93,22.18,22.18,0,0,1,3.55-6.19,32.24,32.24,0,0,1,5.68-5.47v-5.95Zm.31-12.94v9.41h-9.66v-9.41Z" transform="translate(0.28 57.05)"/><path class="cls-8" d="M2298.8,497.39a16.31,16.31,0,0,1-7.72-1.64,10.53,10.53,0,0,1-4.68-5.07,23.34,23.34,0,0,1-1.76-8.9l9.3-1.39a22.48,22.48,0,0,0,.57,5.1,5.66,5.66,0,0,0,1.46,2.79,3.27,3.27,0,0,0,2.28.85,2.18,2.18,0,0,0,2.22-1.15,6,6,0,0,0,.51-2.43,8.74,8.74,0,0,0-1.45-5.13,23.1,23.1,0,0,0-4-4.23l-4.25-3.7a23.33,23.33,0,0,1-4.71-5.38,13.54,13.54,0,0,1-1.92-7.44q0-6.26,3.71-9.57t10.08-3.31a13,13,0,0,1,6.35,1.34,9.38,9.38,0,0,1,3.65,3.49,14.64,14.64,0,0,1,1.7,4.56,29.3,29.3,0,0,1,.51,4.58l-9.35,1.16a38,38,0,0,0-.27-3.8,5.28,5.28,0,0,0-.89-2.49,2.4,2.4,0,0,0-2.06-.88,2.36,2.36,0,0,0-2.22,1.28,5.33,5.33,0,0,0-.7,2.55,7.2,7.2,0,0,0,1.31,4.46,25,25,0,0,0,3.43,3.62l4.07,3.58a27.58,27.58,0,0,1,5.44,6.2,15.55,15.55,0,0,1,2.21,8.56,12.68,12.68,0,0,1-1.57,6.29,11.61,11.61,0,0,1-4.47,4.46A13.52,13.52,0,0,1,2298.8,497.39Z" transform="translate(0.28 57.05)"/><path class="cls-8" d="M2316.53,496.67l9.3-49.21h12.39l9.17,49.21h-10l-1.64-10.39h-7.23l-1.7,10.39Zm12.94-16.89h5.23l-2.62-19.2Z" transform="translate(0.28 57.05)"/><path class="cls-8" d="M2354.32,496.67V447.46h12.82a34.64,34.64,0,0,1,6,.49,13.72,13.72,0,0,1,5,1.85,9.31,9.31,0,0,1,3.43,3.89,15.1,15.1,0,0,1,1.25,6.65,12.77,12.77,0,0,1-.88,5,7.94,7.94,0,0,1-2.49,3.25,9.11,9.11,0,0,1-3.86,1.64,9.79,9.79,0,0,1,4.8,1.85,9.34,9.34,0,0,1,2.95,4,16.31,16.31,0,0,1,1,6,19.61,19.61,0,0,1-1,6.59,11.44,11.44,0,0,1-2.89,4.52,11.64,11.64,0,0,1-4.65,2.61,21.49,21.49,0,0,1-6.35.86Zm10.87-29.53h2.13a7.42,7.42,0,0,0,3.76-.76,3.82,3.82,0,0,0,1.74-2.21,12.12,12.12,0,0,0,.45-3.53,6.79,6.79,0,0,0-.7-3.25,4.52,4.52,0,0,0-2.06-2,7.74,7.74,0,0,0-3.43-.67h-1.89Zm0,21.93h2.31q3.59,0,4.95-1.82a8.83,8.83,0,0,0,1.37-5.35,13,13,0,0,0-.61-4.43,4.32,4.32,0,0,0-2-2.4,7.91,7.91,0,0,0-3.77-.76h-2.25Z" transform="translate(0.28 57.05)"/><path class="cls-8" d="M2392.53,496.67V447.46h10.87v49.21Zm2.12-53.1,3.83-12.21h10.08l-7.65,12.21Z" transform="translate(0.28 57.05)"/><path class="cls-8" d="M2410.81,496.67l9.3-49.21h12.39l9.17,49.21h-10L2430,486.28h-7.23l-1.7,10.39Zm12.94-16.89H2429l-2.61-19.2Z" transform="translate(0.28 57.05)"/><path class="cls-8" d="M2461.66,497.39a16.31,16.31,0,0,1-7.72-1.64,10.53,10.53,0,0,1-4.68-5.07,23.34,23.34,0,0,1-1.76-8.9l9.3-1.39a22.48,22.48,0,0,0,.57,5.1,5.66,5.66,0,0,0,1.46,2.79,3.27,3.27,0,0,0,2.28.85,2.18,2.18,0,0,0,2.22-1.15,6,6,0,0,0,.51-2.43,8.67,8.67,0,0,0-1.46-5.13,22.68,22.68,0,0,0-3.94-4.23l-4.26-3.7a23.53,23.53,0,0,1-4.7-5.38,13.54,13.54,0,0,1-1.92-7.44q0-6.26,3.71-9.57t10.08-3.31a13,13,0,0,1,6.35,1.34,9.45,9.45,0,0,1,3.65,3.49,14.89,14.89,0,0,1,1.7,4.56,29.3,29.3,0,0,1,.51,4.58l-9.35,1.16a35,35,0,0,0-.28-3.8,5.18,5.18,0,0,0-.88-2.49,2.4,2.4,0,0,0-2.06-.88,2.36,2.36,0,0,0-2.22,1.28,5.22,5.22,0,0,0-.7,2.55,7.2,7.2,0,0,0,1.31,4.46,25,25,0,0,0,3.43,3.62l4.07,3.58a27.58,27.58,0,0,1,5.44,6.2,15.63,15.63,0,0,1,2.21,8.56,12.68,12.68,0,0,1-1.57,6.29,11.61,11.61,0,0,1-4.47,4.46A13.52,13.52,0,0,1,2461.66,497.39Z" transform="translate(0.28 57.05)"/><path class="cls-8" d="M2524.47,506.32a19,19,0,0,1-3.22-2,30.87,30.87,0,0,1-3.74-3.22,24.41,24.41,0,0,1-3.13-3.8,2,2,0,0,1-.48.06h-.55c-3.68,0-6.6-.64-8.75-1.94a10.9,10.9,0,0,1-4.61-5.59,24,24,0,0,1-1.4-8.68V462.89a23.8,23.8,0,0,1,1.4-8.69,10.71,10.71,0,0,1,4.61-5.49,17.07,17.07,0,0,1,8.75-1.92c3.73,0,6.67.64,8.84,1.92a10.69,10.69,0,0,1,4.65,5.49,24,24,0,0,1,1.39,8.69v18.29a28.49,28.49,0,0,1-.63,6.25,13.9,13.9,0,0,1-2.07,4.86,10.12,10.12,0,0,1-3.8,3.28c.53.57,1.08,1.13,1.64,1.67s1.14,1.06,1.71,1.52a9,9,0,0,0,1.7,1.13Zm-11.12-16.64a3.25,3.25,0,0,0,2.49-.85,4.23,4.23,0,0,0,1-2.19,14.52,14.52,0,0,0,.25-2.73V460.22a14.56,14.56,0,0,0-.25-2.77,4.17,4.17,0,0,0-1-2.15,3.25,3.25,0,0,0-2.49-.85,3.15,3.15,0,0,0-2.46.85,4.11,4.11,0,0,0-1,2.15,17.59,17.59,0,0,0-.21,2.77v23.69a17.54,17.54,0,0,0,.21,2.73,4.17,4.17,0,0,0,1,2.19A3.15,3.15,0,0,0,2513.35,489.68Z" transform="translate(0.28 57.05)"/><path class="cls-8" d="M2551.5,497.39c-3.77,0-6.71-.61-8.84-1.85a9.9,9.9,0,0,1-4.46-5.4,25.76,25.76,0,0,1-1.28-8.72v-34h10.75v35.6a18.42,18.42,0,0,0,.25,3,5,5,0,0,0,1.06,2.49,3.8,3.8,0,0,0,5.07,0,4.92,4.92,0,0,0,1-2.49,22.32,22.32,0,0,0,.22-3v-35.6h10.81v34a25.46,25.46,0,0,1-1.31,8.72,10.11,10.11,0,0,1-4.46,5.4C2558.2,496.78,2555.27,497.39,2551.5,497.39Z" transform="translate(0.28 57.05)"/><path class="cls-8" d="M2575.43,496.67V447.46h22.11v7.41h-11.23v12.21h8.56v7.53h-8.56v14.71h11.36v7.35Z" transform="translate(0.28 57.05)"/><path class="cls-8" d="M2604.17,496.67v-9.36h9.35v9.36Z" transform="translate(0.28 57.05)"/><path class="cls-8" d="M2621.42,496.67v-9.36h9.35v9.36Z" transform="translate(0.28 57.05)"/><path class="cls-8" d="M2638.67,496.67v-9.36H2648v9.36Z" transform="translate(0.28 57.05)"/><path class="cls-8" d="M2661,483.73v-7.84a32.49,32.49,0,0,0,4.92-4.74,22.47,22.47,0,0,0,3.46-5.56,15.17,15.17,0,0,0,1.28-6.1,5.12,5.12,0,0,0-.82-3.25,2.92,2.92,0,0,0-2.4-1,3,3,0,0,0-2.28.85,3.24,3.24,0,0,0-.82,2.37,6.56,6.56,0,0,0,.21,1.73c.15.5.32,1,.52,1.61l-8.93,2.06a23.79,23.79,0,0,1-.76-2.82,14.85,14.85,0,0,1-.27-2.89c0-3.56,1.08-6.35,3.25-8.35s5.27-3,9.32-3,7.24,1.08,9.45,3.22,3.31,5.21,3.31,9.18a19.76,19.76,0,0,1-1.22,6.92,22.23,22.23,0,0,1-3.55,6.2,32.56,32.56,0,0,1-5.68,5.46v6Zm-.3,12.94v-9.42h9.66v9.42Z" transform="translate(0.28 57.05)"/><path class="cls-17" d="M2737.64,320.68h0A18.68,18.68,0,0,0,2756.32,302h0A18.68,18.68,0,0,0,2775,320.68h0a18.68,18.68,0,0,0-18.68,18.68h0A18.69,18.69,0,0,0,2737.64,320.68Z" transform="translate(0.28 57.05)"/><path class="cls-17" d="M2321.06,156.75h0a18.68,18.68,0,0,0,18.68-18.68h0a18.68,18.68,0,0,0,18.68,18.68h0a18.68,18.68,0,0,0-18.68,18.68h0A18.68,18.68,0,0,0,2321.06,156.75Z" transform="translate(0.28 57.05)"/><path class="cls-7" d="M2186.28,337.28h0A11.27,11.27,0,0,0,2197.55,326h0a11.28,11.28,0,0,0,11.28,11.27h0a11.28,11.28,0,0,0-11.28,11.27h0A11.27,11.27,0,0,0,2186.28,337.28Z" transform="translate(0.28 57.05)"/><path class="cls-7" d="M2384.94,123.77h0a11.28,11.28,0,0,0,11.27-11.27h0a11.28,11.28,0,0,0,11.27,11.27h0A11.28,11.28,0,0,0,2396.21,135h0A11.28,11.28,0,0,0,2384.94,123.77Z" transform="translate(0.28 57.05)"/><path class="cls-7" d="M2714.49,253.68h0a11.28,11.28,0,0,0,11.27-11.28h0A11.27,11.27,0,0,0,2737,253.68h0A11.26,11.26,0,0,0,2725.76,265h0A11.27,11.27,0,0,0,2714.49,253.68Z" transform="translate(0.28 57.05)"/><path class="cls-8" d="M2221.28,628.14V580.35h10.56V621h11v7.14Z" transform="translate(0.28 57.05)"/><path class="cls-8" d="M2247.48,628.14l9-47.79h12l8.91,47.79h-9.73l-1.6-10.09h-7l-1.65,10.09Zm12.57-16.4h5.07l-2.54-18.64Z" transform="translate(0.28 57.05)"/><path class="cls-8" d="M2301.7,628.14V580.35h10.56v47.79Z" transform="translate(0.28 57.05)"/><path class="cls-8" d="M2321.76,628.14V580.35h7.43l9.8,23v-23h8.73v47.79h-7.14l-9.79-24.78v24.78Z" transform="translate(0.28 57.05)"/><path class="cls-8" d="M2357.22,628.14V580.35h12.09q6.26,0,9.74,1.57a9.2,9.2,0,0,1,4.9,4.89,22.49,22.49,0,0,1,1.41,8.65V612.8a23.06,23.06,0,0,1-1.41,8.76,9.29,9.29,0,0,1-4.87,5q-3.45,1.59-9.65,1.59Zm10.56-7.31h1.65a6.49,6.49,0,0,0,3.48-.71,3.11,3.11,0,0,0,1.33-2.13,19.26,19.26,0,0,0,.27-3.53V593.63a14.28,14.28,0,0,0-.33-3.42,2.83,2.83,0,0,0-1.39-1.89,7.27,7.27,0,0,0-3.42-.59h-1.59Z" transform="translate(0.28 57.05)"/><path class="cls-8" d="M2394.15,628.14V580.35h21.48v7.2h-10.92v11.86H2413v7.32h-8.32V621h11v7.14Z" transform="translate(0.28 57.05)"/><path class="cls-8" d="M2422.88,628.14V580.35h16A13.79,13.79,0,0,1,2446,582a9.85,9.85,0,0,1,4.13,4.72,18.58,18.58,0,0,1,1.36,7.52q0,5.55-1.83,8.46a9.51,9.51,0,0,1-5,4.05,20.84,20.84,0,0,1-7,1.12h-4.24v20.29Zm10.57-27.67H2437a5.06,5.06,0,0,0,3-.71,3.41,3.41,0,0,0,1.32-2.12,16.22,16.22,0,0,0,.33-3.6,16.88,16.88,0,0,0-.27-3.21,3.62,3.62,0,0,0-1.27-2.22,4.87,4.87,0,0,0-3.12-.82h-3.48Z" transform="translate(0.28 57.05)"/><path class="cls-8" d="M2458.46,628.14V580.35h21.48v7.2H2469v11.86h8.32v7.32H2469V621h11v7.14Z" transform="translate(0.28 57.05)"/><path class="cls-8" d="M2487.19,628.14V580.35h7.44l9.79,23v-23h8.73v47.79H2506l-9.8-24.78v24.78Z" transform="translate(0.28 57.05)"/><path class="cls-8" d="M2522.65,628.14V580.35h12.1q6.26,0,9.73,1.57a9.16,9.16,0,0,1,4.9,4.89,22.48,22.48,0,0,1,1.42,8.65V612.8a23,23,0,0,1-1.42,8.76,9.25,9.25,0,0,1-4.87,5q-3.45,1.59-9.64,1.59Zm10.56-7.31h1.66a6.51,6.51,0,0,0,3.48-.71,3.07,3.07,0,0,0,1.32-2.13,19.26,19.26,0,0,0,.27-3.53V593.63a14.9,14.9,0,0,0-.32-3.42,2.83,2.83,0,0,0-1.39-1.89,7.33,7.33,0,0,0-3.42-.59h-1.6Z" transform="translate(0.28 57.05)"/><path class="cls-8" d="M2559.59,628.14V580.35h21.47v7.2h-10.91v11.86h8.32v7.32h-8.32V621h11v7.14Z" transform="translate(0.28 57.05)"/><path class="cls-8" d="M2588.32,628.14V580.35h7.43l9.8,23v-23h8.73v47.79h-7.14l-9.79-24.78v24.78Z" transform="translate(0.28 57.05)"/><path class="cls-8" d="M2637.46,628.85c-3.61,0-6.48-.66-8.58-2a10.59,10.59,0,0,1-4.45-5.54,24.48,24.48,0,0,1-1.3-8.41V595.69a24.86,24.86,0,0,1,1.3-8.52,10.51,10.51,0,0,1,4.45-5.52c2.1-1.3,5-1.95,8.58-1.95s6.31.58,8.29,1.74a9.59,9.59,0,0,1,4.22,4.87,19.4,19.4,0,0,1,1.24,7.2v4.13h-10.32v-4.78a23.56,23.56,0,0,0-.15-2.71,4,4,0,0,0-.86-2.16,3,3,0,0,0-2.42-.85,3.11,3.11,0,0,0-2.44.88,4.23,4.23,0,0,0-1,2.21,19.36,19.36,0,0,0-.2,2.81v22.48a15.54,15.54,0,0,0,.26,2.92,4.07,4.07,0,0,0,1.06,2.12,3.18,3.18,0,0,0,2.33.8,2.93,2.93,0,0,0,2.37-.86,4.25,4.25,0,0,0,.88-2.21,21.13,21.13,0,0,0,.18-2.77v-5h10.32v4.13a20.49,20.49,0,0,1-1.21,7.29,10,10,0,0,1-4.19,5.07C2643.83,628.23,2641,628.85,2637.46,628.85Z" transform="translate(0.28 57.05)"/><path class="cls-8" d="M2659.41,628.14V580.35H2670v47.79Z" transform="translate(0.28 57.05)"/><path class="cls-8" d="M2677.17,628.14l9-47.79h12l8.91,47.79h-9.73l-1.59-10.09h-7l-1.65,10.09Zm12.57-16.4h5.07l-2.53-18.64Z" transform="translate(0.28 57.05)"/><path class="cls-8" d="M2210.81,698.94V651.15h7.44l9.79,23v-23h8.73v47.79h-7.14l-9.79-24.78v24.78Z" transform="translate(0.28 57.05)"/><path class="cls-8" d="M2260,699.65a16.4,16.4,0,0,1-8.5-1.89,10.56,10.56,0,0,1-4.48-5.43,23.43,23.43,0,0,1-1.36-8.43V666.14a23.15,23.15,0,0,1,1.36-8.44,10.43,10.43,0,0,1,4.48-5.34,16.62,16.62,0,0,1,8.5-1.86,16.86,16.86,0,0,1,8.58,1.86,10.41,10.41,0,0,1,4.52,5.34,23.37,23.37,0,0,1,1.35,8.44V683.9a23.66,23.66,0,0,1-1.35,8.43,10.54,10.54,0,0,1-4.52,5.43A16.64,16.64,0,0,1,2260,699.65Zm0-7.49a3.16,3.16,0,0,0,2.42-.83,4.16,4.16,0,0,0,1-2.12,14.62,14.62,0,0,0,.24-2.66v-23a14.36,14.36,0,0,0-.24-2.68,4.13,4.13,0,0,0-1-2.1,3.16,3.16,0,0,0-2.42-.82,3,3,0,0,0-2.3.82,4.14,4.14,0,0,0-1,2.1,15.28,15.28,0,0,0-.23,2.68v23a16.65,16.65,0,0,0,.21,2.66,4,4,0,0,0,.94,2.12A3.06,3.06,0,0,0,2260,692.16Z" transform="translate(0.28 57.05)"/><path class="cls-8" d="M2300.67,698.94V651.15h20.65v7.14h-10.09v12H2320v7.37h-8.79v21.24Z" transform="translate(0.28 57.05)"/><path class="cls-8" d="M2342.44,699.65q-5.49,0-8.58-1.8a9.6,9.6,0,0,1-4.34-5.25,25.12,25.12,0,0,1-1.24-8.47v-33h10.44v34.58a18.43,18.43,0,0,0,.24,2.95,4.91,4.91,0,0,0,1,2.42,3.7,3.7,0,0,0,4.93,0,4.86,4.86,0,0,0,1-2.42,21,21,0,0,0,.21-2.95V651.15h10.5v33a24.57,24.57,0,0,1-1.27,8.47,9.8,9.8,0,0,1-4.33,5.25Q2347.92,699.65,2342.44,699.65Z" transform="translate(0.28 57.05)"/><path class="cls-8" d="M2365.69,698.94V651.15h21.47v7.2h-10.91v11.86h8.32v7.32h-8.32V691.8h11v7.14Z" transform="translate(0.28 57.05)"/><path class="cls-8" d="M2411.88,698.94V651.15H2425a29.65,29.65,0,0,1,8.38,1.06,10.13,10.13,0,0,1,5.51,3.81q2,2.75,2,7.76a26.59,26.59,0,0,1-.47,5.25,9.93,9.93,0,0,1-1.74,4,9.57,9.57,0,0,1-3.63,2.8l6.55,23.13H2430.7l-5.25-21.41h-3v21.41Zm10.56-27.49h2.95a6.4,6.4,0,0,0,3.48-.8,4.19,4.19,0,0,0,1.74-2.3,11.35,11.35,0,0,0,.51-3.63,8.75,8.75,0,0,0-1.12-4.78c-.75-1.14-2.13-1.71-4.13-1.71h-3.43Z" transform="translate(0.28 57.05)"/><path class="cls-8" d="M2449.41,698.94V651.15h21.47v7.2H2460v11.86h8.32v7.32H2460V691.8h11v7.14Z" transform="translate(0.28 57.05)"/><path class="cls-8" d="M2475.84,698.94l9-47.79h12l8.91,47.79h-9.74l-1.59-10.09h-7l-1.65,10.09Zm12.56-16.4h5.08l-2.54-18.64Z" transform="translate(0.28 57.05)"/><path class="cls-8" d="M2512.54,698.94V651.15h10.56V691.8h11v7.14Z" transform="translate(0.28 57.05)"/><path class="cls-8" d="M2558.2,698.94V651.15h10.56V670.5h7.38V651.15h10.62v47.79h-10.62V678.06h-7.38v20.88Z" transform="translate(0.28 57.05)"/><path class="cls-8" d="M2594.07,698.94l9-47.79h12l8.91,47.79h-9.73l-1.59-10.09h-7L2604,698.94Zm12.57-16.4h5.07l-2.53-18.64Z" transform="translate(0.28 57.05)"/><path class="cls-8" d="M2643.45,699.65a15.91,15.91,0,0,1-7.49-1.59,10.22,10.22,0,0,1-4.54-4.93,22.71,22.71,0,0,1-1.71-8.64l9-1.36a21.83,21.83,0,0,0,.56,5,5.51,5.51,0,0,0,1.42,2.71,3.19,3.19,0,0,0,2.21.83,2.13,2.13,0,0,0,2.16-1.12,5.81,5.81,0,0,0,.5-2.36,8.49,8.49,0,0,0-1.42-5,22,22,0,0,0-3.83-4.1l-4.13-3.6a22.63,22.63,0,0,1-4.57-5.22,13.22,13.22,0,0,1-1.86-7.23q0-6.07,3.6-9.29t9.79-3.22a12.73,12.73,0,0,1,6.17,1.3,9.18,9.18,0,0,1,3.54,3.39,14.4,14.4,0,0,1,1.65,4.43,28.73,28.73,0,0,1,.5,4.45l-9.09,1.12c0-1.41-.13-2.64-.26-3.68a5.09,5.09,0,0,0-.86-2.42,2.35,2.35,0,0,0-2-.86,2.29,2.29,0,0,0-2.16,1.24A5.15,5.15,0,0,0,2640,662a7.05,7.05,0,0,0,1.27,4.34,24.79,24.79,0,0,0,3.34,3.51l4,3.48a27.12,27.12,0,0,1,5.28,6,15.2,15.2,0,0,1,2.15,8.32,12.32,12.32,0,0,1-1.53,6.11,11.18,11.18,0,0,1-4.34,4.34A13.24,13.24,0,0,1,2643.45,699.65Z" transform="translate(0.28 57.05)"/><path class="cls-8" d="M2667.76,698.94V659h-7.2v-7.85h25V659h-7.14v39.94Z" transform="translate(0.28 57.05)"/><path class="cls-8" d="M2687.65,698.94l9-47.79h12l8.91,47.79h-9.74l-1.59-10.09h-7l-1.65,10.09Zm12.56-16.4h5.08l-2.54-18.64Z" transform="translate(0.28 57.05)"/><path class="cls-8" d="M2275.3,769.74V722h10.56V762.6h11v7.14Z" transform="translate(0.28 57.05)"/><path class="cls-8" d="M2301.49,769.74l9-47.79h12l8.91,47.79h-9.74l-1.59-10.09h-7l-1.66,10.09Zm12.57-16.4h5.07l-2.53-18.64Z" transform="translate(0.28 57.05)"/><path class="cls-8" d="M2355.66,769.74V722h12.44a34.82,34.82,0,0,1,5.82.47,13.46,13.46,0,0,1,4.86,1.8,9.13,9.13,0,0,1,3.34,3.78,14.77,14.77,0,0,1,1.21,6.46,12.27,12.27,0,0,1-.86,4.87,7.62,7.62,0,0,1-2.42,3.15,8.86,8.86,0,0,1-3.74,1.6,9.4,9.4,0,0,1,4.66,1.8,9,9,0,0,1,2.86,3.86,15.62,15.62,0,0,1,1,5.84,18.78,18.78,0,0,1-1,6.4,11.18,11.18,0,0,1-2.8,4.4,11.43,11.43,0,0,1-4.52,2.54,21,21,0,0,1-6.16.82Zm10.56-28.67h2.06a7.31,7.31,0,0,0,3.66-.74,3.66,3.66,0,0,0,1.68-2.15,11.48,11.48,0,0,0,.44-3.43,6.55,6.55,0,0,0-.68-3.15,4.38,4.38,0,0,0-2-1.92A7.65,7.65,0,0,0,2368,729h-1.82Zm0,21.3h2.24q3.48,0,4.81-1.77a8.6,8.6,0,0,0,1.32-5.19,12.58,12.58,0,0,0-.59-4.31,4.19,4.19,0,0,0-1.94-2.33,7.74,7.74,0,0,0-3.66-.74h-2.18Z" transform="translate(0.28 57.05)"/><path class="cls-8" d="M2390.29,769.74l9-47.79h12l8.91,47.79h-9.74l-1.59-10.09h-7l-1.65,10.09Zm12.56-16.4h5.08l-2.54-18.64Z" transform="translate(0.28 57.05)"/><path class="cls-8" d="M2429.23,769.74V729.8H2422V722h25v7.85h-7.14v39.94Z" transform="translate(0.28 57.05)"/><path class="cls-8" d="M2449.11,769.74l9-47.79h12l8.91,47.79h-9.73l-1.6-10.09h-7l-1.65,10.09Zm12.57-16.4h5.07l-2.54-18.64Z" transform="translate(0.28 57.05)"/><path class="cls-8" d="M2485.81,769.74V722h10.56V762.6h11v7.14Z" transform="translate(0.28 57.05)"/><path class="cls-8" d="M2513.83,769.74V722h10.56V762.6h11v7.14Z" transform="translate(0.28 57.05)"/><path class="cls-8" d="M2540,769.74l9-47.79h12l8.91,47.79h-9.73l-1.6-10.09h-7L2550,769.74Zm12.57-16.4h5.07l-2.54-18.64Z" transform="translate(0.28 57.05)"/><path class="cls-8" d="M2594.19,769.74V722h12.1c4.16,0,7.41.52,9.73,1.57a9.2,9.2,0,0,1,4.9,4.89,22.49,22.49,0,0,1,1.41,8.65V754.4a23.06,23.06,0,0,1-1.41,8.76,9.29,9.29,0,0,1-4.87,5q-3.45,1.59-9.65,1.59Zm10.56-7.31h1.65a6.46,6.46,0,0,0,3.48-.71,3.08,3.08,0,0,0,1.33-2.13,19.31,19.31,0,0,0,.27-3.54V735.23a14.28,14.28,0,0,0-.33-3.42,2.81,2.81,0,0,0-1.38-1.89,7.35,7.35,0,0,0-3.43-.59h-1.59Z" transform="translate(0.28 57.05)"/><path class="cls-8" d="M2631.13,769.74V722h21.47v7.2h-10.91V741H2650v7.32h-8.31V762.6h11v7.14Z" transform="translate(0.28 57.05)"/><path class="cls-8" d="M2325.68,840.54l9-47.79h12l8.91,47.79h-9.74l-1.59-10.09h-7l-1.66,10.09Zm12.57-16.4h5.07l-2.53-18.64Z" transform="translate(0.28 57.05)"/><path class="cls-8" d="M2366.51,840.54V821l-9.09-28.26h10l4.54,15.11,4.07-15.11h9.56L2376.66,821v19.53Z" transform="translate(0.28 57.05)"/><path class="cls-8" d="M2387.28,840.54l9-47.79h12l8.91,47.79h-9.73l-1.6-10.09h-7l-1.65,10.09Zm12.57-16.4h5.07l-2.54-18.64Z" transform="translate(0.28 57.05)"/><path class="cls-8" d="M2437.37,841.25q-5.43,0-8.58-2a10.61,10.61,0,0,1-4.46-5.54,24.73,24.73,0,0,1-1.3-8.41V808.09a25.11,25.11,0,0,1,1.3-8.52,10.52,10.52,0,0,1,4.46-5.52q3.15-1.95,8.58-1.95t8.29,1.74a9.63,9.63,0,0,1,4.22,4.87,19.4,19.4,0,0,1,1.24,7.2V810h-10.33v-4.78a26.12,26.12,0,0,0-.14-2.71,4,4,0,0,0-.86-2.16,3,3,0,0,0-2.42-.85,3.13,3.13,0,0,0-2.45.88,4.21,4.21,0,0,0-1,2.22,17.88,17.88,0,0,0-.21,2.8v22.48a14.72,14.72,0,0,0,.27,2.92A4.07,4.07,0,0,0,2435,833a3.16,3.16,0,0,0,2.33.8,2.9,2.9,0,0,0,2.36-.86,4.26,4.26,0,0,0,.89-2.21,22.89,22.89,0,0,0,.17-2.77v-5h10.33V827a20.75,20.75,0,0,1-1.21,7.29,10,10,0,0,1-4.19,5.07Q2442.74,841.25,2437.37,841.25Z" transform="translate(0.28 57.05)"/><path class="cls-8" d="M2473.07,841.25q-5.49,0-8.59-1.8a9.69,9.69,0,0,1-4.34-5.25,25.39,25.39,0,0,1-1.23-8.47v-33h10.44v34.58a19.64,19.64,0,0,0,.23,2.95,4.91,4.91,0,0,0,1,2.42,3.69,3.69,0,0,0,4.92,0,4.87,4.87,0,0,0,1-2.42,22.61,22.61,0,0,0,.2-2.95V792.75h10.51v33a24.82,24.82,0,0,1-1.27,8.47,9.82,9.82,0,0,1-4.34,5.25C2479.58,840.65,2476.72,841.25,2473.07,841.25Z" transform="translate(0.28 57.05)"/><path class="cls-8" d="M2510,841.25q-5.43,0-8.58-2a10.61,10.61,0,0,1-4.46-5.54,24.48,24.48,0,0,1-1.3-8.41V808.09a24.86,24.86,0,0,1,1.3-8.52,10.52,10.52,0,0,1,4.46-5.52q3.15-1.95,8.58-1.95t8.29,1.74a9.68,9.68,0,0,1,4.22,4.87,19.61,19.61,0,0,1,1.24,7.2V810h-10.33v-4.78a23.56,23.56,0,0,0-.15-2.71,4,4,0,0,0-.85-2.16,3,3,0,0,0-2.42-.85,3.13,3.13,0,0,0-2.45.88,4.21,4.21,0,0,0-1,2.22,17.88,17.88,0,0,0-.21,2.8v22.48a14.72,14.72,0,0,0,.27,2.92,4,4,0,0,0,1.06,2.12,3.16,3.16,0,0,0,2.33.8,2.9,2.9,0,0,0,2.36-.86,4.17,4.17,0,0,0,.88-2.21,21,21,0,0,0,.18-2.77v-5h10.33V827a20.75,20.75,0,0,1-1.21,7.29,10.05,10.05,0,0,1-4.19,5.07Q2515.37,841.25,2510,841.25Z" transform="translate(0.28 57.05)"/><path class="cls-8" d="M2532.06,840.54V792.75h10.57V812.1H2550V792.75h10.62v47.79H2550V819.66h-7.37v20.88Z" transform="translate(0.28 57.05)"/><path class="cls-8" d="M2583.92,841.25a16.36,16.36,0,0,1-8.49-1.89,10.51,10.51,0,0,1-4.48-5.43,23.39,23.39,0,0,1-1.36-8.43V807.74a23.15,23.15,0,0,1,1.36-8.44,10.39,10.39,0,0,1,4.48-5.34,16.58,16.58,0,0,1,8.49-1.86,16.9,16.9,0,0,1,8.59,1.86,10.39,10.39,0,0,1,4.51,5.34,23.15,23.15,0,0,1,1.36,8.44V825.5a23.39,23.39,0,0,1-1.36,8.43,10.52,10.52,0,0,1-4.51,5.43C2590.41,840.62,2587.54,841.25,2583.92,841.25Zm0-7.49a3.15,3.15,0,0,0,2.42-.83,4.09,4.09,0,0,0,1-2.12,15.57,15.57,0,0,0,.23-2.66v-23a15.28,15.28,0,0,0-.23-2.68,4.1,4.1,0,0,0-1-2.1,3.15,3.15,0,0,0-2.42-.82,3,3,0,0,0-2.3.82,4.17,4.17,0,0,0-1,2.1,14.38,14.38,0,0,0-.23,2.68v23a16.66,16.66,0,0,0,.2,2.66,4,4,0,0,0,.95,2.12A3,3,0,0,0,2583.92,833.76Z" transform="translate(0.28 57.05)"/><path class="cls-8" d="M2055.43,1061.86l11-58.32h14.69l10.87,58.32h-11.88l-1.94-12.31h-8.57l-2,12.31Zm15.33-20h6.2l-3.1-22.75Z" transform="translate(0.28 57.05)"/><path class="cls-8" d="M2100.21,1061.86v-58.32h19.58a16.9,16.9,0,0,1,8.64,2,12.05,12.05,0,0,1,5,5.76,22.72,22.72,0,0,1,1.66,9.18q0,6.76-2.23,10.33a11.6,11.6,0,0,1-6.05,4.93,25.3,25.3,0,0,1-8.57,1.37h-5.18v24.77Zm12.89-33.77h4.32a6.29,6.29,0,0,0,3.6-.86,4.22,4.22,0,0,0,1.62-2.6,20.41,20.41,0,0,0,.39-4.39,20.7,20.7,0,0,0-.32-3.92,4.45,4.45,0,0,0-1.55-2.7,5.94,5.94,0,0,0-3.81-1h-4.25Z" transform="translate(0.28 57.05)"/><path class="cls-8" d="M2143.63,1061.86v-58.32h16a36,36,0,0,1,10.23,1.29,12.45,12.45,0,0,1,6.73,4.65q2.42,3.35,2.41,9.47a32.31,32.31,0,0,1-.57,6.4,11.94,11.94,0,0,1-2.13,4.86,11.63,11.63,0,0,1-4.43,3.42l8,28.23H2166.6l-6.41-26.14h-3.67v26.14Zm12.89-33.55h3.6a7.78,7.78,0,0,0,4.24-1,5.13,5.13,0,0,0,2.13-2.8,14.36,14.36,0,0,0,.61-4.43,10.58,10.58,0,0,0-1.37-5.83c-.91-1.4-2.59-2.09-5-2.09h-4.17Z" transform="translate(0.28 57.05)"/><path class="cls-8" d="M2189.42,1061.86v-58.32h26.21v8.78h-13.32v14.47h10.15v8.93h-10.15v17.43h13.46v8.71Z" transform="translate(0.28 57.05)"/><path class="cls-8" d="M2224.48,1061.86v-58.32h9.07l12,28.08v-28.08h10.65v58.32h-8.71l-11.95-30.24v30.24Z" transform="translate(0.28 57.05)"/><path class="cls-8" d="M2267.75,1061.86v-58.32h14.76q7.63,0,11.88,1.91a11.17,11.17,0,0,1,6,6,27.31,27.31,0,0,1,1.73,10.55v21.17a28.07,28.07,0,0,1-1.73,10.69,11.29,11.29,0,0,1-5.94,6.08q-4.21,2-11.77,1.95Zm12.89-8.93h2a8,8,0,0,0,4.25-.86,3.84,3.84,0,0,0,1.62-2.6,24.61,24.61,0,0,0,.32-4.32v-25.41a17.5,17.5,0,0,0-.4-4.18,3.43,3.43,0,0,0-1.69-2.3,9,9,0,0,0-4.17-.72h-2Z" transform="translate(0.28 57.05)"/><path class="cls-8" d="M2312.83,1061.86v-58.32H2339v8.78h-13.32v14.47h10.16v8.93h-10.16v17.43h13.47v8.71Z" transform="translate(0.28 57.05)"/><path class="cls-8" d="M2369,1061.86l1-58.32h13.83l6.4,33.91,6.92-33.91h13.32l1,58.32h-9.14l-1.08-38.81-6.77,38.81h-8.13l-7.2-39.1-.87,39.1Z" transform="translate(0.28 57.05)"/><path class="cls-8" d="M2420,1061.86l11-58.32h14.68l10.88,58.32h-11.88l-1.95-12.31h-8.57l-2,12.31Zm14.47-62.93,4.54-14.47h12l-9.07,14.47Zm.87,42.91h6.19l-3.1-22.75Z" transform="translate(0.28 57.05)"/><path class="cls-8" d="M2480.22,1062.72a19.47,19.47,0,0,1-9.14-1.94,12.41,12.41,0,0,1-5.54-6,27.57,27.57,0,0,1-2.09-10.55l11-1.66a26.25,26.25,0,0,0,.69,6,6.56,6.56,0,0,0,1.73,3.31,3.88,3.88,0,0,0,2.7,1,2.56,2.56,0,0,0,2.62-1.37,6.94,6.94,0,0,0,.62-2.88,10.38,10.38,0,0,0-1.73-6.08,26.76,26.76,0,0,0-4.68-5l-5-4.39a27.87,27.87,0,0,1-5.58-6.37,16.15,16.15,0,0,1-2.27-8.82q0-7.41,4.39-11.34t12-3.92a15.43,15.43,0,0,1,7.53,1.58,11.2,11.2,0,0,1,4.32,4.14,17.13,17.13,0,0,1,2,5.4,34.63,34.63,0,0,1,.62,5.44l-11.09,1.36a44.49,44.49,0,0,0-.33-4.5,6.2,6.2,0,0,0-1-2.95,2.89,2.89,0,0,0-2.45-1,2.79,2.79,0,0,0-2.63,1.51,6.27,6.27,0,0,0-.82,3,8.59,8.59,0,0,0,1.54,5.3,31,31,0,0,0,4.07,4.28l4.83,4.25a33,33,0,0,1,6.44,7.34,18.48,18.48,0,0,1,2.63,10.15,15.13,15.13,0,0,1-1.87,7.46,13.75,13.75,0,0,1-5.3,5.29A16.18,16.18,0,0,1,2480.22,1062.72Z" transform="translate(0.28 57.05)"/><path class="cls-8" d="M2524.79,1061.86v-58.32H2551v8.78h-13.32v14.47h10.15v8.93h-10.15v17.43h13.46v8.71Z" transform="translate(0.28 57.05)"/><path class="cls-8" d="M2559.86,1061.86v-58.32h9.07l12,28.08v-28.08h10.66v58.32h-8.72l-12-30.24v30.24Z" transform="translate(0.28 57.05)"/><path class="cls-8" d="M2624.44,1061.86v-58.32h9.07l11.95,28.08v-28.08h10.66v58.32h-8.71l-12-30.24v30.24Z" transform="translate(0.28 57.05)"/><path class="cls-8" d="M2684.56,1062.72q-6.7,0-10.48-2.19a11.79,11.79,0,0,1-5.29-6.41,30.74,30.74,0,0,1-1.51-10.33v-40.25H2680v42.19a23,23,0,0,0,.29,3.6,5.89,5.89,0,0,0,1.26,3,4.5,4.5,0,0,0,6,0,5.84,5.84,0,0,0,1.19-3,25.63,25.63,0,0,0,.25-3.6v-42.19h12.82v40.25a30.17,30.17,0,0,1-1.55,10.33,12,12,0,0,1-5.29,6.41Q2691.25,1062.72,2684.56,1062.72Z" transform="translate(0.28 57.05)"/><path class="cls-8" d="M2712.93,1061.86v-58.32h26.2v8.78h-13.32v14.47H2736v8.93h-10.16v17.43h13.47v8.71Z" transform="translate(0.28 57.05)"/><path class="cls-8" d="M2763.47,1062.72a19.42,19.42,0,0,1-9.14-1.94,12.48,12.48,0,0,1-5.55-6,27.76,27.76,0,0,1-2.09-10.55l11-1.66a26.32,26.32,0,0,0,.68,6,6.72,6.72,0,0,0,1.73,3.31,3.88,3.88,0,0,0,2.7,1,2.58,2.58,0,0,0,2.63-1.37,6.93,6.93,0,0,0,.61-2.88,10.31,10.31,0,0,0-1.73-6.08,26.76,26.76,0,0,0-4.68-5l-5-4.39a27.87,27.87,0,0,1-5.58-6.37,16.15,16.15,0,0,1-2.27-8.82q0-7.41,4.4-11.34t12-3.92a15.36,15.36,0,0,1,7.52,1.58,11.06,11.06,0,0,1,4.32,4.14,16.91,16.91,0,0,1,2,5.4,34.57,34.57,0,0,1,.61,5.44l-11.09,1.36a44.75,44.75,0,0,0-.32-4.5,6.31,6.31,0,0,0-1-2.95,2.9,2.9,0,0,0-2.45-1,2.78,2.78,0,0,0-2.63,1.51,6.29,6.29,0,0,0-.83,3,8.59,8.59,0,0,0,1.55,5.3,30.41,30.41,0,0,0,4.07,4.28l4.82,4.25a33,33,0,0,1,6.44,7.34,18.4,18.4,0,0,1,2.63,10.15,15,15,0,0,1-1.87,7.46,13.72,13.72,0,0,1-5.29,5.29A16.18,16.18,0,0,1,2763.47,1062.72Z" transform="translate(0.28 57.05)"/><path class="cls-8" d="M2793.13,1061.86v-48.75h-8.78v-9.57h30.45v9.57h-8.71v48.75Z" transform="translate(0.28 57.05)"/><path class="cls-8" d="M2822.8,1061.86v-58.32h16a36,36,0,0,1,10.23,1.29,12.45,12.45,0,0,1,6.73,4.65q2.42,3.35,2.41,9.47a31.53,31.53,0,0,1-.58,6.4,11.8,11.8,0,0,1-2.12,4.86,11.63,11.63,0,0,1-4.43,3.42l8,28.23h-13.32l-6.4-26.14h-3.68v26.14Zm12.88-33.55h3.6a7.81,7.81,0,0,0,4.25-1,5.13,5.13,0,0,0,2.13-2.8,14.36,14.36,0,0,0,.61-4.43,10.58,10.58,0,0,0-1.37-5.83c-.91-1.4-2.59-2.09-5-2.09h-4.18Z" transform="translate(0.28 57.05)"/><path class="cls-8" d="M2885,1062.72q-6.55,0-10.36-2.3a12.93,12.93,0,0,1-5.48-6.63,28.84,28.84,0,0,1-1.65-10.29v-21.67a28.48,28.48,0,0,1,1.65-10.3,12.79,12.79,0,0,1,5.48-6.52q3.81-2.26,10.36-2.26t10.48,2.26a12.76,12.76,0,0,1,5.51,6.52,28.48,28.48,0,0,1,1.65,10.3v21.67a28.84,28.84,0,0,1-1.65,10.29,12.89,12.89,0,0,1-5.51,6.63Q2891.63,1062.72,2885,1062.72Zm0-9.14a3.88,3.88,0,0,0,3-1,5.05,5.05,0,0,0,1.22-2.59,18.33,18.33,0,0,0,.29-3.24v-28.08a18.11,18.11,0,0,0-.29-3.28,5,5,0,0,0-1.22-2.55,3.84,3.84,0,0,0-3-1,3.59,3.59,0,0,0-2.8,1,4.93,4.93,0,0,0-1.23,2.55,18.11,18.11,0,0,0-.29,3.28v28.08a20.43,20.43,0,0,0,.26,3.24,4.91,4.91,0,0,0,1.15,2.59A3.73,3.73,0,0,0,2885,1053.58Z" transform="translate(0.28 57.05)"/><path class="cls-8" d="M2912.36,1061.86v-11.09h11.09v11.09Z" transform="translate(0.28 57.05)"/><path class="cls-8" d="M2932.81,1061.86v-11.09h11.09v11.09Z" transform="translate(0.28 57.05)"/><path class="cls-8" d="M2953.26,1061.86v-11.09h11.09v11.09Z" transform="translate(0.28 57.05)"/></g></g></svg>