<svg xmlns="http://www.w3.org/2000/svg" viewBox="0 0 684 424"><defs><style>.cls-1{fill:#fff;}.cls-2{fill:none;stroke:#fff;stroke-miterlimit:10;stroke-width:5px;}</style></defs><g id="Capa_2" data-name="Capa 2"><g id="Capa_2-2" data-name="Capa 2"><polygon class="cls-1" points="58.24 129.48 54 121.92 58.24 114.36 66.71 114.36 70.95 121.92 66.71 129.48 58.24 129.48"/><polygon class="cls-1" points="66.89 152.42 62.66 144.86 66.89 137.3 75.37 137.3 79.61 144.86 75.37 152.42 66.89 152.42"/><polygon class="cls-1" points="82.97 129.48 78.74 121.92 82.97 114.36 91.45 114.36 95.69 121.92 91.45 129.48 82.97 129.48"/><polygon class="cls-1" points="100.29 146.05 96.05 138.49 100.29 130.93 108.76 130.93 113 138.49 108.76 146.05 100.29 146.05"/><polygon class="cls-1" points="92.87 168.98 88.63 161.42 92.87 153.86 101.34 153.86 105.58 161.42 101.34 168.98 92.87 168.98"/><polygon class="cls-1" points="118.84 171.53 114.61 163.97 118.84 156.41 127.32 156.41 131.55 163.97 127.32 171.53 118.84 171.53"/><polygon class="cls-1" points="132.45 152.42 128.21 144.86 132.45 137.3 140.92 137.3 145.16 144.86 140.92 152.42 132.45 152.42"/><polygon class="cls-1" points="134.47 132.12 128.03 121.33 134.47 110.54 147.37 110.54 153.82 121.33 147.37 132.12 134.47 132.12"/><polygon class="cls-1" points="140.66 176.71 134.21 165.93 140.66 155.14 153.55 155.14 160 165.93 153.55 176.71 140.66 176.71"/><polygon class="cls-1" points="113.89 124.39 109.66 116.83 113.89 109.26 122.37 109.26 126.61 116.83 122.37 124.39 113.89 124.39"/><path class="cls-1" d="M296.16,179.57a133.85,133.85,0,0,0-41.38-48.65,117.15,117.15,0,0,0-40.73-19.15c-10.7-2.74-40-2.17-59.06-2.44l7.21,12.59-1.29,2.25.21.34-7.62,12.7h-4.63s0,.09,0,.09l4.37,7.56-4.11,7.1v.54h12.28l7.34,12.11-7.34,12.1c31.44-2.59,61.54,5.51,76.61,35.72,14.13,28.32,5.51,58.59-15,80.88-11.5,12.51-28.33,18.49-45,19.81-3.55.28-41.89-.53-41.9-.7L134.93,213l-63.24-.64L70.91,377H184.46a135.08,135.08,0,0,0,45.46-7.5A108.6,108.6,0,0,0,266.65,348a133.54,133.54,0,0,0,32.94-47.12A151,151,0,0,0,311,242,136.72,136.72,0,0,0,296.16,179.57Z"/><rect class="cls-2" x="2.5" y="2.5" width="679" height="419" rx="45.54"/><rect class="cls-1" x="43" y="36" width="600" height="43" rx="18.34"/><line class="cls-2" x1="342" y1="388" x2="342" y2="100"/><line class="cls-2" x1="643.5" y1="124.5" x2="369" y2="124.5"/><line class="cls-2" x1="643.5" y1="155.5" x2="369" y2="155.5"/><line class="cls-2" x1="643.5" y1="186.5" x2="369" y2="186.5"/><line class="cls-2" x1="643.5" y1="217.5" x2="369" y2="217.5"/><rect class="cls-2" x="369.5" y="243.5" width="274" height="144" rx="17.22"/></g></g></svg>