<svg xmlns="http://www.w3.org/2000/svg" xmlns:xlink="http://www.w3.org/1999/xlink" viewBox="0 0 353.08 315.12"><defs><style>.cls-1{fill:#141e42;}.cls-2{font-size:33.24px;fill:#6bb205;font-family:Brussels;}.cls-3{fill:#5dae00;}.cls-4{fill:none;stroke:#141e42;stroke-miterlimit:10;stroke-width:3px;}</style></defs><g id="Capa_2" data-name="Capa 2"><g id="Capa_1-2" data-name="Capa 1"><polygon class="cls-1" points="296.06 268.53 296.06 245.69 289.78 245.69 289.78 238.13 311.13 238.13 311.13 245.69 304.6 245.69 304.6 268.53 296.06 268.53"/><rect class="cls-1" x="313.39" y="238.14" width="9.29" height="30.39"/><path class="cls-1" d="M340.32,268.53a13.65,13.65,0,0,1-7.82-2.09,12.61,12.61,0,0,1-4.58-5.84,20.43,20.43,0,0,1-1.46-7.72,17.85,17.85,0,0,1,1.68-7.95,12.56,12.56,0,0,1,5.05-5.44,14.39,14.39,0,0,1,7.18-1.86,13.11,13.11,0,0,1,7.66,2.43c4.8,3.35,4.55,9.88,4.55,9.88l-8,.25s-.25-5.53-4-5.53c-3.59,0-4.52,6-4.52,7.79,0,2.76.5,9.3,4.27,9.3,4,0,4.52-5,4.52-5l8.29.08-.37,1.52a13.64,13.64,0,0,1-4.39,7.5A12.24,12.24,0,0,1,340.32,268.53Z"/><polygon class="cls-1" points="208.96 220.45 208.14 218.98 208.96 217.52 210.59 217.52 211.41 218.98 210.59 220.45 208.96 220.45"/><polygon class="cls-1" points="210.63 224.9 209.81 223.43 210.63 221.96 212.26 221.96 213.07 223.43 212.26 224.9 210.63 224.9"/><polygon class="cls-1" points="213.72 220.45 212.91 218.98 213.72 217.52 215.36 217.52 216.18 218.98 215.36 220.45 213.72 220.45"/><polygon class="cls-1" points="217.06 223.66 216.25 222.19 217.06 220.73 218.7 220.73 219.51 222.19 218.7 223.66 217.06 223.66"/><polygon class="cls-1" points="215.63 228.11 214.81 226.64 215.63 225.18 217.27 225.18 218.08 226.64 217.27 228.11 215.63 228.11"/><polygon class="cls-1" points="220.64 228.6 219.82 227.13 220.64 225.67 222.27 225.67 223.09 227.13 222.27 228.6 220.64 228.6"/><polygon class="cls-1" points="223.26 224.9 222.45 223.43 223.26 221.96 224.9 221.96 225.71 223.43 224.9 224.9 223.26 224.9"/><polygon class="cls-1" points="223.65 220.96 222.41 218.87 223.65 216.78 226.14 216.78 227.38 218.87 226.14 220.96 223.65 220.96"/><polygon class="cls-1" points="224.85 229.6 223.6 227.51 224.85 225.42 227.33 225.42 228.58 227.51 227.33 229.6 224.85 229.6"/><polygon class="cls-1" points="219.69 219.46 218.87 217.99 219.69 216.53 221.32 216.53 222.14 217.99 221.32 219.46 219.69 219.46"/><path class="cls-1" d="M254.51,230.16a25.82,25.82,0,0,0-8-9.43,22.48,22.48,0,0,0-7.85-3.72c-2.06-.53-7.7-.42-11.39-.47l1.4,2.44-.25.44,0,.06L227,222h-.89l.84,1.47-.79,1.38v.1h2.37l1.41,2.35-1.41,2.35c6.06-.51,11.86,1.06,14.77,6.92,2.72,5.49,1.06,11.36-2.89,15.68a13,13,0,0,1-8.67,3.84c-.68.05-8.08-.1-8.08-.14l-.24-19.26-12.2-.13-.15,31.91H233a25.89,25.89,0,0,0,8.76-1.45,21,21,0,0,0,7.08-4.16,25.82,25.82,0,0,0,6.35-9.14,29.34,29.34,0,0,0,2.2-11.42A26.57,26.57,0,0,0,254.51,230.16Z"/><path class="cls-1" d="M275.27,268.28c-2.83,0-5.46-.27-7.34-1.29a9,9,0,0,1-4.15-4.57c-.76-1.83-.88-4.45-.88-7.49v-17h8.78v17a13.59,13.59,0,0,0,.54,4.58,3.67,3.67,0,0,0,2.74,2c2,0,2.84-.09,3.56-.85.46-.49,1.22-1.88,1.22-5.73v-17h7.78v17c0,2.88-.08,5.64-.75,7.4a9.47,9.47,0,0,1-4,4.66C280.92,268.18,278.22,268.28,275.27,268.28Z"/><text class="cls-2" transform="translate(79.2 302.82)">Ecoeficiente</text><path class="cls-3" d="M287.35,273.47c0,1.36-6.19,6.68-11.37,9.13s-13.6,3-18.94,7.67c-4.56,4-3.5,9.51-3.37,12.61A27.83,27.83,0,0,0,265,301.74c5.35-1.94,10.78-8.13,12.28-10.11.28-.45.43-.68.39-.59a3.75,3.75,0,0,1-.39.59c-1.41,2.19-6.38,9.72-11.83,11.47a36.32,36.32,0,0,1-11.69,1.36c-8.47,0-15.08,7.39-14.54,10.15a.63.63,0,0,0,1.16.21c5.69-9.14,11.31-8.62,14.07-8.25,3.64.5,10.89,6.13,23-5S287.35,272.11,287.35,273.47Z"/><text/><line class="cls-4" x1="198.77" y1="215.97" x2="198.36" y2="269.08"/><image width="1517" height="509" transform="translate(0 211.04) scale(0.12)" xlink:href="../../../../../Downloads/LOGO_UNSA.png"/><image width="2000" height="2000" transform="translate(66.12) scale(0.12)" xlink:href="../../../../../Downloads/Ride%20a%20bicycle-rafiki.png"/></g></g></svg>