<?xml version="1.0" encoding="utf-8"?>
<!-- Generator: Adobe Illustrator 25.1.0, SVG Export Plug-In . SVG Version: 6.00 Build 0)  -->
<svg version="1.1" id="Capa_1" xmlns="http://www.w3.org/2000/svg" xmlns:xlink="http://www.w3.org/1999/xlink" x="0px" y="0px"
	 viewBox="0 0 800 800" style="enable-background:new 0 0 800 800;" xml:space="preserve">
<style type="text/css">
	.st0{fill:#D2D3D5;}
	.st1{fill:#1C2140;}
</style>
<path class="st0" d="M400,50C206.7,50,50,206.7,50,400s156.7,350,350,350s350-156.7,350-350S593.3,50,400,50z M399.62,724.91
	c-179.49,0-325-145.51-325-325c0-179.5,145.51-325,325-325c179.5,0,325,145.5,325,325C724.62,579.4,579.12,724.91,399.62,724.91z"/>
<circle class="st0" cx="400" cy="400" r="125"/>
<g>
	<g>
		<path class="st1" d="M412.79,421.82h-0.72c-2.56,0-4.64-2.08-4.64-4.64v-50.72c0-2.56,2.08-4.64,4.64-4.64h0.72
			c2.56,0,4.64,2.08,4.64,4.64v50.72C417.43,419.75,415.35,421.82,412.79,421.82z"/>
		<path class="st1" d="M436.24,377.14l-8.66,5c-1.2,0.69-2.72,0.28-3.42-0.92v0c-0.69-1.2-0.28-2.72,0.92-3.42l8.66-5
			c1.2-0.69,2.72-0.28,3.42,0.92v0C437.85,374.92,437.44,376.45,436.24,377.14z"/>
		<path class="st1" d="M441.48,395.32h-10c-1.38,0-2.5-1.12-2.5-2.5v0c0-1.38,1.12-2.5,2.5-2.5h10c1.38,0,2.5,1.12,2.5,2.5v0
			C443.98,394.21,442.86,395.32,441.48,395.32z"/>
		<path class="st1" d="M433.74,412.84l-8.66-5c-1.2-0.69-1.61-2.22-0.92-3.42v0c0.69-1.2,2.22-1.61,3.42-0.92l8.66,5
			c1.2,0.69,1.61,2.22,0.92,3.42v0C436.47,413.12,434.94,413.53,433.74,412.84z"/>
		<path class="st1" d="M369.38,438.18L369.38,438.18c-2.76,0-5-2.24-5-5v-22.97c0-1.12,0.91-2.03,2.03-2.03h6.27
			c0.94,0,1.7,0.76,1.7,1.7v23.3C374.38,435.94,372.14,438.18,369.38,438.18z"/>
		<path class="st1" d="M380.55,406.18h-16.97c-4.17,0-7.56-3.38-7.56-7.56v-11.6c0-4.17,3.38-7.56,7.56-7.56h16.97
			c1.21,0,2.19,0.98,2.19,2.19v22.33C382.74,405.2,381.76,406.18,380.55,406.18z"/>
		<path class="st1" d="M384.99,380.58v23.65c0,1.12,0.83,2.1,2.03,2.35c3.2,0.68,9.69,2.87,15.92,9.81
			c0.74,0.83,2.21,0.36,2.21-0.71v-47.72c0-1.09-1.51-1.56-2.23-0.69c-2.72,3.26-7.99,8.32-16.19,11.04
			C385.68,378.66,384.99,379.57,384.99,380.58z"/>
	</g>
</g>
</svg>
