<?xml version="1.0" encoding="utf-8"?>
<!-- Generator: Adobe Illustrator 25.1.0, SVG Export Plug-In . SVG Version: 6.00 Build 0)  -->
<svg version="1.1" id="Capa_1" xmlns="http://www.w3.org/2000/svg" xmlns:xlink="http://www.w3.org/1999/xlink" x="0px" y="0px"
	 viewBox="0 0 800 800" style="enable-background:new 0 0 800 800;" xml:space="preserve">
<style type="text/css">
	.st0{fill:#E30613;}
</style>
<path class="st0" d="M400,50C206.7,50,50,206.7,50,400s156.7,350,350,350s350-156.7,350-350S593.3,50,400,50z M399.6,724.9
	c-179.5,0-325-145.5-325-325c0-179.5,145.5-325,325-325c179.5,0,325,145.5,325,325C724.6,579.4,579.1,724.9,399.6,724.9z"/>
<path class="st0" d="M414.4,408.3l-11.1,7.8c-1,0.7-2.4,0.7-3.5,0l-11.1-7.8c-2.4-1.7-1.2-5.5,1.7-5.5h1.2v-7.6
	c0-2.5,2.1-4.6,4.6-4.6h10.7c2.5,0,4.6,2.1,4.6,4.6v7.6h1.2C415.6,402.8,416.8,406.6,414.4,408.3z"/>
<path class="st0" d="M400,275c-69,0-125,56-125,125s56,125,125,125s125-56,125-125S469,275,400,275z M449.4,427.8
	c-0.6,0.7-1.4,1.1-2.3,1.1h-95.4c-1.2,0-2.3-0.6-3-1.5c-2.6-3.7-4.1-8.1-4.1-12.9c0-10.3,7-19,16.5-21.6c1.2-9.5,9.2-16.8,19.1-16.8
	c3.8,0,7.3,1.1,10.2,3c1-10,9.5-17.8,19.7-17.8c10.9,0,19.8,8.9,19.8,19.8c0,1.3-0.1,2.6-0.4,3.8c14.4,0.1,26,11.8,26,26.2
	C455.5,417.3,453.2,423.2,449.4,427.8z"/>
</svg>
