<?xml version="1.0" encoding="utf-8"?>
<!-- Generator: Adobe Illustrator 25.1.0, SVG Export Plug-In . SVG Version: 6.00 Build 0)  -->
<svg version="1.1" id="Capa_1" xmlns="http://www.w3.org/2000/svg" xmlns:xlink="http://www.w3.org/1999/xlink" x="0px" y="0px"
	 viewBox="0 0 800 800" style="enable-background:new 0 0 800 800;" xml:space="preserve">
<style type="text/css">
	.st0{fill:#FFFFFF;stroke:#1D1D1B;stroke-miterlimit:10;}
	.st1{fill:#E30613;}
	.st2{fill:#FFFFFF;}
	.st3{fill:none;stroke:#1D1D1B;stroke-miterlimit:10;}
</style>
<path class="st0" d="M364.18,365.13l-0.01-0.01l0.48-0.47C364.49,364.81,364.34,364.97,364.18,365.13z"/>
<path class="st1" d="M750,400c0,193.3-156.7,350-350,350C206.86,750,50,593.14,50,400C50,206.7,206.7,50,400,50
	c67.69,0,130.88,19.21,184.44,52.48c13.36,8.3,15.46,26.91,4.34,38.03l-0.71,0.71c-8.04,8.04-20.59,9.59-30.25,3.6
	c-44.66-27.68-97.11-43.96-153.32-44.79C236.55,97.57,99.92,232.18,100,400.15C100.08,565.72,234.28,699.92,399.85,700
	c167.97,0.08,302.58-136.55,300.12-304.5c-0.83-56.25-17.14-108.75-44.86-153.43c-5.96-9.6-4.41-22.05,3.58-30.04l0.63-0.63
	c11.21-11.21,29.98-9.1,38.34,4.37C730.84,269.28,750,332.4,750,400z"/>
<path class="st0" d="M364.18,365.13l-0.01-0.01l0.48-0.47C364.49,364.81,364.34,364.97,364.18,365.13z"/>
<path class="st0" d="M364.18,365.13l-0.01-0.01l0.48-0.47C364.49,364.81,364.34,364.97,364.18,365.13z"/>
<path class="st2" d="M587.5,400c0,103.55-83.95,187.5-187.5,187.5c-103.86,0-187.5-83.64-187.5-187.5
	c0-103.55,83.95-187.5,187.5-187.5c19.91,0,39.1,3.1,57.1,8.85c17.58,5.61,23,27.83,9.95,40.88l-0.81,0.81
	c-6.53,6.53-16.15,8.8-24.97,6.04c-13.62-4.25-28.14-6.44-43.22-6.21c-75.35,1.18-135.3,62.13-135.29,137.48
	c0,75.94,61.56,137.5,137.5,137.5c75.58,0,136.6-60.27,137.49-135.84c0.18-15.12-2.08-29.69-6.42-43.33
	c-2.84-8.96-0.58-18.74,6.06-25.39l0.01-0.01c13.21-13.21,35.75-7.74,41.38,10.07C584.45,361.24,587.5,380.26,587.5,400z"/>
<path class="st0" d="M364.65,364.65c-0.16,0.16-0.31,0.32-0.47,0.48l-0.01-0.01L364.65,364.65z"/>
<path class="st1" d="M739.2,131.51l-51.8,51.8c-1.07,1.07-2.51,1.7-4.02,1.75l-3.57,0.13l-28.41,1.03
	c-1.51,0.06-2.95,0.68-4.02,1.75L448.3,387.06c1.11,4.13,1.7,8.46,1.7,12.94c0,14.05-5.79,26.74-15.13,35.82
	c-9.65,9.39-23.07,14.93-37.78,14.1c-25.17-1.43-45.58-21.84-47.01-47.01c-0.83-14.7,4.7-28.13,14.1-37.78
	c0.16-0.16,0.31-0.32,0.47-0.48C373.7,355.6,386.2,350,400,350c4.48,0,8.81,0.59,12.94,1.7l64.88-64.88l35.9-35.9l79.99-79.99
	l18.31-18.31c1.07-1.07,1.7-2.51,1.75-4.02l1.03-28.41l0.13-3.57c0.06-1.51,0.68-2.95,1.75-4.02l51.8-51.8
	c3.86-3.86,10.44-0.99,10.24,4.46l-1.52,41.57l-0.37,10.11c-0.13,3.48,2.73,6.34,6.21,6.21l10.11-0.37l41.57-1.52
	C740.19,121.07,743.06,127.65,739.2,131.51z"/>
<path class="st3" d="M364.65,364.65c-0.16,0.16-0.31,0.32-0.47,0.48l-0.01-0.01L364.65,364.65z"/>
</svg>
