<?xml version="1.0" encoding="utf-8"?>
<!-- Generator: Adobe Illustrator 25.1.0, SVG Export Plug-In . SVG Version: 6.00 Build 0)  -->
<svg version="1.1" id="Capa_1" xmlns="http://www.w3.org/2000/svg" xmlns:xlink="http://www.w3.org/1999/xlink" x="0px" y="0px"
	 viewBox="0 0 800 800" style="enable-background:new 0 0 800 800;" xml:space="preserve">
<style type="text/css">
	.st0{fill:#E30613;}
	.st1{fill:none;stroke:#E30613;stroke-width:25;stroke-miterlimit:10;}
</style>
<path class="st0" d="M400,50C206.7,50,50,206.7,50,400s156.7,350,350,350s350-156.7,350-350S593.3,50,400,50z M399.62,724.91
	c-179.49,0-325-145.51-325-325c0-179.5,145.51-325,325-325c179.5,0,325,145.5,325,325C724.62,579.4,579.12,724.91,399.62,724.91z"/>
<path class="st0" d="M413.93,389.41c-0.13-0.16-0.25-0.32-0.38-0.48c-2.74-3.35-6.69-5.66-11.19-6.27c-0.05-0.01-0.1-0.02-0.16-0.02
	c-0.72-0.09-1.45-0.14-2.2-0.14c-3.82,0-7.34,1.22-10.22,3.3c-0.16,0.12-0.33,0.24-0.49,0.37c-3.43,2.65-5.84,6.55-6.56,11.02
	c-0.04,0.2-0.07,0.4-0.09,0.61c-0.09,0.72-0.14,1.45-0.14,2.2c0,3.82,1.22,7.34,3.3,10.22c0.12,0.16,0.24,0.33,0.37,0.49
	c2.65,3.43,6.55,5.84,11.02,6.56c0.35,0.06,0.7,0.11,1.06,0.14c0.58,0.06,1.16,0.09,1.75,0.09c3.98,0,7.65-1.33,10.59-3.57
	c0.16-0.13,0.32-0.25,0.48-0.38c3.35-2.74,5.66-6.69,6.27-11.19c0.03-0.2,0.05-0.41,0.07-0.61c0.06-0.58,0.09-1.16,0.09-1.75
	C417.5,396.02,416.17,392.35,413.93,389.41z M400,415c-8.28,0-15-6.72-15-15c0-8.28,6.72-15,15-15s15,6.72,15,15
	C415,408.28,408.28,415,400,415z"/>
<path class="st0" d="M400,275c-69.04,0-125,55.96-125,125s55.96,125,125,125c69.03,0,125-55.96,125-125S469.03,275,400,275z
	 M433.44,396.33l-4.68,1.58c-0.77,0.26-1.27,0.99-1.26,1.8V400c0,2.53-0.34,4.98-0.98,7.3c-0.21,0.75,0.1,1.55,0.74,1.99l4.14,2.89
	c0.79,0.55,1.03,1.62,0.55,2.46l-3.28,5.67c-0.49,0.85-1.55,1.17-2.44,0.74l-4.42-2.19c-0.71-0.35-1.57-0.22-2.13,0.34
	c-1.78,1.84-3.83,3.42-6.08,4.7c-0.69,0.39-1.04,1.19-0.9,1.97l0.88,4.95c0.17,0.95-0.42,1.87-1.35,2.12l-6.31,1.7
	c-0.95,0.25-1.94-0.27-2.25-1.2l-1.58-4.68c-0.26-0.77-0.99-1.27-1.8-1.26H400c-2.58,0-5.07-0.35-7.44-1.02
	c-0.76-0.22-1.58,0.1-2.02,0.77l-2.73,4.1c-0.55,0.81-1.63,1.07-2.48,0.58l-5.67-3.28c-0.84-0.48-1.17-1.52-0.76-2.4l2.14-4.56
	c0.33-0.71,0.2-1.57-0.36-2.12c-1.83-1.8-3.4-3.86-4.67-6.12c-0.39-0.69-1.19-1.03-1.97-0.88l-4.83,0.97
	c-0.96,0.19-1.91-0.4-2.16-1.35l-1.7-6.31c-0.25-0.93,0.26-1.9,1.17-2.23l4.75-1.73c0.75-0.27,1.23-0.98,1.23-1.77V400
	c0-2.58,0.35-5.07,1.02-7.44c0.22-0.76-0.1-1.58-0.77-2.02l-4.1-2.73c-0.81-0.55-1.07-1.63-0.58-2.48l3.28-5.67
	c0.48-0.84,1.52-1.17,2.4-0.76l4.56,2.14c0.71,0.33,1.57,0.2,2.12-0.36c1.8-1.83,3.86-3.4,6.12-4.67c0.69-0.39,1.03-1.19,0.88-1.97
	l-0.97-4.83c-0.19-0.96,0.4-1.91,1.35-2.16l6.31-1.7c0.93-0.25,1.9,0.26,2.23,1.17l1.73,4.75c0.27,0.75,0.98,1.23,1.77,1.23H400
	c2.53,0,4.98,0.34,7.3,0.98c0.75,0.21,1.55-0.1,1.99-0.74l2.89-4.14c0.55-0.79,1.62-1.03,2.46-0.55l5.67,3.28
	c0.85,0.49,1.17,1.55,0.74,2.44l-2.19,4.42c-0.35,0.71-0.22,1.57,0.34,2.13c1.84,1.78,3.42,3.83,4.7,6.08
	c0.39,0.69,1.19,1.04,1.97,0.9l4.95-0.88c0.95-0.17,1.87,0.42,2.12,1.35l1.7,6.31C434.89,395.03,434.37,396.02,433.44,396.33z"/>
<circle class="st1" cx="399.62" cy="399.91" r="337.5"/>
</svg>
