<?xml version="1.0" encoding="utf-8"?>
<!-- Generator: Adobe Illustrator 25.1.0, SVG Export Plug-In . SVG Version: 6.00 Build 0)  -->
<svg version="1.1" id="Capa_1" xmlns="http://www.w3.org/2000/svg" xmlns:xlink="http://www.w3.org/1999/xlink" x="0px" y="0px"
	 viewBox="0 0 800 800" style="enable-background:new 0 0 800 800;" xml:space="preserve">
<style type="text/css">
	.st0{fill:none;}
	.st1{fill:#E30613;}
</style>
<path class="st0" d="M400,366.45v0.04c0,0.75-0.58,1.36-1.32,1.42c-0.4,0.03-0.79,0.07-1.19,0.13c-7.85,1.11-14.03,7.41-14.98,15.31
	c-0.02,0.16-0.04,0.32-0.05,0.48c-0.09,0.93-0.86,1.65-1.79,1.65c-0.86,0-1.56-0.7-1.56-1.54c0-0.05,0.01-0.09,0.01-0.14
	c0.8-10.13,8.81-18.23,18.9-19.18C399.08,364.52,400,365.38,400,366.45z"/>
<path class="st1" d="M400,50C206.7,50,50,206.7,50,400s156.7,350,350,350s350-156.7,350-350S593.3,50,400,50z M399.62,724.91
	c-179.49,0-325-145.51-325-325c0-179.5,145.51-325,325-325c179.5,0,325,145.5,325,325C724.62,579.4,579.12,724.91,399.62,724.91z"/>
<path class="st0" d="M400,366.45v0.04c0,0.75-0.58,1.36-1.32,1.42c-0.4,0.03-0.79,0.07-1.19,0.13c-7.85,1.11-14.03,7.41-14.98,15.31
	c-0.02,0.16-0.04,0.32-0.05,0.48c-0.09,0.93-0.86,1.65-1.79,1.65c-0.86,0-1.56-0.7-1.56-1.54c0-0.05,0.01-0.09,0.01-0.14
	c0.8-10.13,8.81-18.23,18.9-19.18C399.08,364.52,400,365.38,400,366.45z"/>
<path class="st0" d="M398.02,364.62c-10.09,0.95-18.1,9.05-18.9,19.18c0,0.05-0.01,0.09-0.01,0.14c0,0.84,0.7,1.54,1.56,1.54
	c0.93,0,1.7-0.72,1.79-1.65c0.01-0.16,0.03-0.32,0.05-0.48c0.95-7.9,7.13-14.2,14.98-15.31c0.4-0.06,0.79-0.1,1.19-0.13
	c0.74-0.06,1.32-0.67,1.32-1.42v-0.04C400,365.38,399.08,364.52,398.02,364.62z"/>
<path class="st1" d="M400,366.45v0.04c0,0.75-0.58,1.36-1.32,1.42c-0.4,0.03-0.79,0.07-1.19,0.13c-7.85,1.11-14.03,7.41-14.98,15.31
	c-0.02,0.16-0.04,0.32-0.05,0.48c-0.09,0.93-0.86,1.65-1.79,1.65c-0.86,0-1.56-0.7-1.56-1.54c0-0.05,0.01-0.09,0.01-0.14
	c0.8-10.13,8.81-18.23,18.9-19.18C399.08,364.52,400,365.38,400,366.45z"/>
<path class="st1" d="M398.97,275c-69.04,0-125,55.96-125,125s55.96,125,125,125c69.03,0,125-55.96,125-125S468,275,398.97,275z
	 M409.59,437.73c-1.26,1.26-3,2.04-4.92,2.04h-9.93c-3.93,0-7.11-3.18-7.11-7.11c0-0.49,0.4-0.89,0.89-0.89h22.07
	c0.58,0,1.04,0.46,1.04,1.04C411.63,434.73,410.85,436.47,409.59,437.73z M415.01,427.86c0,1.12-0.91,2.02-2.02,2.02h-25.97
	c-1.11,0-2.01-0.9-2.01-2.02v-0.97c0-1.11,0.9-2.01,2.01-2.01h25.97c1.11,0,2.02,0.9,2.02,2.01V427.86z M415.01,420.97
	c0,1.12-0.91,2.02-2.02,2.02h-25.97c-1.11,0-2.01-0.9-2.01-2.02V420c0-1.11,0.9-2.01,2.01-2.01h25.97c1.11,0,2.02,0.9,2.02,2.01
	V420.97z M415,405.23v5.73c0,2.84-2.29,5.14-5.14,5.14h-19.71c-2.85,0-5.15-2.3-5.15-5.14v-5.73c-6.07-4.56-10-11.82-10-20
	c0-13.81,11.2-25,25-25c13.81,0,25,11.19,25,25C425,393.41,421.08,400.67,415,405.23z"/>
</svg>
