<?xml version="1.0" encoding="utf-8"?>
<!-- Generator: Adobe Illustrator 25.1.0, SVG Export Plug-In . SVG Version: 6.00 Build 0)  -->
<svg version="1.1" id="Capa_1" xmlns="http://www.w3.org/2000/svg" xmlns:xlink="http://www.w3.org/1999/xlink" x="0px" y="0px"
	 viewBox="0 0 800 800" style="enable-background:new 0 0 800 800;" xml:space="preserve">
<style type="text/css">
	.st0{fill:#FFFFFF;stroke:#1D1D1B;stroke-miterlimit:10;}
	.st1{fill:#27314E;}
	.st2{fill:none;stroke:#1D1D1B;stroke-miterlimit:10;}
</style>
<path class="st0" d="M364.2,365.1L364.2,365.1l0.5-0.5C364.5,364.8,364.3,365,364.2,365.1z"/>
<path class="st1" d="M750,400c0,193.3-156.7,350-350,350C206.9,750,50,593.1,50,400C50,206.7,206.7,50,400,50
	c67.7,0,130.9,19.2,184.4,52.5c13.4,8.3,15.5,26.9,4.3,38l-0.7,0.7c-8,8-20.6,9.6-30.3,3.6c-44.7-27.7-97.1-44-153.3-44.8
	C236.5,97.6,99.9,232.2,100,400.2c0.1,165.6,134.3,299.8,299.9,299.8c168,0.1,302.6-136.5,300.1-304.5
	c-0.8-56.3-17.1-108.8-44.9-153.4c-6-9.6-4.4-22.1,3.6-30l0.6-0.6c11.2-11.2,30-9.1,38.3,4.4C730.8,269.3,750,332.4,750,400z"/>
<path class="st0" d="M364.2,365.1L364.2,365.1l0.5-0.5C364.5,364.8,364.3,365,364.2,365.1z"/>
<path class="st0" d="M364.2,365.1L364.2,365.1l0.5-0.5C364.5,364.8,364.3,365,364.2,365.1z"/>
<path class="st1" d="M587.5,400c0,103.5-83.9,187.5-187.5,187.5c-103.9,0-187.5-83.6-187.5-187.5c0-103.5,84-187.5,187.5-187.5
	c19.9,0,39.1,3.1,57.1,8.9c17.6,5.6,23,27.8,10,40.9l-0.8,0.8c-6.5,6.5-16.1,8.8-25,6c-13.6-4.3-28.1-6.4-43.2-6.2
	c-75.3,1.2-135.3,62.1-135.3,137.5c0,75.9,61.6,137.5,137.5,137.5c75.6,0,136.6-60.3,137.5-135.8c0.2-15.1-2.1-29.7-6.4-43.3
	c-2.8-9-0.6-18.7,6.1-25.4l0,0c13.2-13.2,35.7-7.7,41.4,10.1C584.4,361.2,587.5,380.3,587.5,400z"/>
<path class="st0" d="M364.7,364.6c-0.2,0.2-0.3,0.3-0.5,0.5l0,0L364.7,364.6z"/>
<path class="st1" d="M739.2,131.5l-51.8,51.8c-1.1,1.1-2.5,1.7-4,1.8l-3.6,0.1l-28.4,1c-1.5,0.1-3,0.7-4,1.8L448.3,387.1
	c1.1,4.1,1.7,8.5,1.7,12.9c0,14-5.8,26.7-15.1,35.8c-9.7,9.4-23.1,14.9-37.8,14.1c-25.2-1.4-45.6-21.8-47-47
	c-0.8-14.7,4.7-28.1,14.1-37.8c0.2-0.2,0.3-0.3,0.5-0.5c9-9,21.5-14.6,35.3-14.6c4.5,0,8.8,0.6,12.9,1.7l64.9-64.9l35.9-35.9l80-80
	l18.3-18.3c1.1-1.1,1.7-2.5,1.8-4l1-28.4l0.1-3.6c0.1-1.5,0.7-2.9,1.8-4l51.8-51.8c3.9-3.9,10.4-1,10.2,4.5l-1.5,41.6l-0.4,10.1
	c-0.1,3.5,2.7,6.3,6.2,6.2l10.1-0.4l41.6-1.5C740.2,121.1,743.1,127.7,739.2,131.5z"/>
<path class="st2" d="M364.7,364.6c-0.2,0.2-0.3,0.3-0.5,0.5l0,0L364.7,364.6z"/>
</svg>
