<?xml version="1.0" encoding="utf-8"?>
<!-- Generator: Adobe Illustrator 25.1.0, SVG Export Plug-In . SVG Version: 6.00 Build 0)  -->
<svg version="1.1" id="Capa_1" xmlns="http://www.w3.org/2000/svg" xmlns:xlink="http://www.w3.org/1999/xlink" x="0px" y="0px"
	 viewBox="0 0 800 800" style="enable-background:new 0 0 800 800;" xml:space="preserve">
<style type="text/css">
	.st0{fill:none;}
	.st1{fill:#D2D3D5;}
	.st2{fill:#1C2140;}
</style>
<path class="st0" d="M411.63,432.81c0,1.92-0.78,3.66-2.04,4.92c-1.26,1.26-3,2.04-4.92,2.04h-9.93c-3.93,0-7.11-3.18-7.11-7.11
	c0-0.49,0.4-0.89,0.89-0.89h22.07C411.17,431.77,411.63,432.23,411.63,432.81z"/>
<path class="st0" d="M415.01,420v0.97c0,1.12-0.91,2.02-2.02,2.02h-25.97c-1.11,0-2.01-0.9-2.01-2.02V420c0-1.11,0.9-2.01,2.01-2.01
	h25.97C414.1,417.99,415.01,418.89,415.01,420z"/>
<path class="st0" d="M415.01,426.89v0.97c0,1.12-0.91,2.02-2.02,2.02h-25.97c-1.11,0-2.01-0.9-2.01-2.02v-0.97
	c0-1.11,0.9-2.01,2.01-2.01h25.97C414.1,424.88,415.01,425.78,415.01,426.89z"/>
<path class="st0" d="M425,385.23c0,8.18-3.92,15.44-10,20v5.73c0,2.84-2.29,5.14-5.14,5.14h-19.71c-2.85,0-5.15-2.3-5.15-5.14v-5.73
	c-6.07-4.56-10-11.82-10-20c0-13.81,11.2-25,25-25C413.81,360.23,425,371.42,425,385.23z"/>
<path class="st1" d="M400,50C206.7,50,50,206.7,50,400s156.7,350,350,350s350-156.7,350-350S593.3,50,400,50z M399.62,724.91
	c-179.49,0-325-145.51-325-325c0-179.5,145.51-325,325-325c179.5,0,325,145.5,325,325C724.62,579.4,579.12,724.91,399.62,724.91z"/>
<path class="st0" d="M411.63,432.81c0,1.92-0.78,3.66-2.04,4.92c-1.26,1.26-3,2.04-4.92,2.04h-9.93c-3.93,0-7.11-3.18-7.11-7.11
	c0-0.49,0.4-0.89,0.89-0.89h22.07C411.17,431.77,411.63,432.23,411.63,432.81z"/>
<path class="st0" d="M415.01,420v0.97c0,1.12-0.91,2.02-2.02,2.02h-25.97c-1.11,0-2.01-0.9-2.01-2.02V420c0-1.11,0.9-2.01,2.01-2.01
	h25.97C414.1,417.99,415.01,418.89,415.01,420z"/>
<path class="st0" d="M415.01,426.89v0.97c0,1.12-0.91,2.02-2.02,2.02h-25.97c-1.11,0-2.01-0.9-2.01-2.02v-0.97
	c0-1.11,0.9-2.01,2.01-2.01h25.97C414.1,424.88,415.01,425.78,415.01,426.89z"/>
<path class="st0" d="M425,385.23c0,8.18-3.92,15.44-10,20v5.73c0,2.84-2.29,5.14-5.14,5.14h-19.71c-2.85,0-5.15-2.3-5.15-5.14v-5.73
	c-6.07-4.56-10-11.82-10-20c0-13.81,11.2-25,25-25C413.81,360.23,425,371.42,425,385.23z"/>
<path class="st0" d="M400,360.23c-13.8,0-25,11.19-25,25c0,8.18,3.93,15.44,10,20v5.73c0,2.84,2.3,5.14,5.15,5.14h19.71
	c2.85,0,5.14-2.3,5.14-5.14v-5.73c6.08-4.56,10-11.82,10-20C425,371.42,413.81,360.23,400,360.23z M412.99,424.88h-25.97
	c-1.11,0-2.01,0.9-2.01,2.01v0.97c0,1.12,0.9,2.02,2.01,2.02h25.97c1.11,0,2.02-0.9,2.02-2.02v-0.97
	C415.01,425.78,414.1,424.88,412.99,424.88z M412.99,417.99h-25.97c-1.11,0-2.01,0.9-2.01,2.01v0.97c0,1.12,0.9,2.02,2.01,2.02
	h25.97c1.11,0,2.02-0.9,2.02-2.02V420C415.01,418.89,414.1,417.99,412.99,417.99z M410.59,431.77h-22.07c-0.49,0-0.89,0.4-0.89,0.89
	c0,3.93,3.18,7.11,7.11,7.11h9.93c1.92,0,3.66-0.78,4.92-2.04c1.26-1.26,2.04-3,2.04-4.92
	C411.63,432.23,411.17,431.77,410.59,431.77z"/>
<circle class="st1" cx="398.97" cy="400" r="125"/>
<g>
	<g>
		<path class="st2" d="M400,360.23c-13.8,0-25,11.19-25,25c0,8.18,3.93,15.44,10,20v5.73c0,2.84,2.3,5.14,5.15,5.14h19.71
			c2.85,0,5.14-2.3,5.14-5.14v-5.73c6.08-4.56,10-11.82,10-20C425,371.42,413.81,360.23,400,360.23z M400,366.49
			c0,0.75-0.58,1.36-1.32,1.42c-0.4,0.03-0.79,0.07-1.19,0.13c-7.85,1.11-14.03,7.41-14.98,15.31c-0.02,0.16-0.04,0.32-0.05,0.48
			c-0.09,0.93-0.86,1.65-1.79,1.65c-0.86,0-1.56-0.7-1.56-1.54c0-0.05,0.01-0.09,0.01-0.14c0.8-10.13,8.81-18.23,18.9-19.18
			c1.06-0.1,1.98,0.76,1.98,1.83V366.49z"/>
		<path class="st2" d="M415.01,420v0.97c0,1.12-0.91,2.02-2.02,2.02h-25.97c-1.11,0-2.01-0.9-2.01-2.02V420
			c0-1.11,0.9-2.01,2.01-2.01h25.97C414.1,417.99,415.01,418.89,415.01,420z"/>
		<path class="st2" d="M415.01,426.89v0.97c0,1.12-0.91,2.02-2.02,2.02h-25.97c-1.11,0-2.01-0.9-2.01-2.02v-0.97
			c0-1.11,0.9-2.01,2.01-2.01h25.97C414.1,424.88,415.01,425.78,415.01,426.89z"/>
		<path class="st2" d="M411.63,432.81c0,1.92-0.78,3.66-2.04,4.92c-1.26,1.26-3,2.04-4.92,2.04h-9.93c-3.93,0-7.11-3.18-7.11-7.11
			c0-0.49,0.4-0.89,0.89-0.89h22.07C411.17,431.77,411.63,432.23,411.63,432.81z"/>
	</g>
</g>
</svg>
