<svg id="Capa_1" data-name="Capa 1" xmlns="http://www.w3.org/2000/svg" viewBox="0 0 500 362.86"><defs><style>.cls-1{fill:#ebebeb;}.cls-2{fill:#00942e;}.cls-3{fill:#004a29;}.cls-4{fill:#f5f5f5;}.cls-39,.cls-5{fill:#263238;}.cls-10,.cls-12,.cls-27,.cls-35,.cls-38,.cls-6,.cls-7{fill:#fff;}.cls-12,.cls-13,.cls-15,.cls-16,.cls-17,.cls-18,.cls-19,.cls-21,.cls-22,.cls-23,.cls-24,.cls-25,.cls-27,.cls-33,.cls-34,.cls-35,.cls-37,.cls-38,.cls-6,.cls-7{isolation:isolate;}.cls-23,.cls-6{opacity:0.5;}.cls-17,.cls-21,.cls-25,.cls-37,.cls-7,.cls-9{opacity:0.3;}.cls-34,.cls-52,.cls-8{fill:#141e42;}.cls-11,.cls-18,.cls-24,.cls-38{opacity:0.2;}.cls-12,.cls-19,.cls-22{opacity:0.7;}.cls-13{opacity:0.1;}.cls-14,.cls-15,.cls-16,.cls-17{fill:#4a3400;}.cls-15,.cls-33,.cls-34,.cls-35{opacity:0.6;}.cls-16,.cls-27{opacity:0.4;}.cls-19,.cls-45{fill:#c8c8c8;}.cls-20{fill:#282828;}.cls-21{fill:#2f2017;}.cls-22,.cls-23,.cls-24{fill:#272321;}.cls-25{fill:#3c3c3c;}.cls-26{fill:#e6ae76;}.cls-28{fill:#ebb376;}.cls-29{fill:#d08245;}.cls-30{fill:#de5753;}.cls-31{fill:#ffc3bd;}.cls-32{fill:#ed847e;}.cls-33{fill:#fafafa;}.cls-36{fill:#fab27b;}.cls-39{font-size:24px;font-family:Roboto-Black, Roboto;}.cls-39,.cls-40,.cls-45,.cls-52{font-weight:800;}.cls-40,.cls-52{font-size:12px;}.cls-40,.cls-45,.cls-52{font-family:Roboto-BlackItalic, Roboto;}.cls-40,.cls-45,.cls-48,.cls-52{font-style:italic;}.cls-41{letter-spacing:-0.01em;}.cls-42{letter-spacing:0.01em;}.cls-43{letter-spacing:-0.02em;}.cls-44{letter-spacing:-0.01em;}.cls-45{font-size:15px;}.cls-46{fill:#00171f;stroke:#00233f;}.cls-46,.cls-47{stroke-miterlimit:10;}.cls-47{fill:#646464;stroke:#646464;}.cls-48{font-size:10px;font-family:Roboto-CondensedItalic, Roboto;}.cls-49{letter-spacing:-0.01em;}.cls-50{letter-spacing:-0.01em;}.cls-51{letter-spacing:0em;}</style></defs><g id="freepik--background-complete--inject-52"><rect class="cls-1" y="329.68" width="500" height="0.27"/><rect class="cls-1" x="416.78" y="346.87" width="33.12" height="0.27"/><rect class="cls-1" x="322.53" y="349.78" width="8.69" height="0.27"/><rect class="cls-1" x="396.59" y="336.96" width="19.19" height="0.27"/><rect class="cls-1" x="52.46" y="338.75" width="43.19" height="0.27"/><rect class="cls-1" x="104.56" y="338.75" width="6.33" height="0.27"/><rect class="cls-1" x="131.47" y="343.26" width="93.68" height="0.27"/><path class="cls-2" d="M407.79,289.07s11.93-18.24,3.7-39.19S408.1,221,408.1,221l8,16.95s7.49-12.53,4.55-27.23,3.83-39.45,3.83-39.45-2.44,28.64,1.84,40c0,0,6.26-11,8.49-22.15S443.88,156,443.88,156L433.4,224.13l23-30.76S433,235,429.87,243.16l25.44-13.56S442.84,250.5,433,254.49s-20.58,36.58-20.58,36.58Z"/><path class="cls-3" d="M416.27,297.27s-10.36-22.44,2.07-44.16,8.33-31.47,8.33-31.47L415.14,239s-6.34-15.24-.75-31,2-44.45,2-44.45-1.84,32.18-8.39,44.06c0,0-5.2-13.37-5.92-26.12s-4.85-38.39-4.85-38.39l.88,77.52L377.5,182.33s19.4,50.45,21.58,60L373,222.73c1.64-.7,16.42,22.91,20.85,31.64,5.65,11.11,17.06,44.29,17.06,44.29Z"/><polygon class="cls-4" points="381.82 287.52 443.63 287.52 438.63 329.92 386.82 329.92 381.82 287.52"/></g><g id="freepik--Shadow--inject-52"><ellipse id="freepik--path--inject-52" class="cls-4" cx="250" cy="351.54" rx="193.89" ry="11.32"/></g><g id="freepik--Board--inject-52"><rect class="cls-5" x="138.42" y="47.01" width="220.92" height="137.1"/><rect class="cls-6" x="138.42" y="47.01" width="220.92" height="137.1"/><rect class="cls-4" x="140.77" y="49.59" width="216.21" height="131.94"/><rect class="cls-5" x="133.26" y="184.12" width="230.44" height="3.86"/><rect class="cls-7" x="133.26" y="184.12" width="230.44" height="3.86"/><rect class="cls-8" x="269.19" y="92.8" width="28.01" height="3.6" rx="1.76"/><rect class="cls-8" x="269.19" y="101.2" width="68.96" height="3.6" rx="1.76"/><rect class="cls-8" x="269.19" y="108.4" width="66.94" height="3.6" rx="1.76"/><rect class="cls-8" x="269.19" y="115.6" width="73.69" height="3.6" rx="1.76"/><rect class="cls-8" x="269.19" y="122.8" width="67.39" height="3.6" rx="1.76"/><rect class="cls-8" x="269.19" y="130" width="67.39" height="3.6" rx="1.76"/><rect class="cls-8" x="269.19" y="137.2" width="71.46" height="3.6" rx="1.76"/><path class="cls-8" d="M326.14,148H271a1.76,1.76,0,0,1-1.76-1.76h0a1.76,1.76,0,0,1,1.76-1.76h55.19a1.76,1.76,0,0,1,1.76,1.76h0a1.76,1.76,0,0,1-1.76,1.76Z"/><g class="cls-9"><rect class="cls-10" x="269.19" y="92.8" width="28.01" height="3.6" rx="1.76"/><rect class="cls-10" x="269.19" y="101.2" width="68.96" height="3.6" rx="1.76"/><rect class="cls-10" x="269.19" y="108.4" width="66.94" height="3.6" rx="1.76"/><rect class="cls-10" x="269.19" y="115.6" width="73.69" height="3.6" rx="1.76"/><rect class="cls-10" x="269.19" y="122.8" width="67.39" height="3.6" rx="1.76"/><rect class="cls-10" x="269.19" y="130" width="67.39" height="3.6" rx="1.76"/><rect class="cls-10" x="269.19" y="137.2" width="71.46" height="3.6" rx="1.76"/><path class="cls-10" d="M326.14,148H271a1.76,1.76,0,0,1-1.76-1.76h0a1.76,1.76,0,0,1,1.76-1.76h55.19a1.76,1.76,0,0,1,1.76,1.76h0a1.76,1.76,0,0,1-1.76,1.76Z"/></g><path class="cls-8" d="M169.58,139.06c18.22-2.19,36.64-4.23,55.13-4.78,3.63-.11,7.27-.14,10.9,0V132.5c-16-.4-32.05,1.15-47.8,2.78q-9.13.94-18.23,2C169.42,137.28,169.69,139,169.58,139.06Z"/><path class="cls-8" d="M178.33,142.51c11.53-2.27,23.19-4.37,34.89-4.94,2.3-.11,4.6-.15,6.9-.06v-1.84c-10.09-.41-20.28,1.19-30.25,2.88q-5.77,1-11.54,2.12C178.23,140.67,178.4,142.5,178.33,142.51Z"/><path class="cls-8" d="M156,91.18l-1.75.64,1.75.64v.66l-2.5-1v-.69l2.5-1Z"/><path class="cls-8" d="M157.91,89.24h.73l-1.73,5h-.73Z"/><path class="cls-8" d="M161.24,91.48v.69l-2.5,1v-.66l1.75-.64-1.75-.64v-.65Z"/><g class="cls-11"><path d="M160.87,98.69h-7.15a.65.65,0,0,1-.57-.73.66.66,0,0,1,.57-.58h7.15a.67.67,0,0,1,.74.58.66.66,0,0,1-.58.73A.43.43,0,0,1,160.87,98.69Z"/><path d="M160.87,103h-7.15a.65.65,0,0,1-.57-.73.66.66,0,0,1,.57-.58h7.15a.67.67,0,0,1,.74.58.66.66,0,0,1-.58.73Z"/><path d="M160.87,107.3h-7.15a.65.65,0,0,1-.57-.73.66.66,0,0,1,.57-.58h7.15a.67.67,0,0,1,.74.58.66.66,0,0,1-.58.73A.43.43,0,0,1,160.87,107.3Z"/><path d="M160.87,111.56h-7.15a.65.65,0,0,1-.57-.73.66.66,0,0,1,.57-.58h7.15a.67.67,0,0,1,.74.58.66.66,0,0,1-.58.73Z"/><path d="M160.87,115.85h-7.15a.66.66,0,1,1,0-1.32h7.15a.66.66,0,0,1,0,1.32Z"/><path d="M160.87,120.14h-7.15a.66.66,0,1,1,0-1.32h7.15a.66.66,0,0,1,0,1.32Z"/><path d="M160.87,124.43h-7.15a.66.66,0,1,1,0-1.32h7.15a.66.66,0,0,1,0,1.32Z"/><path d="M160.87,128.72h-7.15a.66.66,0,1,1,0-1.32h7.15a.66.66,0,0,1,0,1.32Z"/><path d="M160.87,133h-7.15a.65.65,0,0,1-.57-.73.66.66,0,0,1,.57-.58h7.15a.67.67,0,0,1,.74.58.66.66,0,0,1-.58.73Z"/></g><path class="cls-8" d="M181.54,120.06H166.87a.65.65,0,0,1-.57-.73.66.66,0,0,1,.57-.58h14.67a.66.66,0,0,1,.57.74A.64.64,0,0,1,181.54,120.06Z"/><path class="cls-8" d="M181.54,98.69H166.87a.65.65,0,0,1-.57-.73.66.66,0,0,1,.57-.58h14.67a.66.66,0,0,1,.57.74A.64.64,0,0,1,181.54,98.69Z"/><path class="cls-5" d="M223.65,120.06H185.44a.66.66,0,0,1-.74-.57.68.68,0,0,1,.58-.74h38.37a.67.67,0,0,1,.74.58.66.66,0,0,1-.58.73Z"/><g class="cls-11"><path class="cls-5" d="M228.4,103H217.33a.66.66,0,0,1-.74-.57.68.68,0,0,1,.58-.74H228.4a.67.67,0,0,1,.74.58.66.66,0,0,1-.58.73Z"/></g><path class="cls-5" d="M191.55,123.77h-22.7a.66.66,0,1,1,0-1.32h22.7a.66.66,0,0,1,0,1.32Z"/><path class="cls-8" d="M218.58,123.77H196.22a.66.66,0,1,1,0-1.32h22.36a.66.66,0,1,1,0,1.32Z"/><path class="cls-5" d="M246.35,123.77H222.22a.66.66,0,1,1,0-1.32h24.13a.66.66,0,1,1,0,1.32Z"/><g class="cls-11"><path class="cls-5" d="M193.65,128.06H180a.66.66,0,0,1,0-1.32h13.63a.66.66,0,0,1,0,1.32Z"/></g><path class="cls-5" d="M212.94,128.06H198.07a.66.66,0,0,1,0-1.32h14.87a.66.66,0,0,1,0,1.32Z"/><g class="cls-11"><path class="cls-5" d="M240.43,128.06H216.32a.66.66,0,0,1,0-1.32h24.11a.66.66,0,0,1,0,1.32Z"/></g><g class="cls-11"><path class="cls-5" d="M187.17,103H168.85a.66.66,0,0,1-.74-.57.68.68,0,0,1,.58-.74h18.48a.67.67,0,0,1,.74.58.66.66,0,0,1-.58.73Z"/></g><path class="cls-8" d="M189.47,107.3H168.85a.66.66,0,0,1-.74-.57.68.68,0,0,1,.58-.74h20.78a.66.66,0,0,1,.57.74A.64.64,0,0,1,189.47,107.3Z"/><g class="cls-11"><path class="cls-5" d="M223.91,107.3H192.84a.65.65,0,0,1-.57-.73.66.66,0,0,1,.57-.58h31.07a.67.67,0,0,1,.74.58.66.66,0,0,1-.58.73A.43.43,0,0,1,223.91,107.3Z"/></g><path class="cls-5" d="M242.66,98.69H211.6a.66.66,0,0,1-.74-.57.68.68,0,0,1,.58-.74h31.22a.67.67,0,0,1,.74.58.66.66,0,0,1-.58.73A.43.43,0,0,1,242.66,98.69Z"/><path class="cls-5" d="M246.35,107.3H227.68a.66.66,0,0,1-.74-.57.68.68,0,0,1,.58-.74h18.83a.66.66,0,0,1,.57.74.64.64,0,0,1-.57.57Z"/><g class="cls-11"><path class="cls-5" d="M187.23,111.56H175.42a.66.66,0,1,1,0-1.32h11.81a.66.66,0,0,1,0,1.32Z"/></g><g class="cls-11"><path class="cls-5" d="M213.9,111.56H191.25a.66.66,0,0,1,0-1.32H213.9a.66.66,0,0,1,0,1.32Z"/></g><g class="cls-11"><path class="cls-5" d="M207.89,98.69H185.24a.65.65,0,0,1-.57-.73.66.66,0,0,1,.57-.58h22.65a.67.67,0,0,1,.74.58.66.66,0,0,1-.58.73A.43.43,0,0,1,207.89,98.69Z"/></g><path class="cls-5" d="M240.43,111.56H218.32a.66.66,0,0,1,0-1.32h22.11a.66.66,0,0,1,0,1.32Z"/><path class="cls-5" d="M213.63,103H191.52a.65.65,0,0,1-.57-.73.66.66,0,0,1,.57-.58h22.11a.67.67,0,0,1,.74.58.66.66,0,0,1-.58.73Z"/><path class="cls-5" d="M195.91,115.85H182a.66.66,0,0,1,0-1.32h13.91a.66.66,0,1,1,0,1.32Z"/><g class="cls-11"><path class="cls-5" d="M212,115.85H198.77a.66.66,0,1,1,0-1.32H212a.66.66,0,0,1,0,1.32Z"/></g><path class="cls-8" d="M240.43,115.85H216.19a.66.66,0,0,1,0-1.32h24.24a.66.66,0,0,1,0,1.32Z"/><g class="cls-11"><path class="cls-5" d="M199,132.35H182a.66.66,0,0,1,0-1.32h17a.66.66,0,0,1,0,1.32Z"/></g></g><g id="freepik--Tabs--inject-52"><rect class="cls-8" x="135.64" y="80.56" width="13.13" height="9.48"/><rect class="cls-8" x="75.35" y="84.4" width="73.42" height="53.15"/><rect class="cls-12" x="75.35" y="84.4" width="73.42" height="53.15"/><rect class="cls-13" x="75.35" y="84.4" width="10.23" height="53.15"/><rect class="cls-8" x="75.35" y="84.28" width="73.42" height="4.97"/><circle class="cls-10" cx="145.61" cy="82.98" r="1.03"/><circle class="cls-10" cx="142.01" cy="82.98" r="1.03"/><circle class="cls-10" cx="138.41" cy="82.98" r="1.03"/><rect class="cls-8" x="177.09" y="16.6" width="11.65" height="8.41"/><rect class="cls-8" x="123.62" y="20" width="65.12" height="47.14"/><rect class="cls-12" x="123.62" y="20" width="65.12" height="47.14"/><rect class="cls-13" x="123.62" y="20" width="9.07" height="47.14"/><rect class="cls-8" x="123.62" y="19.9" width="65.12" height="4.41"/><path class="cls-10" d="M185,18.75a.91.91,0,1,0,.91-.91A.91.91,0,0,0,185,18.75Z"/><path class="cls-10" d="M181.83,18.75a.92.92,0,1,0,.93-.91h0a.92.92,0,0,0-.92.9Z"/><path class="cls-10" d="M178.64,18.75a.92.92,0,1,0,.93-.91h0a.91.91,0,0,0-.91.91Z"/><rect class="cls-8" x="372.36" y="11.25" width="14.91" height="10.76"/><rect class="cls-8" x="303.91" y="15.6" width="83.36" height="60.34"/><rect class="cls-12" x="303.91" y="15.6" width="83.36" height="60.34"/><rect class="cls-13" x="303.91" y="15.6" width="11.61" height="60.34"/><rect class="cls-8" x="303.91" y="15.47" width="83.36" height="5.64"/><circle class="cls-10" cx="383.67" cy="14" r="1.17"/><circle class="cls-10" cx="379.59" cy="14" r="1.17"/><circle class="cls-10" cx="375.5" cy="14" r="1.17"/></g><g id="freepik--Tables--inject-52"><polygon class="cls-14" points="229.64 352.61 227.17 352.61 224 246.77 227.26 246.77 229.64 352.61"/><polygon class="cls-15" points="229.64 352.61 227.17 352.61 224 246.77 227.26 246.77 229.64 352.61"/><polygon class="cls-14" points="189.87 246.77 189.87 352.61 192.48 352.61 195.55 251.61 227.05 251.61 229.35 352.61 231.94 352.61 231.94 246.77 189.87 246.77"/><polygon class="cls-16" points="189.87 246.77 189.87 352.61 192.48 352.61 195.55 251.61 227.05 251.61 229.35 352.61 231.94 352.61 231.94 246.77 189.87 246.77"/><polygon class="cls-14" points="189.87 352.61 187.4 352.61 186.61 246.77 189.87 246.77 189.87 352.61"/><polygon class="cls-15" points="189.87 352.61 187.4 352.61 186.61 246.77 189.87 246.77 189.87 352.61"/><polygon class="cls-14" points="142.15 352.61 139.68 352.61 136.5 246.77 139.76 246.77 142.15 352.61"/><polygon class="cls-15" points="142.15 352.61 139.68 352.61 136.5 246.77 139.76 246.77 142.15 352.61"/><polygon class="cls-14" points="102.37 246.77 102.37 352.61 104.98 352.61 108.06 251.61 139.56 251.61 141.86 352.61 144.44 352.61 144.44 246.77 102.37 246.77"/><polygon class="cls-17" points="102.37 246.77 102.37 352.61 104.98 352.61 108.06 251.61 139.56 251.61 141.86 352.61 144.44 352.61 144.44 246.77 102.37 246.77"/><polygon class="cls-14" points="102.37 352.61 99.91 352.61 99.11 246.77 102.37 246.77 102.37 352.61"/><polygon class="cls-15" points="102.37 352.61 99.91 352.61 99.11 246.77 102.37 246.77 102.37 352.61"/><rect class="cls-14" x="94.8" y="240.69" width="93.04" height="6.09"/><rect class="cls-16" x="94.8" y="240.69" width="93.04" height="6.09"/><rect class="cls-14" x="184.04" y="240.69" width="52.21" height="6.09"/><rect class="cls-17" x="184.04" y="240.69" width="52.21" height="6.09"/><polygon class="cls-14" points="357.43 352.1 354.96 352.1 351.79 246.27 355.05 246.27 357.43 352.1"/><polygon class="cls-15" points="357.43 352.1 354.96 352.1 351.79 246.27 355.05 246.27 357.43 352.1"/><polygon class="cls-14" points="317.66 246.27 317.66 352.1 320.27 352.1 323.34 251.1 354.84 251.1 357.14 352.1 359.73 352.1 359.73 246.27 317.66 246.27"/><polygon class="cls-16" points="317.66 246.27 317.66 352.1 320.27 352.1 323.34 251.1 354.84 251.1 357.14 352.1 359.73 352.1 359.73 246.27 317.66 246.27"/><polygon class="cls-14" points="317.66 352.1 315.19 352.1 314.4 246.27 317.66 246.27 317.66 352.1"/><polygon class="cls-15" points="317.66 352.1 315.19 352.1 314.4 246.27 317.66 246.27 317.66 352.1"/><polygon class="cls-14" points="269.93 352.1 267.47 352.1 264.29 246.27 267.55 246.27 269.93 352.1"/><polygon class="cls-15" points="269.93 352.1 267.47 352.1 264.29 246.27 267.55 246.27 269.93 352.1"/><polygon class="cls-14" points="230.16 246.27 230.16 352.1 232.77 352.1 235.84 251.1 267.34 251.1 269.65 352.1 272.23 352.1 272.23 246.27 230.16 246.27"/><polygon class="cls-17" points="230.16 246.27 230.16 352.1 232.77 352.1 235.84 251.1 267.34 251.1 269.65 352.1 272.23 352.1 272.23 246.27 230.16 246.27"/><polygon class="cls-14" points="230.16 352.1 227.7 352.1 226.9 246.27 230.16 246.27 230.16 352.1"/><polygon class="cls-15" points="230.16 352.1 227.7 352.1 226.9 246.27 230.16 246.27 230.16 352.1"/><rect class="cls-14" x="222.59" y="240.18" width="93.04" height="6.09"/><rect class="cls-16" x="222.59" y="240.18" width="93.04" height="6.09"/><rect class="cls-14" x="311.83" y="240.18" width="52.21" height="6.09"/><rect class="cls-17" x="311.83" y="240.18" width="52.21" height="6.09"/><path class="cls-14" d="M135.3,240.23h32.5a1.83,1.83,0,0,0,1.77-1.55l3.28-23.38a1.33,1.33,0,0,0-1.06-1.54l-.27,0H139a1.86,1.86,0,0,0-1.78,1.56L134,238.68a1.31,1.31,0,0,0,1.07,1.53A.9.9,0,0,0,135.3,240.23Z"/><path class="cls-18" d="M135.3,240.23h32.5a1.83,1.83,0,0,0,1.77-1.55l3.28-23.38a1.33,1.33,0,0,0-1.06-1.54l-.27,0H139a1.86,1.86,0,0,0-1.78,1.56L134,238.68a1.31,1.31,0,0,0,1.07,1.53A.9.9,0,0,0,135.3,240.23Z"/><path class="cls-14" d="M137.48,236.75l28.88-.14a1.7,1.7,0,0,0,1.64-1.43l2.56-17.62a1.21,1.21,0,0,0-1-1.41l-.26,0-28.88.13a1.71,1.71,0,0,0-1.63,1.43l-2.57,17.61a1.22,1.22,0,0,0,1,1.43A1.1,1.1,0,0,0,137.48,236.75Z"/><path class="cls-19" d="M137.48,236.75l28.88-.14a1.7,1.7,0,0,0,1.64-1.43l2.56-17.62a1.21,1.21,0,0,0-1-1.41l-.26,0-28.88.13a1.71,1.71,0,0,0-1.63,1.43l-2.57,17.61a1.22,1.22,0,0,0,1,1.43A1.1,1.1,0,0,0,137.48,236.75Z"/><path class="cls-14" d="M141.23,218.61l-.52.19.52.18v.2l-.74-.28v-.21l.74-.28Z"/><path class="cls-14" d="M141.79,218H142l-.51,1.47h-.22Z"/><path class="cls-14" d="M142.77,218.69v.21l-.74.28V219l.52-.18-.52-.19v-.2Z"/><g class="cls-11"><path class="cls-14" d="M142.42,220.83h-2.13a.19.19,0,0,1-.19-.19h0a.21.21,0,0,1,.19-.2h2.13a.21.21,0,0,1,.19.2.19.19,0,0,1-.19.19Z"/><path class="cls-14" d="M142.21,222.11h-2.12a.19.19,0,0,1-.19-.2.2.2,0,0,1,.19-.19h2.12a.2.2,0,0,1,.2.18h0a.2.2,0,0,1-.2.2Z"/><path class="cls-14" d="M142.09,223.38H140a.19.19,0,0,1-.19-.2A.21.21,0,0,1,140,223h2.12a.21.21,0,0,1,.24.15.2.2,0,0,1-.15.24h-.12Z"/><path class="cls-14" d="M141.84,224.65h-2.12a.19.19,0,0,1-.19-.19h0a.19.19,0,0,1,.18-.2h2.13a.21.21,0,0,1,.24.15.2.2,0,0,1-.15.24Z"/><path class="cls-14" d="M141.68,225.92h-2.12a.19.19,0,0,1-.2-.18h0a.2.2,0,0,1,.2-.2h2.12a.2.2,0,0,1,.19.19h0a.17.17,0,0,1-.17.19Z"/><path class="cls-14" d="M141.45,227.2h-2.12a.19.19,0,0,1-.19-.2.2.2,0,0,1,.19-.19h2.12a.2.2,0,0,1,.2.18h0a.2.2,0,0,1-.2.2Z"/><path class="cls-14" d="M141.26,228.47h-2.12a.2.2,0,0,1-.2-.2h0a.19.19,0,0,1,.19-.19h2.13a.19.19,0,0,1,.19.17v0a.18.18,0,0,1-.18.2Z"/><path class="cls-14" d="M141,229.74h-2.1a.2.2,0,0,1-.24-.15.2.2,0,0,1,.15-.24H141a.2.2,0,0,1,.19.19h0a.19.19,0,0,1-.19.19Z"/><path class="cls-14" d="M140.78,231h-2.12a.18.18,0,0,1-.19-.17v0a.19.19,0,0,1,.18-.2h2.13a.2.2,0,0,1,.2.2h0a.18.18,0,0,1-.19.19Z"/></g><path class="cls-20" d="M148.55,220.83H144.2a.19.19,0,0,1-.2-.18h0a.2.2,0,0,1,.2-.2h4.35a.21.21,0,0,1,.19.2.19.19,0,0,1-.19.19Z"/><path class="cls-20" d="M161,220.83H149.7a.19.19,0,0,1-.19-.19h0a.21.21,0,0,1,.19-.2H161a.2.2,0,0,1,.19.19h0a.17.17,0,0,1-.17.19Z"/><g class="cls-11"><path class="cls-14" d="M166.21,220.83h-3.28a.19.19,0,0,1-.2-.18h0a.2.2,0,0,1,.2-.2h3.28a.2.2,0,0,1,.2.2h0a.18.18,0,0,1-.19.19Z"/></g><g class="cls-11"><path class="cls-14" d="M155.94,222.11H144.58a.2.2,0,0,1-.2-.2h0a.19.19,0,0,1,.19-.19h11.37a.2.2,0,0,1,.2.18h0a.2.2,0,0,1-.2.2Z"/></g><path class="cls-20" d="M167.57,222.11H157a.19.19,0,0,1-.19-.19h0a.18.18,0,0,1,.17-.19h10.61a.2.2,0,0,1,.2.18h0a.2.2,0,0,1-.2.2Z"/><path class="cls-20" d="M151.19,223.38h-6.73a.2.2,0,0,1-.24-.15.2.2,0,0,1,.15-.24h6.82a.21.21,0,0,1,.24.15.2.2,0,0,1-.15.24Z"/><path class="cls-20" d="M159.21,223.38h-6.63a.19.19,0,0,1-.19-.19h0a.2.2,0,0,1,.19-.19h6.63a.21.21,0,0,1,.24.15.2.2,0,0,1-.15.24Z"/><path class="cls-20" d="M167.45,223.38h-7.16a.19.19,0,0,1-.19-.2.21.21,0,0,1,.19-.19h7.16a.21.21,0,0,1,.24.15.2.2,0,0,1-.15.24Z"/><path class="cls-20" d="M151.57,224.65h-4a.2.2,0,0,1-.19-.19.21.21,0,0,1,.19-.2h4a.21.21,0,0,1,.19.2A.2.2,0,0,1,151.57,224.65Z"/><path class="cls-20" d="M157.29,224.65h-4.41a.2.2,0,0,1-.24-.15.2.2,0,0,1,.15-.24h4.5a.2.2,0,0,1,.19.19h0a.19.19,0,0,1-.19.19Z"/><g class="cls-11"><path class="cls-14" d="M165.44,224.65h-7.15a.19.19,0,0,1-.19-.19h0a.19.19,0,0,1,.18-.2h7.16a.21.21,0,0,1,.24.15.2.2,0,0,1-.15.24Z"/></g><g class="cls-11"><path class="cls-14" d="M149.48,225.92h-5.43a.19.19,0,0,1-.2-.18h0a.2.2,0,0,1,.2-.2h5.43a.2.2,0,0,1,.2.2h0a.18.18,0,0,1-.19.19Z"/></g><path class="cls-20" d="M149.94,227.2h-6.12a.19.19,0,0,1-.19-.19h0a.18.18,0,0,1,.17-.19h6.14a.19.19,0,0,1,.19.17v0a.18.18,0,0,1-.18.2Z"/><path class="cls-20" d="M160.16,227.2h-9.22c1.1,0,1-.09,1-.2a.19.19,0,0,1,.19-.19h9.23a.2.2,0,0,1,.19.19h0C161.56,227.11,161.47,227.2,160.16,227.2Z"/><path class="cls-14" d="M166.81,227.2h-5.54a.19.19,0,0,1-.19-.2.2.2,0,0,1,.19-.19h5.54a.2.2,0,0,1,.2.18h0a.2.2,0,0,1-.2.2Z"/><g class="cls-11"><path class="cls-14" d="M149.08,228.47h-3.51a.19.19,0,0,1-.19-.2.2.2,0,0,1,.19-.19h3.51a.2.2,0,0,1,.19.19h0A.19.19,0,0,1,149.08,228.47Z"/></g><g class="cls-11"><path class="cls-14" d="M157,228.47h-6.72a.19.19,0,0,1-.19-.19h0a.18.18,0,0,1,.17-.19H157a.19.19,0,0,1,.19.17v0a.18.18,0,0,1-.18.2Z"/></g><path class="cls-20" d="M164.86,228.47H158.3c1.3,0,1.21-.09,1.21-.2a.19.19,0,0,1,.19-.19h6.57a.2.2,0,0,1,.19.19h0C166.46,228.38,166.37,228.47,164.86,228.47Z"/><path class="cls-20" d="M151.41,229.74h-4.12a.2.2,0,0,1-.24-.15.2.2,0,0,1,.15-.24h4.21a.21.21,0,0,1,.24.15.2.2,0,0,1-.15.24Z"/><g class="cls-11"><path class="cls-14" d="M156.2,229.74h-3.94a.2.2,0,0,1-.19-.19.21.21,0,0,1,.19-.2h3.94a.21.21,0,0,1,.19.2A.2.2,0,0,1,156.2,229.74Z"/></g><path class="cls-20" d="M164.62,229.74h-7.19a.19.19,0,0,1-.19-.19h0a.19.19,0,0,1,.18-.2h7.2a.21.21,0,0,1,.24.15.2.2,0,0,1-.15.24Z"/><g class="cls-11"><path class="cls-14" d="M152.1,231h-5a.19.19,0,0,1-.2-.18h0a.2.2,0,0,1,.2-.2h5a.21.21,0,0,1,.19.2.19.19,0,0,1-.19.19Z"/></g><polygon class="cls-21" points="143.74 216.26 140.66 236.75 137.23 236.75 140.71 216.26 143.74 216.26"/><path class="cls-14" d="M115.64,240.13H155a1.09,1.09,0,0,0,1.09-1.09h0a1.09,1.09,0,0,0-1.08-1.1H115.64a1.09,1.09,0,0,0-1.09,1.09h0A1.09,1.09,0,0,0,115.64,240.13Z"/><path class="cls-22" d="M115.64,240.13H155a1.09,1.09,0,0,0,1.09-1.09h0a1.09,1.09,0,0,0-1.08-1.1H115.64a1.09,1.09,0,0,0-1.09,1.09h0A1.09,1.09,0,0,0,115.64,240.13Z"/><path class="cls-14" d="M146.68,240.13h21a1.09,1.09,0,0,0,1.09-1.09h0a1.09,1.09,0,0,0-1.08-1.1h-21a1.1,1.1,0,0,0-1.1,1.1h0a1.09,1.09,0,0,0,1.09,1.09Z"/><path class="cls-23" d="M146.68,240.13h21a1.09,1.09,0,0,0,1.09-1.09h0a1.09,1.09,0,0,0-1.08-1.1h-21a1.1,1.1,0,0,0-1.1,1.1h0a1.09,1.09,0,0,0,1.09,1.09Z"/><path class="cls-14" d="M266.67,240h32.5a1.85,1.85,0,0,0,1.77-1.56l3.28-23.34a1.32,1.32,0,0,0-1.07-1.53l-.27,0H270.39a1.85,1.85,0,0,0-1.78,1.55l-3.28,23.34a1.32,1.32,0,0,0,1.08,1.54A1.14,1.14,0,0,0,266.67,240Z"/><path class="cls-24" d="M266.67,240h32.5a1.85,1.85,0,0,0,1.77-1.56l3.28-23.34a1.32,1.32,0,0,0-1.07-1.53l-.27,0H270.39a1.85,1.85,0,0,0-1.78,1.55l-3.28,23.34a1.32,1.32,0,0,0,1.08,1.54A1.14,1.14,0,0,0,266.67,240Z"/><path class="cls-14" d="M268.85,236.55l28.88-.13a1.73,1.73,0,0,0,1.64-1.44l2.56-17.62a1.21,1.21,0,0,0-1-1.41l-.26,0-28.88.13a1.71,1.71,0,0,0-1.63,1.43l-2.57,17.63a1.21,1.21,0,0,0,1,1.41A.76.76,0,0,0,268.85,236.55Z"/><path class="cls-12" d="M268.85,236.55l28.88-.13a1.73,1.73,0,0,0,1.64-1.44l2.56-17.62a1.21,1.21,0,0,0-1-1.41l-.26,0-28.88.13a1.71,1.71,0,0,0-1.63,1.43l-2.57,17.63a1.21,1.21,0,0,0,1,1.41A.76.76,0,0,0,268.85,236.55Z"/><polygon class="cls-25" points="275.11 216.06 272.03 236.55 268.6 236.55 272.08 216.06 275.11 216.06"/><path class="cls-14" d="M272.7,218.37l-.5.18.5.18v.19l-.71-.27v-.2l.71-.27Z"/><path class="cls-14" d="M273.24,217.81h.21l-.5,1.42h-.21Z"/><path class="cls-14" d="M274.19,218.45v.2l-.71.27v-.19l.5-.18-.5-.18v-.19Z"/><g class="cls-11"><path class="cls-14" d="M273.86,220.52h-2a.19.19,0,0,1-.19-.19h0a.18.18,0,0,1,.17-.19h2a.19.19,0,0,1,.19.17v0a.19.19,0,0,1-.19.19Z"/><path class="cls-14" d="M273.66,221.74h-2a.19.19,0,0,1-.23-.14.2.2,0,0,1,.14-.23h2.09a.19.19,0,0,1,.19.17h0a.17.17,0,0,1-.17.19Z"/><path class="cls-14" d="M273.54,223h-2.05a.19.19,0,0,1-.19-.19.2.2,0,0,1,.19-.19h2.05a.2.2,0,0,1,.19.19A.19.19,0,0,1,273.54,223Z"/><path class="cls-14" d="M273.29,224.19h-2a.19.19,0,0,1-.23-.14.2.2,0,0,1,.14-.23h2.09a.19.19,0,0,1,.19.17v0a.18.18,0,0,1-.18.18Z"/><path class="cls-14" d="M273.19,225.42h-2.05a.19.19,0,0,1-.23-.14.2.2,0,0,1,.14-.23h2.14a.18.18,0,0,1,.18.18.17.17,0,0,1-.17.19Z"/><path class="cls-14" d="M273,226.65H271a.19.19,0,0,1-.19-.19.2.2,0,0,1,.19-.19H273a.2.2,0,0,1,.19.19A.19.19,0,0,1,273,226.65Z"/><path class="cls-14" d="M272.83,227.87h-2a.19.19,0,0,1-.23-.14.2.2,0,0,1,.14-.23h2.09a.19.19,0,0,1,.19.17v0a.18.18,0,0,1-.18.18Z"/><path class="cls-14" d="M272.62,229.1h-2a.19.19,0,0,1-.19-.19h0a.21.21,0,0,1,.19-.19h2a.2.2,0,0,1,.19.19h0a.17.17,0,0,1-.17.19Z"/><path class="cls-14" d="M272.35,230.3h-2a.19.19,0,0,1-.19-.19h0a.18.18,0,0,1,.17-.19h2a.19.19,0,0,1,.19.17v0a.19.19,0,0,1-.19.19Z"/></g><path class="cls-20" d="M278.88,226.63h-4.2a.19.19,0,0,1-.18-.19.18.18,0,0,1,.17-.19h4.21a.2.2,0,0,1,.19.19h0A.2.2,0,0,1,278.88,226.63Z"/><path class="cls-20" d="M282,220.39h-2.77a.12.12,0,0,1-.13-.12h0a.13.13,0,0,1,.11-.13H282a.13.13,0,0,1,.13.13h0A.12.12,0,0,1,282,220.39Z"/><path class="cls-20" d="M290.92,226.63H280a.17.17,0,1,1,0-.33h10.93a.18.18,0,0,1,.18.18h0A.18.18,0,0,1,290.92,226.63Z"/><g class="cls-11"><path class="cls-14" d="M293,221.74h-3.16a.18.18,0,0,1-.19-.17v0a.18.18,0,0,1,.18-.18H293a.2.2,0,0,1,.23.14.19.19,0,0,1-.14.23Z"/></g><path class="cls-20" d="M281.65,227.87h-6.49a.19.19,0,0,1-.23-.14.2.2,0,0,1,.14-.23h6.58a.2.2,0,0,1,.23.14.19.19,0,0,1-.14.23Z"/><path class="cls-20" d="M289.38,227.87H283a.18.18,0,0,1-.19-.17h0a.18.18,0,0,1,.17-.19h6.41a.2.2,0,0,1,.23.14.19.19,0,0,1-.14.23h-.1Z"/><path class="cls-20" d="M297.32,227.87h-6.9a.19.19,0,0,1-.23-.14.2.2,0,0,1,.14-.23h7a.2.2,0,0,1,.23.14.19.19,0,0,1-.14.23Z"/><g class="cls-11"><path class="cls-14" d="M282,229.1h-3.89a.19.19,0,0,1-.19-.19h0a.21.21,0,0,1,.19-.19H282a.2.2,0,0,1,.19.19h0a.17.17,0,0,1-.17.19Z"/></g><path class="cls-20" d="M287.49,229.1h-4.25a.18.18,0,0,1-.19-.17v0a.2.2,0,0,1,.19-.19h4.25a.21.21,0,0,1,.19.19.19.19,0,0,1-.19.19Z"/><g class="cls-11"><path class="cls-14" d="M295.35,229.1h-6.89a.18.18,0,0,1-.19-.17v0a.2.2,0,0,1,.19-.19h6.89a.21.21,0,0,1,.19.19.19.19,0,0,1-.19.19Z"/></g><g class="cls-11"><path class="cls-14" d="M281.18,221.74h-5.24a.18.18,0,0,1-.18-.18h0a.18.18,0,0,1,.18-.18h5.24a.19.19,0,0,1,.19.17h0a.17.17,0,0,1-.17.19Z"/></g><path class="cls-20" d="M281.71,223h-5.89a.19.19,0,0,1-.19-.19.2.2,0,0,1,.19-.19h5.89a.2.2,0,0,1,.19.19A.19.19,0,0,1,281.71,223Z"/><g class="cls-11"><path class="cls-14" d="M291.56,223h-8.88a.19.19,0,0,1-.19-.19.2.2,0,0,1,.19-.19h8.88a.2.2,0,0,1,.19.19.19.19,0,0,1-.19.19Z"/></g><path class="cls-20" d="M293.59,220.39H287.7a.12.12,0,0,1-.12-.12.13.13,0,0,1,.11-.13h5.9a.13.13,0,0,1,.12.12h0A.12.12,0,0,1,293.59,220.39Z"/><path class="cls-20" d="M298,223h-5.33a.19.19,0,0,1-.19-.19.2.2,0,0,1,.19-.19H298a.2.2,0,0,1,.19.19.19.19,0,0,1-.19.19Z"/><g class="cls-11"><path class="cls-14" d="M280.83,224.19h-3.38a.19.19,0,0,1,0-.37h3.39a.2.2,0,0,1,.23.14.19.19,0,0,1-.14.23Z"/></g><g class="cls-11"><path class="cls-14" d="M288.45,224.19H282a.19.19,0,0,1-.23-.14.2.2,0,0,1,.14-.23h6.56a.19.19,0,0,1,.19.17v0a.18.18,0,0,1-.18.18Z"/></g><g class="cls-11"><path class="cls-14" d="M287.3,220.52h-6.47a.19.19,0,0,1,0-.38h6.47a.19.19,0,0,1,.19.17v0a.19.19,0,0,1-.19.19Z"/></g><path class="cls-20" d="M296,224.19h-6.32a.18.18,0,0,1-.19-.17h0a.18.18,0,0,1,.17-.19H296a.2.2,0,0,1,.23.14.19.19,0,0,1-.14.23Z"/><path class="cls-20" d="M288.75,221.74h-6.32a.18.18,0,0,1-.19-.17v0a.18.18,0,0,1,.18-.18h6.33a.2.2,0,0,1,.23.14.19.19,0,0,1-.14.23Z"/><path class="cls-20" d="M283.2,225.42h-4a.18.18,0,0,1-.19-.17v0a.18.18,0,0,1,.18-.18h4a.19.19,0,0,1,.19.17h0a.17.17,0,0,1-.17.19Z"/><g class="cls-11"><path class="cls-14" d="M287.81,225.42H284a.19.19,0,0,1-.23-.14.2.2,0,0,1,.14-.23h3.88a.19.19,0,0,1,.19.17h0a.17.17,0,0,1-.17.19Z"/></g><path class="cls-20" d="M295.93,225.42H289a.19.19,0,0,1-.23-.14.2.2,0,0,1,.14-.23h7a.19.19,0,0,1,.19.17h0a.17.17,0,0,1-.17.19Z"/><g class="cls-11"><path class="cls-14" d="M283.25,230.3h-4.86a.19.19,0,1,1,0-.38h4.86a.19.19,0,0,1,.19.17v0a.19.19,0,0,1-.19.19Z"/></g><path class="cls-14" d="M246.71,240.13h39.34a1.09,1.09,0,0,0,1.09-1.09h0a1.09,1.09,0,0,0-1.08-1.1H246.71a1.09,1.09,0,0,0-1.09,1.09h0A1.09,1.09,0,0,0,246.71,240.13Z"/><path class="cls-22" d="M246.71,240.13h39.34a1.09,1.09,0,0,0,1.09-1.09h0a1.09,1.09,0,0,0-1.08-1.1H246.71a1.09,1.09,0,0,0-1.09,1.09h0A1.09,1.09,0,0,0,246.71,240.13Z"/><path class="cls-14" d="M277.74,240.13h21a1.09,1.09,0,0,0,1.09-1.09h0a1.09,1.09,0,0,0-1.08-1.1h-21a1.09,1.09,0,0,0-1.09,1.09h0A1.09,1.09,0,0,0,277.74,240.13Z"/><path class="cls-23" d="M277.74,240.13h21a1.09,1.09,0,0,0,1.09-1.09h0a1.09,1.09,0,0,0-1.08-1.1h-21a1.09,1.09,0,0,0-1.09,1.09h0A1.09,1.09,0,0,0,277.74,240.13Z"/></g><g id="freepik--character-3--inject-52"><path class="cls-26" d="M338,129l2.14,1.68a3.15,3.15,0,0,1,1.21,2.64l-.23,4.78a5.91,5.91,0,0,1-2.7,4.69l-1,.64c-3.74-2.54-5.91-8-5.91-8l-.79-1.51a2.64,2.64,0,0,1,1-3.6h0l3-1.61A3,3,0,0,1,338,129Z"/><path class="cls-26" d="M379.79,143.35l-.15.33-.11.25c-.07.16-.15.31-.22.45s-.29.57-.44.83c-.29.54-.6,1.06-.91,1.56-.63,1-1.3,1.95-2,2.87a45.63,45.63,0,0,1-4.53,5.09c-.81.79-1.64,1.54-2.48,2.28s-1.72,1.42-2.61,2.09a58.09,58.09,0,0,1-5.48,3.73l-.23.14a3,3,0,0,1-.57.28,8.83,8.83,0,0,1-3.49.53,9.9,9.9,0,0,1-3-.62,15.25,15.25,0,0,1-4.25-2.44,25.87,25.87,0,0,1-3.12-2.89c-.93-1-1.8-2-2.6-3.05s-1.56-2.1-2.28-3.17-1.4-2.16-2.06-3.25-1.28-2.2-1.88-3.32l-.87-1.7c-.28-.57-.55-1.13-.83-1.75a2.35,2.35,0,0,1,4-2.4l.05.06,1.08,1.4c.37.48.74,1,1.12,1.42.74,1,1.51,1.87,2.27,2.79s1.55,1.81,2.34,2.69,1.59,1.73,2.41,2.54,1.63,1.6,2.47,2.31a21.68,21.68,0,0,0,2.58,1.9,7.53,7.53,0,0,0,2.22,1,1.67,1.67,0,0,0,.63.06c.11,0,.12-.06.13-.08l-.8.42c1.56-1.15,3.06-2.37,4.51-3.62.72-.62,1.42-1.28,2.11-1.93s1.35-1.33,2-2l.94-1c.3-.31.62-.7.93-1.05.6-.71,1.17-1.45,1.72-2.17s1.07-1.48,1.55-2.23c.24-.37.46-.74.67-1.1.11-.18.21-.36.3-.53l.13-.24.06-.1h0a4.73,4.73,0,0,1,8.72,3.68h0Z"/><polygon class="cls-5" points="319.99 74.82 320.81 74.58 338.7 134 337.4 134.39 319.99 74.82"/><polygon class="cls-27" points="319.99 74.82 320.81 74.58 338.7 134 337.4 134.39 319.99 74.82"/><polygon class="cls-18" points="359.9 152.74 366.34 159.11 368.95 157.01 361.6 150.99 359.9 152.74"/><path class="cls-5" d="M388.42,138.41a120.25,120.25,0,0,0-6.4,31.21c.34,1.5.76,3,1.24,4.53.94-1.39,2.5-2.89,3.55-4.27.57-14.24,1.89-27.93,3.05-31.32Z"/><polygon class="cls-5" points="388.36 140.6 387.33 137.1 389.86 136.21 391.62 137.47 388.36 140.6"/><path class="cls-10" d="M389.86,136.21s1.46,2.19,3.2,4.38c2.92-1.26,9.81-4.69,9.86-8.41a3.7,3.7,0,0,0-1.64-1.87A40.11,40.11,0,0,1,389.86,136.21Z"/><path class="cls-10" d="M389.86,136.21a19.82,19.82,0,0,0-4,3.76c-1.9-1.58-.18-8.34.64-9a4.81,4.81,0,0,1,2.82-.68S386.71,135.15,389.86,136.21Z"/><polygon class="cls-28" points="364.94 346.46 358.36 345.56 359.27 329.48 365.84 330.39 364.94 346.46"/><polygon class="cls-18" points="365.84 330.39 359.27 329.48 358.7 339.45 365.33 339.45 365.84 330.39"/><path class="cls-5" d="M357.86,344.77l7.43-.47a.48.48,0,0,1,.52.42h0l.73,5.86a1.18,1.18,0,0,1-1.08,1.25c-2.6.12-3.84,0-7.12.22a60.61,60.61,0,0,1-8.73.28c-2.77-.27-2.43-3-1.23-3.13a18.26,18.26,0,0,0,8.37-4A1.87,1.87,0,0,1,357.86,344.77Z"/><path class="cls-8" d="M357.7,345.57h0c0-.11-.11-2-.8-2.58a1,1,0,0,0-.74-.18.65.65,0,0,0-.56.51,2.36,2.36,0,0,0,.65,1.51,2.81,2.81,0,0,0-1.84-.34.59.59,0,0,0-.33.46.82.82,0,0,0,.24.85,1.74,1.74,0,0,0,1.26.25,7.8,7.8,0,0,0,1.73-.34.06.06,0,0,0,.06,0h0s.15,0,.16-.06h.14Zm-1.83-2.2c0-.09.06-.2.28-.24h.08a.52.52,0,0,1,.34.12,3.37,3.37,0,0,1,.56,2l-.14-.08a3.18,3.18,0,0,1-1.12-1.8Zm-1.35,2.19a.54.54,0,0,1-.14-.54.28.28,0,0,1,.16-.23c.42-.19,1.55.29,2.35.73-1.17.31-2,.33-2.37,0Z"/><polygon class="cls-28" points="413.38 346.46 406.8 345.56 405.89 329.92 412.46 330.83 413.38 346.46"/><polygon class="cls-18" points="412.46 330.83 405.89 329.93 406.44 339.45 412.97 339.45 412.46 330.83"/><path class="cls-5" d="M406.3,344.77l7.44-.47a.48.48,0,0,1,.51.42h0l.72,5.86a1.18,1.18,0,0,1-1.08,1.25c-2.59.12-3.84,0-7.11.22a60.7,60.7,0,0,1-8.74.28c-2.77-.27-2.43-3-1.23-3.13a18.26,18.26,0,0,0,8.37-4A1.89,1.89,0,0,1,406.3,344.77Z"/><path class="cls-8" d="M406.14,345.57h0c0-.11-.11-2-.8-2.58a1,1,0,0,0-.74-.18.65.65,0,0,0-.56.51,2.36,2.36,0,0,0,.65,1.51,2.78,2.78,0,0,0-1.83-.34.62.62,0,0,0-.34.46.82.82,0,0,0,.24.85,1.78,1.78,0,0,0,1.27.25,7.82,7.82,0,0,0,1.72-.34.06.06,0,0,0,.06,0h0s.16,0,.17-.06h.13Zm-1.82-2.2c0-.09.06-.2.27-.24h.08a.52.52,0,0,1,.34.12,3.37,3.37,0,0,1,.56,2l-.14-.08a3.11,3.11,0,0,1-1.11-1.8ZM403,345.56a.56.56,0,0,1-.14-.54.28.28,0,0,1,.16-.23c.42-.19,1.56.29,2.36.73C404.17,345.83,403.3,345.85,403,345.56Z"/><path class="cls-8" d="M396.5,193v25.66c-7.91,21.11-20,56-22.05,67.38s-1.55,25.31-5.28,50.55l-13,.31s-.9-28.85,1-50S375,193,375,193Z"/><path class="cls-8" d="M412.89,193c1.51,11.39-3.71,87.49-2.41,98.08s2.84,20.21,4.52,45.82H402.8s-6.36-24.28-9.63-45.55-5.15-77.65-3-98.35Z"/><path class="cls-18" d="M383.9,254s1.24-11.83,1.57-16.65,3.5-18.16,3.5-18.16l.54,18.7Z"/><path class="cls-18" d="M412,159.44c-.5-4.81-1.21-11.41-2.07-15.45a37.36,37.36,0,0,0,3.06,2.42"/><path class="cls-8" d="M387.66,139.6c.63,6.84-16.12,21.66-16.12,21.66l-11.72-11.42A86.45,86.45,0,0,1,372.21,136C379.09,130.08,387,132.1,387.66,139.6Z"/><path class="cls-12" d="M387.66,139.6c.63,6.84-16.12,21.66-16.12,21.66l-11.72-11.42A86.45,86.45,0,0,1,372.21,136C379.09,130.08,387,132.1,387.66,139.6Z"/><path class="cls-18" d="M378.31,148.36c-3.37,1.8-7.59,7.2-7.84,11.9l1,1s7.86-7.09,12-12.64C382.38,147,382.18,146.3,378.31,148.36Z"/><path class="cls-8" d="M415.72,133.51a159.35,159.35,0,0,0-3,23.74c-.31,5.58-.38,10.88-.32,15.69.14,11.26.94,19.8.8,22.72-5.62-.08-26.78-.38-38.32-.56-7.83-40.35.72-61.83.72-61.83a77.1,77.1,0,0,1,9.06-1.63c.64-.07,1.3-.13,2-.18a142.8,142.8,0,0,1,16.29.24c1,.06,2.07.15,3.08.26C411.14,132.51,415.72,133.51,415.72,133.51Z"/><path class="cls-12" d="M415.72,133.51a159.35,159.35,0,0,0-3,23.74c-.31,5.58-.38,10.88-.32,15.69.14,11.26.94,19.8.8,22.72-5.62-.08-26.78-.38-38.32-.56-7.83-40.35.72-61.83.72-61.83a77.1,77.1,0,0,1,9.06-1.63c.64-.07,1.3-.13,2-.18a142.8,142.8,0,0,1,16.29.24c1,.06,2.07.15,3.08.26C411.14,132.51,415.72,133.51,415.72,133.51Z"/><path class="cls-8" d="M388.82,138.89c-1,2.86-2.59,5.22-3.77,12.65.46,1.56,1,3.13,1.6,4.69.9-1.52,1.85-3,2.86-4.55.53-7.17-.17-9.07.84-12.71Z"/><polygon class="cls-8" points="388.89 141.2 387.59 137.59 390.19 136.49 392.13 137.71 388.89 141.2"/><path class="cls-5" d="M406,132a125,125,0,0,0-19.33,24.27c-3.22-8.3-4.36-16.48-2.88-24.48a78.17,78.17,0,0,0-8.19,1.52s-8.55,21.48-.72,61.83c11.54.18,32.7.48,38.32.56.14-2.92-.66-11.46-.8-22.72-.06-4.81,0-10.11.32-15.69a159.35,159.35,0,0,1,3-23.74S411.14,132.51,406,132Z"/><path class="cls-10" d="M390.19,136.49s1.68,2.21,3.65,4.4c3-1.51,10-5.56,9.84-9.46a3.91,3.91,0,0,0-1.85-1.87A42.24,42.24,0,0,1,390.19,136.49Z"/><path class="cls-10" d="M390.19,136.49a21.32,21.32,0,0,0-3.95,4.21c-2.1-1.54-.72-8.76.11-9.55a5,5,0,0,1,2.92-.9S386.81,135.57,390.19,136.49Z"/><path class="cls-26" d="M420.19,139.07c1.19,2.4,2.19,4.71,3.21,7.1s1.92,4.79,2.79,7.25,1.65,5,2.3,7.6a41.29,41.29,0,0,1,1.35,8.48,19.75,19.75,0,0,1-.08,2.55,14.3,14.3,0,0,1-.23,1.46c-.06.26-.12.51-.2.8l-.13.42-.18.5a9.05,9.05,0,0,1-2.23,3.23,11.72,11.72,0,0,1-2.57,1.79,18.38,18.38,0,0,1-4.67,1.58,32.26,32.26,0,0,1-4.26.56,60.33,60.33,0,0,1-15.8-1.28l.48-5.35,3.62-.27c1.21-.1,2.42-.24,3.61-.36a68.81,68.81,0,0,0,7-1.09,24.35,24.35,0,0,0,3.11-.87,8.81,8.81,0,0,0,2.32-1.1,1.54,1.54,0,0,0,.45-.43c0-.08-.07,0-.16.13v.06h0v-.53a9.5,9.5,0,0,0-.07-1.19,36.38,36.38,0,0,0-1.43-6.26c-.69-2.21-1.46-4.46-2.34-6.69-1.7-4.46-3.66-9-5.62-13.35Z"/><path class="cls-26" d="M401.75,175.66l-6-4.14-1.54,9.06s5.85,2.38,7.44-.61Z"/><polygon class="cls-26" points="389.85 171.86 388.92 179.41 394.25 180.58 395.79 171.52 389.85 171.86"/><path class="cls-26" d="M399.77,115.15c-.77,4.43-1.46,12.54,1.69,15.42,0,0-4,6.09-10.58,6.37-5.66.25-3.15-6.07-3.15-6.07,4.91-1.29,4.7-4.94,3.77-8.35Z"/><path class="cls-18" d="M396.4,118.15l-4.9,4.37a14.2,14.2,0,0,1,.48,2.42c1.88-.31,5.92-4.32,6.08-6.29C398.15,117.85,396.6,118.93,396.4,118.15Z"/><path class="cls-5" d="M388.39,98.6c3.12,2.11,1.7,5.69-5.34,11.29-2.86-3.71-3.33-10.91-1.06-12.72S385.68,96.77,388.39,98.6Z"/><path class="cls-26" d="M401.78,104.4c-.34,7.6-.16,12.06-3.92,16-5.67,6-15.11,2.64-17.05-4.91-1.74-6.79-.9-18.09,6.48-21.23a10.39,10.39,0,0,1,14.49,10.11Z"/><path class="cls-5" d="M390.47,106.67c0,.62-.31,1.13-.72,1.13s-.73-.48-.74-1.1.3-1.12.7-1.14S390.42,106.06,390.47,106.67Z"/><path class="cls-5" d="M383.44,106.8c0,.62-.31,1.12-.71,1.13s-.75-.48-.76-1.11.31-1.12.72-1.13S383.43,106.18,383.44,106.8Z"/><path class="cls-29" d="M385.74,107.05a22,22,0,0,1-2.87,5.34,3.56,3.56,0,0,0,3,.5Z"/><path class="cls-5" d="M392.35,104.42a.37.37,0,0,0,.23,0,.37.37,0,0,0,.07-.51,3.57,3.57,0,0,0-3-1.45.35.35,0,0,0-.34.36h0a.37.37,0,0,0,.39.33h0a2.88,2.88,0,0,1,2.34,1.17A.35.35,0,0,0,392.35,104.42Z"/><path class="cls-5" d="M380.2,104.48a.36.36,0,0,0,.33-.21,2.86,2.86,0,0,1,2-1.67.38.38,0,0,0,.31-.42.37.37,0,0,0-.4-.31,3.64,3.64,0,0,0-2.58,2.1.37.37,0,0,0,.17.48h0Z"/><path class="cls-5" d="M398.64,97.71c-3.54,1.28-3,5.1,2.42,12.25,3.68-2.9,5.91-9.77,4.14-12.07S401.72,96.6,398.64,97.71Z"/><path class="cls-26" d="M405.5,110.41a7.26,7.26,0,0,1-3.37,4.39c-2.21,1.24-3.91-.59-3.81-3,.1-2.17,1.36-5.42,3.82-5.68S406.1,108.14,405.5,110.41Z"/><path class="cls-5" d="M385.83,115.74a17.4,17.4,0,0,0,5.71-2.52,4.73,4.73,0,0,1-3.62,5.63l-.22,0Z"/><path class="cls-30" d="M389.07,118.4a4.33,4.33,0,0,0,2.37-2.9,3.39,3.39,0,0,0-2,1A2.46,2.46,0,0,0,389.07,118.4Z"/><path class="cls-5" d="M383.67,108.91h-2.85a1.43,1.43,0,0,1-1.43-1.43v-1.81a1.43,1.43,0,0,1,1.43-1.42h2.85a1.43,1.43,0,0,1,1.43,1.42v1.81A1.43,1.43,0,0,1,383.67,108.91Zm-2.85-3.81a.59.59,0,0,0-.58.57v1.81a.58.58,0,0,0,.58.58h2.85a.58.58,0,0,0,.58-.58v-1.81a.59.59,0,0,0-.58-.57Z"/><path class="cls-5" d="M390.49,108.91h-2.85a1.43,1.43,0,0,1-1.43-1.43v-1.81a1.43,1.43,0,0,1,1.43-1.42h2.85a1.43,1.43,0,0,1,1.43,1.42v1.81A1.43,1.43,0,0,1,390.49,108.91Zm-2.85-3.81a.59.59,0,0,0-.58.57v1.81a.58.58,0,0,0,.58.58h2.85a.58.58,0,0,0,.58-.58v-1.81a.59.59,0,0,0-.58-.57Z"/><rect class="cls-5" x="384.68" y="106.15" width="1.96" height="0.85"/><rect class="cls-5" x="391.94" y="106.15" width="7.33" height="0.85"/><polygon class="cls-18" points="416.9 159.44 426.95 155.69 427.87 158.7 417.79 162.01 416.9 159.44"/><polygon class="cls-18" points="410.63 156.24 412.38 172.94 412.58 161.28 410.63 156.24"/><path class="cls-8" d="M417.81,134.18c6.24,2.84,11.82,22.54,11.82,22.54L412.89,162a100.69,100.69,0,0,1-5.58-17.2C405.32,135.35,410.24,130.73,417.81,134.18Z"/><path class="cls-12" d="M417.81,134.18c6.24,2.84,11.82,22.54,11.82,22.54L412.89,162a100.69,100.69,0,0,1-5.58-17.2C405.32,135.35,410.24,130.73,417.81,134.18Z"/></g><g id="freepik--character-2--inject-52"><polygon class="cls-31" points="192.85 225.68 191.8 232.29 186.51 234.47 186.25 226.95 192.85 225.68"/><path class="cls-5" d="M212.12,162.16c.1.52.46.88.8.81s.52-.54.42-1.06-.46-.87-.8-.8S212,161.65,212.12,162.16Z"/><path class="cls-32" d="M212.53,163.05a19,19,0,0,0,3.36,3.9,3,3,0,0,1-2.37,1Z"/><path class="cls-5" d="M209.65,159.69a.29.29,0,0,1-.21-.09.3.3,0,0,1,0-.42h0a3,3,0,0,1,2.62-1,.3.3,0,0,1,.25.34h0a.31.31,0,0,1-.35.26h0a2.46,2.46,0,0,0-2.07.83A.31.31,0,0,1,209.65,159.69Z"/><path class="cls-31" d="M197.45,169.4c.94,4.77,1.87,13.5-1.46,16.68,0,0,1.3,4.83,10.15,4.83,9.74,0,4.66-4.83,4.66-4.83-5.32-1.27-5.18-5.21-4.26-8.91Z"/><path class="cls-5" d="M194.06,187c-.71-1.32-1.49-2.84.13-3.31,1.78-.52,13.24-1.49,16.61-.51-1,1.84.72,4.1.72,4.1Z"/><path class="cls-31" d="M190.21,197.61l-2.56,4.45-2.51,4.56c-1.65,3-3.22,6.1-4.66,9.18-.72,1.55-1.4,3.08-2,4.63l-.12.28v.06a.83.83,0,0,0-.07.13,1.15,1.15,0,0,0-.12.25,1.63,1.63,0,0,0,.11,1,9.76,9.76,0,0,0,2.13,3.24,37,37,0,0,0,3.46,3.28l-2.08,4.43a20.61,20.61,0,0,1-2.86-1,21.64,21.64,0,0,1-2.71-1.39,15.38,15.38,0,0,1-5-4.63,10.33,10.33,0,0,1-1.56-4.05,8.84,8.84,0,0,1,0-2.41,7.88,7.88,0,0,1,.21-1.18l.14-.58.11-.35c.57-1.81,1.16-3.6,1.85-5.33,1.35-3.48,2.87-6.85,4.53-10.12.82-1.64,1.68-3.25,2.59-4.85s1.79-3.16,2.83-4.78Z"/><path class="cls-31" d="M181.59,228.16l4.66-1.21.26,7.52s-3.64.55-5.87-1.68Z"/><path class="cls-8" d="M184.32,187.55c-6.1,1.4-11.14,17-11.14,17l12.26,9.34a26.79,26.79,0,0,0,6.51-12C194,193.67,190.57,186.12,184.32,187.55Z"/><path class="cls-33" d="M184.32,187.55c-6.1,1.4-11.14,17-11.14,17l12.26,9.34a26.79,26.79,0,0,0,6.51-12C194,193.67,190.57,186.12,184.32,187.55Z"/><path class="cls-18" d="M189.56,199c-3.32,3.28-4.4,9.26-4.66,14.46l.54.41a26.69,26.69,0,0,0,6.51-12c.12-.49.23-1,.32-1.45Z"/><path class="cls-8" d="M220.81,187.89s6.94,7.83.39,56.3H186.36c-.24-5.35,3.12-31.44-2-56.64A91,91,0,0,1,196,186.08a126.16,126.16,0,0,1,14.81,0A65.11,65.11,0,0,1,220.81,187.89Z"/><path class="cls-34" d="M220.81,187.89s6.94,7.83.39,56.3H186.36c-.24-5.35,3.12-31.44-2-56.64A91,91,0,0,1,196,186.08a126.16,126.16,0,0,1,14.81,0A65.11,65.11,0,0,1,220.81,187.89Z"/><path class="cls-31" d="M194.73,164.56c1.67,6.24,2.33,10,6.18,12.58,5.8,3.91,13-.58,13.24-7.19.21-6-2.57-15.17-9.27-16.43a8.81,8.81,0,0,0-10.15,11Z"/><path class="cls-5" d="M197.59,174.74c2.66,1.52,12.34-3.56,10.35-11.25a16.71,16.71,0,0,0,2-3.29c.33-.71.64,3.7.88,2.85a61.39,61.39,0,0,0,.38-8.89c-.42-4.89-3.78-6.76-7.35-5.71-3.15.93-3.06,2.65-3.06,2.65s-14.88,1.75-11.71,7.81C183,165.51,194.28,172.85,197.59,174.74Z"/><path class="cls-5" d="M189.51,159.41s-1.77-3.07-4.36-1.35C186.37,158.08,188.37,158.3,189.51,159.41Z"/><path class="cls-5" d="M212.86,160.11s.78-11.25-7.05-11.94A17.65,17.65,0,0,1,212.86,160.11Z"/><path class="cls-31" d="M205.35,164.82a7.28,7.28,0,0,0,2.63,3.89c1.69,1.26,3,0,2.84-1.9-.11-1.73-1.12-4.46-3-5S204.86,163,205.35,164.82Z"/><path class="cls-35" d="M220.7,187.89s6.93,7.83.39,56.3H186.25c-.24-5.35,3.12-31.44-2-56.64a91.52,91.52,0,0,1,11.66-1.47,126.16,126.16,0,0,1,14.81,0A66.09,66.09,0,0,1,220.7,187.89Z"/><path class="cls-18" d="M223.46,204.82l-.13-.11-7.92,1.9c-.45,5.35,5.05,11.75,7.89,14.68A153.36,153.36,0,0,0,223.46,204.82Z"/><path class="cls-31" d="M224,193.83c1,1.56,2.14,3.31,3.28,4.93s2.32,3.26,3.55,4.83a65.75,65.75,0,0,0,7.76,8.66c.68.64,1.38,1.22,2.09,1.77l.53.4a1.15,1.15,0,0,0-.31-.11h-.28a2.86,2.86,0,0,0,1.46-.34,17.6,17.6,0,0,0,2.24-1.16,79.22,79.22,0,0,0,9.37-7.26l3.8,3.07A44.73,44.73,0,0,1,249,219.06a20.36,20.36,0,0,1-3,2.24,11.75,11.75,0,0,1-4.47,1.66,7.64,7.64,0,0,1-3.39-.29,7.31,7.31,0,0,1-1.73-.79l-.77-.49c-1-.66-2-1.35-2.89-2.07a64.14,64.14,0,0,1-9.55-9.59c-1.39-1.72-2.74-3.46-4-5.26s-2.45-3.57-3.62-5.6Z"/><path class="cls-8" d="M211.23,197.74C209.15,206.47,225,215,225,215l10.26-12a85.17,85.17,0,0,0-10.48-12.73C217.55,183.45,212.82,191.09,211.23,197.74Z"/><path class="cls-33" d="M211.23,197.74C209.15,206.47,225,215,225,215l10.26-12a85.17,85.17,0,0,0-10.48-12.73C217.55,183.45,212.82,191.09,211.23,197.74Z"/><path class="cls-31" d="M252.68,207.4l2.43-7.78,6.37,3.18s-.93,5.67-5.57,6.65Z"/><polygon class="cls-31" points="257.66 197.46 263.41 199.05 261.48 202.8 255.11 199.62 257.66 197.46"/><path class="cls-5" d="M200.8,151.1s-1.23-1.94-4.81-.74a4.09,4.09,0,0,0-2.75,2.57l3.93,2.88Z"/><polygon class="cls-36" points="256.41 328.23 258.09 336.14 266.68 335.01 265.43 326.23 256.41 328.23"/><path class="cls-8" d="M268.27,335a.2.2,0,0,1-.19-.16.2.2,0,0,1,.08-.23c.13-.09,3.1-2.2,4.64-1.93a1.09,1.09,0,0,1,.72.43.8.8,0,0,1,.11.93c-.32.52-1.46.84-2.58.95A15.18,15.18,0,0,1,268.27,335Zm.66-.35c1.7,0,4-.2,4.33-.82.05-.08.1-.22-.09-.47a.58.58,0,0,0-.45-.25,1.41,1.41,0,0,0-.41,0A10.06,10.06,0,0,0,268.93,334.67Z"/><path class="cls-8" d="M268.15,335a.19.19,0,0,1-.11-.18c0-.12,0-2.57,1.06-3.63a1.6,1.6,0,0,1,1.15-.48c.59,0,.81.28.85.52.29,1-1.68,3.17-2.71,3.75h-.09A.16.16,0,0,1,268.15,335Zm2-3.87a1.11,1.11,0,0,0-.72.34,5,5,0,0,0-.92,2.88c1.05-.77,2.32-2.44,2.21-3,0-.06-.07-.21-.45-.2h-.12Z"/><path class="cls-5" d="M267.22,333.85l-9.84,1a.8.8,0,0,0-.71.69l-1,8.18a1.35,1.35,0,0,0,1.18,1.49,1,1,0,0,0,.24,0c3.54-.41,6.68-.91,11.09-1.34,5.22-.51,3.95.24,10.09-.27,3.7-.32,4-4.58,2.37-4.63-7.25-.2-8.2-2.29-11.22-4.58A3.13,3.13,0,0,0,267.22,333.85Z"/><polygon class="cls-18" points="266.09 330.84 257.11 331.55 256.41 328.23 265.43 326.23 266.09 330.84"/><polygon class="cls-8" points="258.81 262.75 267.29 325.06 254.11 326.09 238.77 264.32 258.81 262.75"/><polygon class="cls-37" points="258.81 262.75 267.29 325.06 254.11 326.09 238.77 264.32 258.81 262.75"/><path class="cls-8" d="M252.9,325.18l15.88-1.26a3.45,3.45,0,0,1-.13,3.93l-15.33,1.38S251.8,328.35,252.9,325.18Z"/><path class="cls-8" d="M186.26,244.36s-.91,9-.79,12.23c.68,16.87,16.66,22.82,29.4,20.48l45.26-4.9c1.84,6.13,23.16,39.89,23.16,39.89l11.21-6.44s-11.62-27.87-19.12-47.26c-4.29-11.07-38.29-11.41-51.13-9.13-3.91,1.05-3.15-5-3.15-5Z"/><polygon class="cls-36" points="286.15 312.68 290.43 319.82 298.42 315.84 294.26 307.72 286.15 312.68"/><path class="cls-8" d="M300,315.3a.22.22,0,0,1-.23-.34c.09-.13,2.28-3.17,3.87-3.43a1.11,1.11,0,0,1,.85.18.82.82,0,0,1,.41.86c-.14.62-1.14,1.31-2.19,1.79A15.25,15.25,0,0,1,300,315.3Zm.53-.56c1.67-.53,3.8-1.52,3.94-2.25a.46.46,0,0,0-.24-.42.6.6,0,0,0-.52-.1,1.48,1.48,0,0,0-.41.12,10.36,10.36,0,0,0-2.81,2.67Z"/><path class="cls-8" d="M299.85,315.36a.19.19,0,0,1-.17-.14c0-.11-.86-2.5-.18-3.88a1.63,1.63,0,0,1,1-.85c.58-.2.88,0,1,.22.62.87-.58,3.64-1.38,4.55a.11.11,0,0,1-.09.05A.18.18,0,0,1,299.85,315.36Zm.65-4.43a1.11,1.11,0,0,0-.58.57,5.16,5.16,0,0,0,.06,3.11c.77-1.1,1.45-3.15,1.13-3.7,0-.05-.13-.18-.5-.05l-.11.07Z"/><path class="cls-5" d="M298.56,314.53l-9.26,4.24a.84.84,0,0,0-.46.91l1.77,8.29a1.37,1.37,0,0,0,1.61,1.06,1.31,1.31,0,0,0,.28-.09c3.31-1.58,6.19-3.12,10.34-5,4.9-2.24,3.93-1.09,9.73-3.64,3.49-1.54,2.32-5.78.76-5.3-7.12,2.23-8.75.52-12.46-.7A3.25,3.25,0,0,0,298.56,314.53Z"/><polygon class="cls-18" points="288.33 316.31 286.15 312.68 294.26 307.72 296.27 311.64 288.33 316.31"/><path class="cls-8" d="M281.51,312.64l13.9-8.67a3.53,3.53,0,0,1,1.75,3.64l-13.35,8.53S282,316.06,281.51,312.64Z"/><polygon class="cls-5" points="206.99 280.64 207.26 292.32 208.49 352.25 212.54 352.25 213.77 292.32 214.04 280.64 206.99 280.64"/><polygon class="cls-27" points="206.99 280.64 207.26 292.32 208.49 352.25 212.54 352.25 213.77 292.32 214.04 280.64 206.99 280.64"/><polygon class="cls-18" points="206.99 280.64 207.26 292.64 213.77 292.64 214.04 280.64 206.99 280.64"/><polygon class="cls-5" points="184.95 352.06 188.7 281.47 194.82 281.47 189.58 352.06 184.95 352.06"/><polygon class="cls-27" points="189.59 352.06 184.95 352.06 188.36 287.17 188.69 281.39 194.82 281.39 194.35 287.17 189.59 352.06"/><polygon class="cls-18" points="194.82 281.39 194.35 287.39 188.36 287.39 188.69 281.39 194.82 281.39"/><polygon class="cls-5" points="231.45 352.06 226.2 281.47 232.33 281.47 236.08 352.06 231.45 352.06"/><polygon class="cls-27" points="231.44 352.06 226.68 287.17 226.21 281.39 232.33 281.39 232.67 287.17 236.07 352.06 231.44 352.06"/><polygon class="cls-18" points="226.21 281.39 226.68 287.39 232.67 287.39 232.33 281.39 226.21 281.39"/><path class="cls-5" d="M235.62,283.66h-50.2v-4.54a4.23,4.23,0,0,1,4.23-4.23h41.74a4.23,4.23,0,0,1,4.23,4.23h0v4.54Z"/><rect class="cls-5" x="183.01" y="279.28" width="55.01" height="4.38" rx="1.7"/><rect class="cls-35" x="183.01" y="279.28" width="55.01" height="4.38" rx="1.7"/><polygon class="cls-5" points="179.35 226.44 182.59 226.44 191.59 279.27 188.36 279.27 179.35 226.44"/><polygon class="cls-5" points="203.36 226.44 206.59 226.44 215.59 279.27 212.36 279.27 203.36 226.44"/><polygon class="cls-27" points="179.35 226.44 182.59 226.44 191.59 279.27 188.36 279.27 179.35 226.44"/><polygon class="cls-27" points="203.36 226.44 206.59 226.44 215.59 279.27 212.36 279.27 203.36 226.44"/><path class="cls-5" d="M209.56,236.48H179.75a4.46,4.46,0,0,1-4.22-4.15l-3-13c-.33-2.84,1.65-5.36,4.22-5.36h29.8a4.45,4.45,0,0,1,4.22,4.15l3,13C214.1,234,212.12,236.48,209.56,236.48Z"/><rect class="cls-35" x="211.14" y="279.2" width="26.76" height="4.38" rx="1.7"/></g><g id="freepik--character-1--inject-52"><polygon class="cls-36" points="130.71 330.98 132.34 338.64 140.66 337.55 139.45 329.05 130.71 330.98"/><path class="cls-8" d="M142.19,337.56a.23.23,0,0,1-.18-.15.23.23,0,0,1,.08-.23c.13-.09,3-2.12,4.5-1.87a1.14,1.14,0,0,1,.69.42.77.77,0,0,1,.11.9,3.75,3.75,0,0,1-2.5.92A14.33,14.33,0,0,1,142.19,337.56Zm.65-.34c1.64,0,3.84-.19,4.19-.8.05-.07.09-.2-.09-.44a.59.59,0,0,0-.43-.25,1.34,1.34,0,0,0-.4,0A9.7,9.7,0,0,0,142.84,337.22Z"/><path class="cls-8" d="M142.08,337.56a.19.19,0,0,1-.11-.18c0-.11,0-2.48,1-3.51a1.49,1.49,0,0,1,1.11-.46c.58,0,.78.27.83.5.28,1-1.63,3.07-2.63,3.63h-.08A.17.17,0,0,1,142.08,337.56Zm1.93-3.75a1.21,1.21,0,0,0-.69.33,4.89,4.89,0,0,0-.89,2.79c1-.74,2.25-2.36,2.13-2.95,0-.05-.05-.19-.43-.19H144Z"/><path class="cls-5" d="M141.18,336.43l-9.52.93a.78.78,0,0,0-.69.68L130,346a1.28,1.28,0,0,0,1.11,1.43h.27c3.43-.4,6.47-.89,10.74-1.3,5-.5,3.83.23,9.77-.26,3.58-.31,3.83-4.43,2.3-4.49-7-.19-7.95-2.21-10.87-4.43A3.08,3.08,0,0,0,141.18,336.43Z"/><polygon class="cls-18" points="140.09 333.52 131.4 334.2 130.71 330.98 139.45 329.05 140.09 333.52"/><polygon class="cls-5" points="133.03 267.59 140.46 332.29 130.71 333.41 113.63 269.12 133.03 267.59"/><polygon class="cls-37" points="133.03 267.59 140.46 332.29 130.71 333.41 113.63 269.12 133.03 267.59"/><polygon class="cls-36" points="159.51 315.93 163.65 322.84 171.39 318.99 167.36 311.13 159.51 315.93"/><path class="cls-8" d="M172.88,318.49a.2.2,0,0,1-.23-.09.21.21,0,0,1,0-.24c.1-.13,2.21-3.08,3.75-3.33a1.13,1.13,0,0,1,.82.18.82.82,0,0,1,.41.84c-.14.59-1.11,1.26-2.13,1.73A15.34,15.34,0,0,1,172.88,318.49Zm.51-.55c1.62-.51,3.68-1.47,3.82-2.17,0-.09,0-.23-.24-.41a.63.63,0,0,0-.5-.1,1.42,1.42,0,0,0-.4.12A10.2,10.2,0,0,0,173.39,317.94Z"/><path class="cls-8" d="M172.77,318.53a.21.21,0,0,1-.16-.14c0-.11-.83-2.42-.18-3.76a1.54,1.54,0,0,1,.93-.82c.56-.19.85,0,1,.21.6.85-.56,3.53-1.34,4.41a.1.1,0,0,1-.08.05A.22.22,0,0,1,172.77,318.53Zm.63-4.3a1.09,1.09,0,0,0-.56.56,5,5,0,0,0,.06,3c.74-1.07,1.4-3.05,1.09-3.58,0,0-.12-.18-.48,0l-.11.06Z"/><path class="cls-5" d="M171.52,317.73l-9,4.09a.79.79,0,0,0-.44.89l1.71,8a1.31,1.31,0,0,0,1.56,1,.79.79,0,0,0,.26-.08c3.21-1.54,6-3,10-4.86,4.74-2.17,3.8-1,9.41-3.52,3.38-1.49,2.25-5.59.74-5.13-6.9,2.16-8.47.5-12.06-.68A3.12,3.12,0,0,0,171.52,317.73Z"/><polygon class="cls-18" points="161.62 319.44 159.51 315.93 167.36 311.13 169.31 314.93 161.62 319.44"/><path class="cls-5" d="M68.89,243.9s-6.13,7.92-6.85,17.72c-1.21,16.31,12.63,20.54,28.46,19.84l43.82-4.75c1.77,5.94,25.94,42.1,25.94,42.1l9.05-5.19s-13-31.51-20.23-50.28c-4.15-10.72-37.07-11-49.51-8.84-3.77,1-3-4.88-3-4.88Z"/><path class="cls-5" d="M106.15,186.21c-.14.54,0,1.06.38,1.17s.75-.25.9-.79a.91.91,0,0,0-.38-1.16C106.67,185.27,106.29,185.68,106.15,186.21Z"/><path class="cls-5" d="M106.88,185.41h1.4S107.34,186.24,106.88,185.41Z"/><path class="cls-32" d="M106.46,186.87a15.34,15.34,0,0,0,1,4,2.38,2.38,0,0,1-2-.21Z"/><path class="cls-5" d="M107.83,182.85a.47.47,0,0,1-.15-.06,2.82,2.82,0,0,0-2.39-.38.33.33,0,0,1-.43-.18.34.34,0,0,1,.19-.43,3.41,3.41,0,0,1,3,.45.33.33,0,0,1,.08.46.3.3,0,0,1-.29.14Z"/><path class="cls-31" d="M88.63,189.52c.13,4.19-1.66,10.94-4.95,13.08,0,0,2.12,4.52,9.66,6,8.29,1.58,4.66-3.3,4.66-3.3-4.34-2-3.67-5.27-2.37-8.25Z"/><path class="cls-31" d="M88.52,179.41c-1.35,6.72-2.06,9.52.38,13.9,3.67,6.58,12.22,7,15.55.9,3-5.51,4.7-15.57-1.08-20.1a9.15,9.15,0,0,0-14.85,5.3Z"/><path class="cls-31" d="M101.36,184.22a6.21,6.21,0,0,0,.89,3.62c.91,1.54,2.18,1.28,2.62,0a4.45,4.45,0,0,0-.86-4.48C102.77,182.23,101.51,182.8,101.36,184.22Z"/><path class="cls-31" d="M77.59,211.38l-.09,1.05-.07,1.15c-.05.77-.08,1.54-.1,2.32v4.68a63.68,63.68,0,0,0,1,9.24l.42,2a1.23,1.23,0,0,0,.34.68,9.91,9.91,0,0,0,3,2.08,50.35,50.35,0,0,0,8.77,3.06l-.32,4.13a33.24,33.24,0,0,1-10.74-1.13,15.21,15.21,0,0,1-5.63-2.84,8.73,8.73,0,0,1-2.49-3.39l-.2-.55-.1-.33-.2-.64-.39-1.3A56.21,56.21,0,0,1,69,221c-.12-1.77-.18-3.55-.14-5.32q0-1.33.12-2.67a6.14,6.14,0,0,1,.1-1.35c.1-.45.1-.88.18-1.44Z"/><path class="cls-31" d="M89.19,237.78l7.55-.21-3,4.61s-3.77.84-4.9-1.86Z"/><polygon class="cls-31" points="98.66 239.62 98.42 243.5 93.69 242.18 96.74 237.57 98.66 239.62"/><path class="cls-8" d="M70.06,202.9c-3.41,3.4-2.24,15.4-2.24,15.4l11.87,1.56s3.69-10.48-.23-16.33C77.51,200.63,73.4,199.56,70.06,202.9Z"/><path class="cls-8" d="M69.62,243.55l27.77,5.38c13.11-38.62,10-39.87,10-39.87a58,58,0,0,0-6.3-2.92c-.13-.06-.26-.1-.37-.14-1.78-.65-2.15-.75-4.53-1.44a127.25,127.25,0,0,0-12.61-2.44l-.9-.12c-.85-.11-1.69-.2-2.51-.28-.55-.06-1.1-.09-1.63-.13l-1.79-.1c-3-.15-5.21-.1-5.21-.1C73.1,225.49,71.94,232.41,69.62,243.55Z"/><path class="cls-38" d="M69.62,243.55l27.77,5.38c13.11-38.62,10-39.87,10-39.87a58,58,0,0,0-6.3-2.92c-.13-.06-.26-.1-.37-.14-1.78-.65-2.15-.75-4.53-1.44a127.25,127.25,0,0,0-12.61-2.44l-.9-.12c-.85-.11-1.69-.2-2.51-.28-.55-.06-1.1-.09-1.63-.13l-1.79-.1c-3-.15-5.21-.1-5.21-.1C73.1,225.49,71.94,232.41,69.62,243.55Z"/><polygon class="cls-31" points="152.88 233.18 155.27 236.74 151.99 238.18 150.46 233.3 152.88 233.18"/><path class="cls-31" d="M108.53,213.93c1.11,1.74,2.3,3.62,3.53,5.4s2.47,3.58,3.74,5.34,2.58,3.48,3.92,5.17c.67.84,1.36,1.66,2,2.49.34.42.7.81,1,1.21l.53.61.26.29,0,.07a4.31,4.31,0,0,0,1.57.86,16,16,0,0,0,2.65.65,44.13,44.13,0,0,0,6.18.49c4.26.06,8.71-.16,13-.53l.83,4.06a75,75,0,0,1-13.6,2.73A43.65,43.65,0,0,1,127,243a22.63,22.63,0,0,1-3.93-.61,11.38,11.38,0,0,1-4.4-2.12c-.19-.15-.38-.33-.56-.5l-.32-.31-.63-.62c-.41-.42-.84-.82-1.23-1.25-.82-.83-1.61-1.69-2.38-2.56-1.55-1.73-3-3.5-4.45-5.33s-2.79-3.67-4.09-5.57-2.55-3.78-3.76-5.87Z"/><path class="cls-31" d="M145.94,236.91l4.52-3.61,2.33,4.59s-3.79,4.22-6.73,1.45Z"/><path class="cls-18" d="M101.75,220.81a23.33,23.33,0,0,0,.82,12.12c2.3-7.55,3.61-12.72,4.32-16.25C104.76,216.4,102.49,217.09,101.75,220.81Z"/><path class="cls-8" d="M107.13,208.93c4.63,3,7.58,9.75,8.37,13.61l-10.75,8.76s-5.85-13.07-3.93-16.41S105.38,207.79,107.13,208.93Z"/><path class="cls-8" d="M69.48,241.85l-1.66,2.23c-.13.18.06.42.38.48l29.12,5.64c.25.05.48,0,.52-.19l.66-2.42a.46.46,0,0,0-.42-.41L70,241.73A.5.5,0,0,0,69.48,241.85Z"/><path class="cls-18" d="M72.74,245.71l-.76-.14c-.15,0-.25-.13-.22-.22l.88-3.15c0-.09.17-.14.32-.11l.75.15c.15,0,.26.12.23.22l-.88,3.14A.29.29,0,0,1,72.74,245.71Z"/><path class="cls-18" d="M91.75,249.44,91,249.3a.21.21,0,0,1-.23-.22l.89-3.14c0-.09.17-.14.32-.11l.75.14c.15,0,.25.13.22.22l-.88,3.11A.27.27,0,0,1,91.75,249.44Z"/><path class="cls-5" d="M87.4,168.56a8.56,8.56,0,0,0-8,6.51c-1.48,5.08-2.61,11.62-6.15,10.93.79.83,3,1.57,3.55,1-1.84,2.65-2,4.54-1.63,9.18.41,5.79-3,5.09-3,5.09s4.72,5.3,17.12,5.27c11,0,15.55-3.3,16.63-5.56-1.56-.22-4.81-5-3.32-8.45s3.53-12.28,2.36-15.5c1.66,1.83,2.31,5.08,2.81,1.61s.38-7-4.37-10.38C99.21,165.3,88.43,165.3,87.4,168.56Z"/><path class="cls-8" d="M89,178.3c0,3-1.73,5.35-3.86,5.35s-3.88-2.35-3.88-5.35S83,173,85.13,173,89,175.36,89,178.3Z"/><path class="cls-5" d="M82.89,169.44c-3.39-2.23-9.68,1.12-12.65,4.15S63,186.13,63,186.13a15.91,15.91,0,0,1-11.17,5s10.89,5,14.36,4.45,6.17-3.82,6.17-3.82c-1.8,3.87-3.88,7.13-6.89,8.35a18.2,18.2,0,0,0,10-5.76c2.38-2.79,2.54-9.46,2.54-9.46s4.09.55,6.45-2.32S86.27,171.68,82.89,169.44Z"/><polygon class="cls-5" points="81.64 280.86 81.91 292.54 83.14 352.47 87.19 352.47 88.42 292.54 88.69 280.86 81.64 280.86"/><polygon class="cls-27" points="81.64 280.86 81.91 292.54 83.14 352.47 87.19 352.47 88.42 292.54 88.69 280.86 81.64 280.86"/><polygon class="cls-18" points="81.64 280.86 81.91 292.86 88.42 292.86 88.69 280.86 81.64 280.86"/><polygon class="cls-5" points="59.6 352.29 63.35 281.69 69.47 281.69 64.23 352.29 59.6 352.29"/><polygon class="cls-27" points="64.24 352.29 59.6 352.29 63.01 287.39 63.34 281.61 69.47 281.61 69 287.39 64.24 352.29"/><polygon class="cls-18" points="69.47 281.61 69 287.61 63.01 287.61 63.34 281.61 69.47 281.61"/><polygon class="cls-5" points="106.1 352.29 100.85 281.69 106.98 281.69 110.73 352.29 106.1 352.29"/><polygon class="cls-27" points="106.09 352.29 101.33 287.39 100.86 281.61 106.98 281.61 107.32 287.39 110.72 352.29 106.09 352.29"/><polygon class="cls-18" points="100.86 281.61 101.33 287.61 107.32 287.61 106.98 281.61 100.86 281.61"/><path class="cls-5" d="M110.27,283.88H60.07v-4.54a4.23,4.23,0,0,1,4.23-4.23H106a4.23,4.23,0,0,1,4.23,4.23h0v4.54Z"/><rect class="cls-5" x="57.66" y="279.5" width="55.01" height="4.38" rx="1.7"/><rect class="cls-35" x="57.66" y="279.5" width="55.01" height="4.38" rx="1.7"/><polygon class="cls-5" points="54 226.66 57.24 226.66 66.24 279.49 63.01 279.49 54 226.66"/><polygon class="cls-5" points="78.01 226.66 81.24 226.66 90.25 279.49 87.01 279.49 78.01 226.66"/><polygon class="cls-27" points="54 226.66 57.24 226.66 66.24 279.49 63.01 279.49 54 226.66"/><polygon class="cls-27" points="78.01 226.66 81.24 226.66 90.25 279.49 87.01 279.49 78.01 226.66"/><path class="cls-5" d="M84.21,236.71H54.4a4.45,4.45,0,0,1-4.22-4.16l-3-13c-.33-2.84,1.65-5.36,4.22-5.36H81.2a4.45,4.45,0,0,1,4.22,4.15l3,13C88.75,234.19,86.77,236.71,84.21,236.71Z"/><rect class="cls-35" x="85.79" y="279.42" width="26.76" height="4.38" rx="1.7"/></g><text class="cls-39" transform="translate(215.15 80.56)">ADDIE</text><text/><path class="cls-5" d="M377.29,101.11s14.27-6.6,19.33-1.43,8.84-5.29,8.84-5.29-4.68-6.12-15.87-6.64C379.59,87.27,378.14,94,377.29,101.11Z"/><text class="cls-40" transform="translate(330.83 43.57)"><tspan class="cls-41">A</tspan><tspan x="7.56" y="0">U</tspan><tspan class="cls-42" x="15.86" y="0">L</tspan><tspan x="22.68" y="0">A </tspan><tspan x="-13.07" y="14.4">INVE</tspan><tspan class="cls-43" x="13.34" y="14.4">R</tspan><tspan x="20.7" y="14.4">TI</tspan><tspan class="cls-44" x="31.02" y="14.4">D</tspan><tspan x="38.73" y="14.4">A</tspan></text><text/><text class="cls-45" transform="translate(224.58 12.83)"><tspan xml:space="preserve">           Flipped </tspan><tspan x="17.84" y="18">Learning</tspan></text><text class="cls-40" transform="translate(91.96 101.87)">S<tspan class="cls-42" x="11" y="0">L</tspan><tspan x="17.82" y="0">ABO</tspan></text><line class="cls-46" x1="92.13" y1="108.31" x2="133.64" y2="108.31"/><line class="cls-46" x1="92.13" y1="120.14" x2="133.64" y2="120.14"/><line class="cls-47" x1="97.25" y1="114.68" x2="132.69" y2="114.68"/><line class="cls-47" x1="97.25" y1="125.43" x2="132.69" y2="125.43"/><line class="cls-47" x1="97.25" y1="131.01" x2="132.69" y2="131.01"/><text class="cls-48" transform="translate(132.65 48.59)">RECURSOS</text><text class="cls-45" transform="translate(33.36 47.01)"><tspan xml:space="preserve">           </tspan><tspan class="cls-49" x="41.09" y="0">F</tspan><tspan x="49.31" y="0">o</tspan><tspan class="cls-50" x="57.74" y="0">r</tspan><tspan class="cls-51" x="62.88" y="0">os</tspan></text><text class="cls-45" transform="translate(158.78 41.03)"><tspan xml:space="preserve">         TIC</tspan></text><text class="cls-52" transform="translate(226.73 164.59)">Estrategias<tspan x="-42.74" y="14.4" xml:space="preserve">                              Didcticas</tspan></text><text/></svg>