<svg xmlns="http://www.w3.org/2000/svg" viewBox="0 0 839.97 531.75"><defs><style>.cls-1{fill:#b3b3b3;stroke:#ccc;stroke-miterlimit:10;}.cls-2{fill:#141e42;}.cls-3{fill:#7ca7da;}.cls-4{fill:#067bbc;}.cls-5{font-size:10px;fill:#fff;font-family:Roboto-Regular, Roboto;}.cls-6{letter-spacing:0.01em;}.cls-7{letter-spacing:-0.06em;}.cls-8{letter-spacing:-0.04em;}.cls-9{letter-spacing:0.01em;}.cls-10{letter-spacing:-0.04em;}.cls-11{letter-spacing:-0.03em;}.cls-12{letter-spacing:0.01em;}.cls-13{letter-spacing:-0.01em;}</style></defs><g id="Capa_2" data-name="Capa 2"><g id="Capa_1-2" data-name="Capa 1"><line class="cls-1" x1="57.97" y1="47.5" x2="839.97" y2="47.5"/><line class="cls-1" x1="57.97" y1="407.5" x2="839.97" y2="407.5"/><line class="cls-1" x1="57.97" y1="167.5" x2="839.97" y2="167.5"/><line class="cls-1" x1="57.97" y1="287.5" x2="839.97" y2="287.5"/><rect class="cls-2" x="71.47" y="347" width="30" height="61"/><rect class="cls-2" x="111.47" y="286" width="30" height="122"/><rect class="cls-2" x="151.47" y="347" width="30" height="61"/><rect class="cls-2" x="191.47" y="347" width="30" height="61"/><rect class="cls-2" x="231.47" y="347" width="30" height="61"/><rect class="cls-2" x="271.47" y="347" width="30" height="61"/><rect class="cls-2" x="311.47" y="347" width="30" height="61"/><rect class="cls-2" x="351.47" y="347" width="30" height="61"/><rect class="cls-2" x="391.47" y="347" width="30" height="61"/><rect class="cls-2" x="471.47" y="347" width="30" height="61"/><rect class="cls-2" x="511.47" y="347" width="30" height="61"/><rect class="cls-2" x="551.47" y="347" width="30" height="61"/><rect class="cls-2" x="591.47" y="347" width="30" height="61"/><rect class="cls-2" x="631.47" y="347" width="30" height="61"/><rect class="cls-2" x="671.47" y="347" width="30" height="61"/><rect class="cls-2" x="711.47" y="347" width="30" height="61"/><rect class="cls-3" x="751.47" y="286" width="30" height="122"/><rect class="cls-2" x="791.47" y="347" width="30" height="61"/><rect class="cls-3" x="71.47" y="287" width="30" height="61"/><rect class="cls-3" x="151.47" y="286" width="30" height="61"/><rect class="cls-3" x="231.47" y="286" width="30" height="61"/><rect class="cls-3" x="191.47" y="226" width="30" height="121"/><rect class="cls-4" x="111.47" y="165" width="30" height="121"/><rect class="cls-3" x="111.47" y="106" width="30" height="61"/><rect class="cls-4" x="271.47" y="225" width="30" height="121"/><rect class="cls-3" x="271.47" y="107" width="30" height="121"/><rect class="cls-3" x="311.47" y="167" width="30" height="181"/><rect class="cls-4" x="351.47" y="227" width="30" height="121"/><rect class="cls-3" x="351.47" y="109" width="30" height="121"/><rect class="cls-4" x="391.47" y="167" width="30" height="181"/><rect class="cls-3" x="391.47" y="46.5" width="30" height="120"/><rect class="cls-2" x="431.47" y="287" width="30" height="122"/><rect class="cls-3" x="431.47" y="166" width="30" height="121"/><rect class="cls-3" x="471.47" y="288" width="30" height="61"/><rect class="cls-3" x="511.47" y="288" width="30" height="61"/><rect class="cls-3" x="551.47" y="228" width="30" height="121"/><rect class="cls-3" x="591.47" y="286" width="30" height="61"/><rect class="cls-4" x="631.47" y="225" width="30" height="121"/><rect class="cls-3" x="671.47" y="288" width="30" height="61"/><rect class="cls-3" x="631.47" y="167" width="30" height="61"/><rect class="cls-4" x="711.47" y="167" width="30" height="181"/><rect class="cls-3" x="711.47" y="47" width="30" height="121"/><rect class="cls-3" x="791.47" y="241" width="30" height="61"/><rect class="cls-2" x="144.47" width="14" height="14"/><rect class="cls-3" x="607.47" width="14" height="14"/><rect class="cls-4" x="375.47" width="14" height="14"/><text class="cls-5" transform="translate(172.59 11.75)">TECNOLÓGICA</text><text class="cls-5" transform="translate(406.79 11.36)">ORGANI<tspan class="cls-6" x="36.22" y="0">Z</tspan><tspan class="cls-7" x="42.27" y="0">A</tspan><tspan x="48.16" y="0">TI</tspan><tspan class="cls-8" x="56.85" y="0">V</tspan><tspan x="62.84" y="0">A</tspan></text><text class="cls-5" transform="translate(636.79 11.36)">COMP<tspan class="cls-9" x="28.42" y="0">E</tspan><tspan x="34.2" y="0">TENCIA DIGI</tspan><tspan class="cls-10" x="90.02" y="0">T</tspan><tspan x="95.6" y="0">AL</tspan></text><text class="cls-5" transform="translate(10.94 516.79) rotate(-54.28)">PSICO<tspan class="cls-11" x="28.34" y="0">L</tspan><tspan x="33.41" y="0">OGÍA RE</tspan><tspan class="cls-12" x="70.65" y="0">L</tspan><tspan x="76.13" y="0">ACIONES</tspan><tspan x="-6.13" y="12">INDUSTRIALES Y CIENCIAS...</tspan></text><text class="cls-5" transform="translate(101.07 456.15) rotate(-54.28)">MEDICINA</text><text class="cls-5" transform="translate(93.92 523.16) rotate(-54.28)">INGENIERÍA DE PRODUCCIÓN<tspan x="37.66" y="12">Y SE</tspan><tspan class="cls-13" x="57.75" y="12">R</tspan><tspan x="63.82" y="12">VICIOS</tspan></text><text class="cls-5" transform="translate(141.76 515.54) rotate(-54.28)">INGENIERÍA DE PROCESOS</text><text/><text class="cls-5" transform="translate(209.35 529.78) rotate(-54.28)">GEO<tspan class="cls-11" x="19.37" y="0">L</tspan><tspan x="24.43" y="0">OGÍA GEOFÍSICA Y MINAS</tspan></text><text class="cls-5" transform="translate(256.98 521.73) rotate(-54.28)">FI<tspan class="cls-11" x="8.25" y="0">L</tspan><tspan x="13.31" y="0">OSOFÍA Y HUMANIDADES</tspan></text><text class="cls-5" transform="translate(334.78 464.84) rotate(-54.28)">ENFERMERÍA</text><text class="cls-5" transform="translate(382.4 458.21) rotate(-54.28)">ECONOMÍA</text><text class="cls-5" transform="translate(425.28 454.59) rotate(-54.28)">DERECHO</text><text class="cls-5" transform="translate(430.99 498.64) rotate(-54.28)">CIENCIAS N<tspan class="cls-7" x="53.33" y="0">A</tspan><tspan x="59.22" y="0">TURALES </tspan><tspan x="22.27" y="12">Y FORMALES</tspan></text><text class="cls-5" transform="translate(475.42 494.94) rotate(-54.28)">CIENCIAS HISTÓRICO<tspan x="25.76" y="12">SOCIALES</tspan></text><text class="cls-5" transform="translate(495.7 522.45) rotate(-54.28)">CIENCIAS DE <tspan class="cls-12" x="60.92" y="0">L</tspan><tspan x="66.39" y="0">A EDUCACIÓN</tspan></text><text class="cls-5" transform="translate(551.51 497.91) rotate(-54.28)">CIENCIAS CON<tspan class="cls-10" x="66.71" y="0">T</tspan><tspan x="72.29" y="0">ABLES</tspan><tspan x="19.74" y="12">FINANCIERAS</tspan></text><text class="cls-5" transform="translate(591.76 499.24) rotate(-54.28)">CIENCIAS BIOLÓGICAS</text><text class="cls-5" transform="translate(205.11 478.74) rotate(-54.28)">INGENIERÍA CIVIL</text><text class="cls-5" transform="translate(666.28 454.59) rotate(-54.28)">DERECHO</text><text class="cls-5" transform="translate(699.26 464.17) rotate(-54.28)">AGRONOMÍA</text><text class="cls-5" transform="translate(722.3 485.85) rotate(-54.28)">ADMINISTRACIÓN</text><rect class="cls-4" x="791.47" y="302" width="30" height="45"/><text class="cls-5" transform="translate(737.97 519.78) rotate(-54.28)">UNIVERSIDAD NACIONAL DE <tspan x="33.83" y="12">SAN AGUSTÍN</tspan></text><text class="cls-5" transform="translate(48.41 290.88)">2</text><text class="cls-5" transform="translate(49.96 169.36)">4</text><text class="cls-5" transform="translate(49.58 50.73)">6</text></g></g></svg>